<svg xmlns="http://www.w3.org/2000/svg" width="64" height="64"><path d="M51.503 57.27c-.252-.124-.459-.397-.459-.608 0-.21-.137-.436-.305-.5-.168-.065-.306-.238-.306-.385 0-.147-.16-.552-.356-.9-.273-.485-.46-.61-.794-.528-.548.133-.746-.311-.466-1.049.379-.995.053-1.682-1.04-2.188-.54-.251-1.38-.748-1.864-1.103l-1.885-1.386-1.005-.74-.343.425c-.459.566-1.416.816-1.416.37 0-.456-.992-1.052-1.616-.97a3.795 3.795 0 0 0-1.035.333c-.442.228-.575.214-.968-.105-.25-.203-.456-.567-.456-.808 0-.372-.1-.43-.658-.375-.445.043-.733.216-.892.537-.312.63-.99 1.084-1.388.931-.228-.086-.322-.01-.322.284 0 .224-.14.46-.309.526-.17.065-.394.343-.498.617-.136.356-.302.47-.58.396-.278-.073-.425.026-.507.343-.065.248-.213.384-.335.309-.308-.19-.512.45-.246.772.126.152.167.592.096 1.032-.147.9-.902 1.35-1.571.936-.234-.145-.433-.163-.51-.045-.068.106-.432.2-.808.21-.806.017-.877.074-1.173.923-.183.524-.325.637-.741.592-.31-.034-.561.066-.632.252-.159.414-.744.166-.744-.316 0-.483-.851-1.053-1.31-.877-.213.081-.589-.043-.96-.317-.336-.248-.74-.402-.896-.342-.359.138-.609-.248-.534-.824a.689.689 0 0 0-.312-.66c-.347-.205-.34-.24.113-.596l.483-.378-.576-.898c-.317-.494-.6-.934-.63-.978-.03-.044-.193.036-.363.176-.252.21-.331.195-.435-.075a.69.69 0 0 1 .111-.619c.192-.231.149-.3-.223-.354-.254-.037-.512-.25-.573-.474a.685.685 0 0 0-.517-.464c-.797-.111-1.632-.288-1.708-.363-.043-.042-.254.019-.468.134-.266.142-.35.335-.266.604.07.217.05.398-.04.401-1.375.055-2.992.424-3.219.734-.224.308-.35.33-.748.135-.828-.405-1.08-.423-1.443-.107-.267.232-.42.25-.63.077-.153-.127-.34-.17-.414-.094-.076.075-.595.143-1.153.151-.966.013-1.016-.01-1.016-.524 0-.387-.1-.53-.357-.51-.229.017-.358-.117-.361-.379-.008-.625-.833-2.21-1.297-2.493-.228-.138-.553-.198-.723-.132-.202.077-.393-.065-.552-.414-.174-.383-.347-.499-.616-.414-.394.125-.547-.389-.182-.614.665-.411-.78-2.886-1.752-2.998-.512-.06-.597-.182-.819-1.185-.211-.956-.203-1.144.057-1.289.186-.103.255-.32.179-.562-.096-.301-.027-.392.296-.392.25 0 .421-.133.421-.325 0-.18.186-.585.412-.903.402-.566.26-.997-.23-.694-.348.215-.596-.349-.466-1.06.092-.498.024-.703-.31-.936-.573-.402-.392-1.53.261-1.624.24-.035.448-.2.463-.367l.05-.57c.014-.145.24-.48.505-.745.265-.264.685-.81.934-1.213s.537-.732.64-.732c.102 0 .187-.092.187-.204 0-.112-.23-.204-.51-.204-.373 0-.51-.109-.51-.408 0-.224.096-.407.213-.407.12 0 .187-.331.153-.764-.058-.748-.044-.766.705-.827.889-.073.925-.157.305-.694-.252-.22-.465-.597-.474-.84a7.212 7.212 0 0 0-.166-1.088c-.144-.62-.11-.664.806-1.07.526-.232 1.127-.422 1.337-.422.21 0 .382-.081.382-.18 0-.1.23-.331.51-.515.483-.317.543-.31 1.119.115.334.247.661.395.727.33.066-.066.123-.726.127-1.466.004-.74.09-1.396.192-1.459.101-.062.12-.217.042-.344-.078-.127-.164-.418-.19-.648-.027-.23-.08-.601-.116-.825-.052-.314.061-.423.493-.472.362-.042.56-.186.562-.408.001-.189.322-.654.713-1.034.719-.698.884-1.04.503-1.04-.211 0-.15-.912.119-1.797.082-.268.035-.675-.108-.943-.197-.367-.199-.57-.007-.927.26-.486.167-.483 2.71-.078.557.089.873.032 1.133-.203.199-.18.66-.43 1.024-.558.69-.24 1.123-.958.91-1.51-.077-.201.207-.646.786-1.233.824-.836.955-.9 1.455-.71.47.179.53.29.415.772-.074.31-.205.656-.292.768-.087.112-.223.57-.304 1.018-.08.449-.242.935-.358 1.08-.156.197-.103.294.206.374.534.14.865.865.655 1.433-.09.242-.091.7-.004 1.018.138.5.25.571.815.525.36-.03.854.084 1.096.254.242.17.603.309.802.309.199 0 .362.087.362.193 0 .106.227.438.505.738.382.412.638.519 1.054.44.399-.077.65.013.915.331.2.24.368.54.372.666.004.126.273.283.598.348.61.122 1.242 1.036 1.242 1.798 0 .397.5.518.714.172.069-.112.344-.204.61-.204.268 0 .546-.098.62-.217.074-.119.377-.191.675-.16.297.032.647-.01.777-.091.325-.2 1.207.16 1.359.554.074.193.365.321.729.321.387 0 .716.157.91.433.239.342.423.403.877.29.316-.077.76-.316.988-.528.58-.54 1.52-.559 2.35-.046.526.325.792.383 1.066.23.44-.246 1.723.345 2.065.95.12.212.332.511.473.664.14.153.254.466.254.695 0 .23.252.714.56 1.077 1.235 1.454 1.363 1.649 1.307 1.992-.054.33.217.412 1.139.345.084-.01.137-.226.117-.488-.029-.386.082-.495.578-.568.983-.144 1.913.394 2.156 1.25.19.671.221.695.358.276.165-.506.32-.566.64-.246.118.117.638.238 1.157.269.795.046 1.044-.036 1.577-.523.813-.742 1.99-.712 2.275.057.24.65.78 1.225 1.013 1.08.104-.065.351.03.549.208.287.26.742.312 2.28.26 1.705-.058 2.022-.01 2.836.422.505.268 1.353.539 1.885.603.97.117 1.19.306.711.61-.348.221-.913 1.402-1.174 2.456-.138.555-.328.866-.532.866-.174 0-.365.183-.423.407-.059.224-.224.408-.366.408-.143 0-.315.219-.382.486-.068.268-.446.771-.842 1.118-.853.75-1.152 1.435-.987 2.26.067.334.049.769-.04.969-.398.901-.646 2.223-.55 2.937.08.598.027.81-.228.907-.203.078-.332.362-.332.732 0 .332-.219.987-.487 1.455-.268.469-.606 1.332-.75 1.92-.25 1.006-.24 1.093.18 1.54.447.476.603 1.448.266 1.656-.1.061-.241.548-.315 1.082-.074.534-.226 1.205-.337 1.49a1.504 1.504 0 0 0-.024 1.007c.11.296.1.7-.028 1.037-.177.47-.128.646.338 1.2.65.773.691 1.243.138 1.589-.224.14-.407.439-.407.664 0 .668-1.566 2.221-2.208 2.191a4.495 4.495 0 0 0-1.052.102c-.28.07-.716.026-.968-.098z" fill="#7c1544"/></svg>