<svg xmlns="http://www.w3.org/2000/svg" width="70" height="70"><g fill="#7c1544"><path opacity=".228" d="M287.823-310.633h142.786v141.773H287.823z"/><path d="M396.635-192.16c-.482-.237-.876-.76-.876-1.163 0-.402-.263-.832-.584-.956-.322-.125-.585-.454-.585-.735 0-.281-.306-1.056-.681-1.722-.52-.926-.88-1.164-1.518-1.009-1.048.256-1.425-.595-.89-2.004.724-1.903.1-3.217-1.987-4.184-1.035-.48-2.639-1.428-3.564-2.109l-3.603-2.65-1.921-1.412-.657.811c-.876 1.082-2.706 1.56-2.706.708 0-.872-1.897-2.01-3.089-1.855-.55.073-1.442.359-1.98.637-.844.437-1.097.41-1.85-.2-.48-.388-.872-1.083-.872-1.545 0-.71-.192-.82-1.257-.716-.851.082-1.401.413-1.705 1.026-.596 1.203-1.892 2.073-2.654 1.78-.435-.164-.616-.023-.616.543 0 .429-.265.881-.59 1.006-.324.125-.753.655-.952 1.179-.259.68-.576.897-1.11.758-.53-.14-.81.05-.968.654-.124.475-.407.736-.641.59-.588-.363-.978.863-.47 1.477.242.29.32 1.131.183 1.973-.28 1.721-1.724 2.582-3.002 1.79-.447-.278-.828-.312-.974-.086-.132.203-.827.383-1.546.4-1.54.036-1.676.145-2.242 1.766-.35 1.001-.62 1.217-1.417 1.133-.591-.066-1.072.125-1.208.48-.303.791-1.422.318-1.422-.603 0-.925-1.627-2.014-2.505-1.677-.406.156-1.124-.082-1.835-.606-.642-.475-1.412-.769-1.712-.654-.686.263-1.163-.473-1.021-1.574.063-.49-.187-1.02-.596-1.261-.663-.393-.65-.461.217-1.14l.922-.723-1.1-1.717a280.931 280.931 0 0 0-1.206-1.87c-.057-.084-.37.069-.693.337-.482.4-.634.373-.832-.144-.134-.349-.038-.881.213-1.183.367-.442.284-.574-.428-.676-.485-.071-.978-.479-1.094-.907-.115-.428-.56-.828-.99-.888-1.523-.212-3.118-.55-3.264-.693-.082-.08-.485.035-.895.255-.507.272-.67.642-.507 1.155.132.416.097.761-.079.768-2.627.106-5.717.81-6.151 1.403-.43.588-.668.63-1.431.258-1.582-.774-2.065-.81-2.759-.205-.51.443-.803.48-1.204.146-.291-.242-.648-.322-.792-.18-.144.144-1.135.275-2.204.29-1.846.026-1.942-.024-1.942-1 0-.742-.19-1.015-.681-.976-.438.033-.685-.224-.692-.725-.014-1.194-1.592-4.226-2.479-4.765-.435-.264-1.057-.378-1.382-.254-.386.146-.75-.125-1.054-.79-.333-.732-.664-.954-1.177-.791-.754.239-1.046-.744-.349-1.175 1.272-.786-1.493-5.517-3.349-5.731-.979-.114-1.141-.348-1.565-2.265-.404-1.828-.388-2.186.107-2.464.358-.197.49-.613.343-1.074-.183-.576-.05-.75.567-.75.477 0 .805-.253.805-.622 0-.342.354-1.118.786-1.725.77-1.081.496-1.906-.44-1.327-.665.411-1.138-.666-.89-2.025.175-.954.046-1.344-.592-1.791-1.096-.768-.749-2.925.499-3.103.457-.066.855-.381.884-.703.03-.322.073-.811.098-1.09.024-.276.458-.917.964-1.423.505-.505 1.309-1.55 1.784-2.32.476-.77 1.027-1.4 1.223-1.4.197 0 .358-.176.358-.39 0-.214-.438-.388-.974-.388-.714 0-.973-.208-.973-.78 0-.428.183-.779.406-.779.23 0 .357-.632.292-1.46-.112-1.43-.084-1.463 1.347-1.582 1.7-.139 1.77-.299.584-1.326-.482-.418-.89-1.14-.907-1.604-.017-.464-.16-1.4-.317-2.08-.274-1.187-.212-1.27 1.54-2.045 1.006-.445 2.156-.809 2.557-.809.402 0 .73-.155.73-.344 0-.189.439-.633.976-.984.923-.605 1.038-.593 2.137.219.639.472 1.265.756 1.39.63.126-.125.235-1.386.244-2.8.008-1.414.173-2.67.367-2.79.193-.118.23-.415.08-.658-.15-.242-.314-.8-.365-1.239-.05-.44-.15-1.149-.22-1.577-.1-.6.116-.808.941-.903.694-.08 1.073-.354 1.076-.779.002-.36.615-1.25 1.363-1.976 1.373-1.334 1.69-1.99.96-1.99-.402 0-.287-1.741.229-3.434.156-.512.066-1.29-.207-1.802-.376-.703-.38-1.09-.014-1.773.497-.928.32-.922 5.18-.149 1.066.17 1.67.061 2.167-.388.38-.344 1.26-.823 1.958-1.067 1.32-.46 2.146-1.83 1.74-2.887-.147-.384.394-1.233 1.501-2.357 1.575-1.597 1.827-1.72 2.782-1.356.9.341 1.014.554.793 1.476-.141.593-.392 1.253-.558 1.467-.165.214-.427 1.09-.581 1.948-.155.857-.462 1.786-.683 2.064-.3.377-.198.56.392.715 1.02.267 1.654 1.652 1.253 2.738-.172.464-.175 1.34-.007 1.947.263.954.476 1.091 1.557 1.003.69-.057 1.632.16 2.094.487.463.324 1.153.589 1.534.589.38 0 .692.167.692.37 0 .202.434.837.965 1.41.73.788 1.22.992 2.015.84.763-.146 1.243.026 1.75.634.383.46.703 1.033.71 1.274.007.24.522.54 1.145.664 1.166.234 2.374 1.982 2.374 3.437 0 .76.955.99 1.363.33.132-.215.658-.39 1.169-.39.51 0 1.043-.186 1.184-.415.14-.228.72-.366 1.289-.306.568.06 1.237-.024 1.487-.175.62-.383 2.307.305 2.596 1.06.141.368.699.613 1.394.613.74 0 1.368.3 1.739.828.458.654.81.77 1.677.555.604-.148 1.454-.604 1.888-1.01 1.108-1.033 2.908-1.069 4.493-.087 1.005.622 1.515.731 2.039.438.84-.47 3.293.66 3.946 1.817.23.407.636.978.904 1.27.268.292.487.89.487 1.328 0 .439.482 1.366 1.071 2.06 2.36 2.78 2.604 3.15 2.497 3.807-.103.63.416.788 2.177.66.16-.024.262-.432.225-.934-.055-.737.157-.946 1.104-1.084 1.88-.277 3.657.753 4.121 2.388.365 1.284.424 1.329.685.528.315-.968.613-1.082 1.225-.47.224.224 1.219.455 2.211.514 1.52.087 1.995-.068 3.014-1 1.553-1.418 3.805-1.361 4.349.109.46 1.243 1.49 2.34 1.937 2.064.199-.125.67.054 1.048.398.55.497 1.419.597 4.358.497 3.26-.11 3.867-.024 5.423.806.964.512 2.586 1.03 3.603 1.153 1.855.224 2.276.585 1.36 1.167-.666.422-1.745 2.68-2.245 4.693-.263 1.062-.628 1.656-1.016 1.656-.333 0-.698.35-.81.779-.112.428-.427.779-.7.779-.273 0-.602.419-.73.93-.129.512-.852 1.474-1.608 2.137-1.631 1.433-2.203 2.742-1.887 4.321.127.637.093 1.469-.076 1.85-.763 1.725-1.237 4.25-1.054 5.616.154 1.144.053 1.548-.434 1.735-.39.148-.635.69-.635 1.398 0 .635-.419 1.887-.93 2.783-.513.895-1.159 2.545-1.436 3.667-.477 1.925-.457 2.09.346 2.946.854.91 1.152 2.767.507 3.166-.19.117-.46 1.047-.601 2.068-.142 1.02-.432 2.302-.645 2.85-.235.602-.253 1.36-.045 1.923.21.567.189 1.34-.054 1.982-.34.9-.245 1.235.646 2.294 1.244 1.477 1.322 2.377.265 3.037-.429.268-.78.84-.78 1.271 0 1.275-2.992 4.245-4.22 4.188a8.635 8.635 0 0 0-2.012.195c-.535.135-1.368.05-1.85-.186z"/><path opacity=".228" d="M287.602-309.677h70.438v69.939h-70.438zM507.61-219.623l49.807-49.807 49.454 49.454-49.807 49.807zM557.42-269.444l49.808-49.808 49.454 49.455-49.807 49.807zM557.063-170.168l49.807-49.807 49.454 49.454-49.807 49.807z"/><path opacity=".228" d="M606.874-219.99l49.808-49.807 49.454 49.455-49.807 49.807z"/><path d="M657.682-185.33c-.527-.104-1.043-.507-1.148-.896-.104-.388-.47-.736-.811-.772-.343-.038-.682-.287-.755-.559-.073-.272-.57-.94-1.104-1.487-.743-.76-1.15-.897-1.727-.582-.946.518-1.531-.205-1.378-1.705.206-2.026-.736-3.133-3.002-3.527-1.125-.196-2.92-.697-3.989-1.115l-4.166-1.626-2.222-.867-.424.953c-.567 1.272-2.21 2.208-2.431 1.383-.226-.842-2.353-1.45-3.464-.991-.513.213-1.3.72-1.747 1.127-.702.64-.954.68-1.839.286-.563-.251-1.122-.821-1.242-1.267-.184-.686-.397-.742-1.4-.366-.8.3-1.246.761-1.38 1.432-.266 1.317-1.292 2.492-2.104 2.407-.463-.047-.6.136-.454.684.11.414-.029.92-.31 1.123-.281.205-.558.829-.615 1.386-.073.724-.324 1.016-.875 1.02-.549.002-.77.257-.766.882.003.491-.203.816-.466.736-.663-.198-.722 1.087-.071 1.547.308.22.6 1.01.686 1.86.176 1.734-.996 2.94-2.437 2.504-.503-.151-.88-.086-.962.17-.075.23-.7.584-1.39.787-1.479.433-1.582.573-1.71 2.286-.078 1.058-.283 1.336-1.074 1.46-.588.09-1.004.399-1.042.777-.089.843-1.292.675-1.53-.214-.24-.893-2.093-1.524-2.854-.971-.352.255-1.107.212-1.929-.111-.743-.293-1.563-.377-1.823-.189-.594.432-1.246-.156-1.394-1.256-.066-.49-.444-.936-.902-1.064-.742-.207-.747-.277-.086-1.158l.704-.936-1.508-1.373c-.829-.756-1.57-1.428-1.647-1.494-.078-.067-.34.161-.583.504-.362.51-.515.525-.841.076-.22-.302-.265-.84-.1-1.197.24-.522.125-.628-.588-.543-.488.057-1.069-.209-1.292-.593-.222-.384-.756-.654-1.185-.601-1.527.19-3.155.275-3.333.175-.1-.056-.46.16-.799.478-.42.394-.48.794-.19 1.247.234.367.29.71.122.762-2.51.783-5.313 2.263-5.578 2.948-.263.678-.483.782-1.316.619-1.728-.338-2.204-.248-2.718.516-.377.56-.652.671-1.125.453-.344-.159-.71-.144-.811.031-.102.177-1.026.559-2.054.85-1.777.504-1.882.48-2.135-.464-.192-.715-.447-.93-.91-.765-.415.145-.72-.039-.856-.521-.324-1.15-2.632-3.67-3.628-3.961-.489-.143-1.12-.092-1.4.112-.336.241-.758.074-1.224-.491-.51-.62-.888-.75-1.342-.46-.666.427-1.202-.447-.64-1.043 1.025-1.089-2.87-4.943-4.719-4.67-.975.144-1.192-.04-2.098-1.782-.863-1.661-.94-2.011-.533-2.408.293-.283.313-.719.052-1.126-.325-.509-.243-.712.354-.872.46-.123.712-.452.617-.808-.089-.33.052-1.172.312-1.87.464-1.244-.014-1.97-.768-1.168-.536.57-1.271-.35-1.383-1.726-.079-.966-.305-1.31-1.036-1.577-1.257-.457-1.48-2.631-.322-3.126.425-.182.728-.59.673-.908l-.188-1.077c-.048-.274.205-1.006.563-1.625.357-.619.863-1.835 1.123-2.702s.63-1.618.82-1.669c.19-.05.299-.263.244-.469-.056-.207-.524-.263-1.042-.124-.69.185-.994.052-1.142-.5-.11-.414-.025-.8.191-.858.222-.06.181-.704-.096-1.487-.478-1.352-.46-1.391.891-1.876 1.607-.574 1.632-.747.221-1.433-.573-.278-1.154-.87-1.29-1.314-.137-.444-.517-1.311-.845-1.927-.572-1.076-.534-1.172.959-2.374.855-.69 1.872-1.34 2.26-1.443.388-.104.664-.34.615-.522-.048-.182.26-.724.688-1.203.735-.823.85-.841 2.121-.341.74.29 1.418.403 1.506.248.09-.153-.131-1.399-.49-2.767-.358-1.368-.523-2.624-.367-2.79.157-.163.114-.46-.093-.656-.207-.195-.51-.69-.672-1.102a39.247 39.247 0 0 0-.622-1.467c-.251-.554-.096-.81.676-1.115.65-.257.945-.62.837-1.031-.091-.349.272-1.367.806-2.262.981-1.644 1.117-2.36.412-2.171-.389.104-.728-1.607-.668-3.376.018-.535-.27-1.264-.666-1.686-.545-.582-.648-.955-.472-1.71.24-1.024.07-.974 4.965-1.484 1.073-.112 1.629-.373 1.993-.936.277-.43 1.004-1.122 1.615-1.537 1.156-.786 1.598-2.324.933-3.24-.242-.332.061-1.293.84-2.664 1.108-1.951 1.32-2.135 2.336-2.031.957.097 1.123.273 1.149 1.221.016.61-.056 1.312-.16 1.562-.105.25-.13 1.164-.058 2.031.073.868.017 1.845-.125 2.171-.192.441-.046.593.564.59 1.055-.007 2.025 1.167 1.918 2.32-.045.492.178 1.34.498 1.882.5.854.742.93 1.764.566.65-.234 1.617-.268 2.148-.072.531.193 1.266.27 1.634.172.368-.099.712-.018.764.178.053.195.637.697 1.297 1.112.91.573 1.435.643 2.165.29.698-.338 1.207-.296 1.853.16.49.345.947.815 1.017 1.047.069.23.644.386 1.277.345 1.187-.076 2.806 1.3 3.183 2.705.196.734 1.178.71 1.402-.034.072-.242.535-.547 1.028-.68.493-.131.96-.449 1.036-.706.077-.257.602-.54 1.166-.63.564-.088 1.189-.343 1.391-.553.5-.53 2.307-.303 2.782.35.232.32.834.413 1.506.233.714-.192 1.399-.065 1.893.35.612.513.983.534 1.764.102.545-.3 1.248-.96 1.563-1.464.802-1.285 2.531-1.785 4.317-1.247 1.131.34 1.652.314 2.082-.105.69-.671 3.352-.215 4.283.734.326.333.867.78 1.201.992.334.213.7.734.814 1.157.114.424.82 1.194 1.568 1.712 3 2.075 3.33 2.37 3.397 3.032.064.635.606.653 2.274.074.15-.065.14-.485-.025-.96-.244-.698-.093-.955.786-1.334 1.745-.753 3.727-.219 4.6 1.24.684 1.146.752 1.174.797.333.054-1.016.312-1.203 1.062-.77.274.158 1.295.124 2.269-.077 1.49-.309 1.909-.582 2.652-1.745 1.133-1.772 3.323-2.3 4.229-1.02.766 1.08 2.045 1.874 2.405 1.492.16-.172.662-.122 1.116.113.66.338 1.524.209 4.337-.648 3.12-.951 3.73-1.024 5.448-.626 1.063.246 2.764.327 3.779.182 1.85-.264 2.35-.024 1.615.775-.534.58-.993 3.04-.954 5.115.02 1.093-.178 1.761-.553 1.862-.322.086-.583.519-.58.962.003.443-.211.863-.475.933-.264.071-.473.56-.465 1.088.008.528-.441 1.644-1 2.48-1.205 1.806-1.418 3.22-.704 4.663.287.581.47 1.394.405 1.807-.29 1.862-.094 4.424.436 5.696.444 1.065.451 1.482.03 1.788-.338.244-.435.832-.252 1.515.165.614.084 1.932-.179 2.929-.263.997-.46 2.758-.437 3.914.038 1.983.1 2.138 1.097 2.756 1.06.657 1.829 2.375 1.309 2.926-.153.163-.173 1.132-.046 2.154.128 1.022.18 2.336.115 2.92-.071.642.109 1.38.455 1.869.35.493.529 1.245.46 1.929-.094.956.083 1.255 1.218 2.047 1.584 1.106 1.892 1.955 1.042 2.866-.345.37-.535 1.012-.424 1.43.33 1.231-1.792 4.874-2.992 5.137a8.634 8.634 0 0 0-1.893.71c-.483.268-1.309.402-1.835.298z"/></g></svg>