<svg xmlns="http://www.w3.org/2000/svg" height="70" width="70"><path fill="#7c1544" d="M.231 70.196V-.242H70.17v70.438z"/><path d="M40.06 70.146h30V16.177c-.59-.557-1.257-1.025-1.656-1.125-.511-.128-.937-.445-.937-.719 0-.273-.353-.606-.781-.718-.429-.112-.782-.48-.782-.813 0-.388-.594-.736-1.656-1-2.014-.5-4.265-1.584-4.687-2.25-.582-.916-.933-.511-1.157 1.344-.122 1.018-.644 2.661-1.156 3.625-.83 1.557-.923 2.146-.812 5.406.1 2.94 0 3.825-.5 4.375-.344.378-.532.832-.407 1.031.277.447-.82 1.478-2.062 1.938-1.47.544-1.512 2.79-.094 4.344.931 1.019 1.087 1.511 1 3.03-.06.993-.308 1.996-.531 2.22-.612.612-.5.903.468 1.218.801.262.753.323-.531.688-1.635.464-2.651 2.244-2.375 4.125.139.947.356 1.149 1.094 1.094.502-.038.913.058.937.219.128 1.761-.057 2.29-.687 2.187-.656-.107-1.001.14-3.781 2.5-.694.59-1.625 1.063-2.063 1.063-.438 0-1.051.232-1.344.5-.292.267-.843.645-1.25.875-1.157.653-2.313 3.129-1.843 3.968.293.524.183 1.026-.438 2.032-.982 1.585-.94 3.392.094 4.5.406.434.852 1.27 1 1.875.215.866.123 1.229-.531 1.687-.529.37-.844.979-.844 1.719 0 .695-.225 1.265-.594 1.406-.478.184-.925.945-1.093 1.625z" fill="#a61c5a"/></svg>