<svg xmlns="http://www.w3.org/2000/svg" width="31" height="31"><path d="M15.594.531c-3.972 0-7.35 2.499-8.688 6-.942-.576-4.137-2.497-4.562-2.093-.496.47-.378 2.519.125 4.375.463 1.711 1.169 2.972 3.937 2.718.015.066.05.122.063.188.004.02-.004.042 0 .062.094.5.125 1.036.125 1.563 0 3.178-1.802 5.906-4.438 7.281 1.773 5.734 7.121 9.906 13.438 9.906 6.321 0 11.669-4.165 13.437-9.906-2.62-1.38-4.406-4.114-4.406-7.281 0-.616.06-1.236.188-1.813 2.768.254 3.505-1.007 3.968-2.719.502-1.855.59-3.905.094-4.374-.425-.404-3.62 1.517-4.563 2.093-1.337-3.503-4.745-6-8.718-6z" fill="#bad2e1"/><path d="M29.613 21.411c2.285-3.185 1.194-5.003 1.194-5.003a2.714 2.714 0 0 0-5.134.631 2.05 2.05 0 0 1 2.003-1.583c1.135 0 2.054.91 2.054 2.032 0 .678-.337 1.277-.852 1.646a2.43 2.43 0 0 1-.522.27c-.04.014-.08.028-.122.04-.467.143-.806.08-.806.08-.667-.044-1.263-.481-1.932-.973-.557-.408-.856-.735-1.136-1.004-.535-.515-2.232-2.147-4.366-2.227-.333-.013-1.61-.04-2.794.83-.191.14-1.274.967-1.606 2.297-.332-1.33-1.415-2.157-1.605-2.297-1.184-.871-2.461-.842-2.795-.83-2.134.08-3.83 1.712-4.366 2.227-.28.269-.58.596-1.135 1.004-.67.492-1.265.929-1.933.972 0 0-.338.064-.806-.08-.04-.01-.08-.025-.121-.039a2.462 2.462 0 0 1-.522-.27 2.021 2.021 0 0 1-.853-1.646c0-1.122.92-2.032 2.054-2.032a2.05 2.05 0 0 1 2.003 1.583 2.714 2.714 0 0 0-5.133-.631s-1.091 1.817 1.192 5.001c.003 0 .007.01.01.015l.122.167.07.092h.002c2.454 3.202 5.917 3.158 5.917 3.158h-.002a8.181 8.181 0 0 0 7.901-4.552 8.181 8.181 0 0 0 7.901 4.552h-.002s3.53.045 5.988-3.252c.043-.057.084-.113.124-.17.003 0 .006-.01.008-.01z" fill="#5792a7"/></svg>