<svg xmlns="http://www.w3.org/2000/svg" width="150" height="150"><defs><clipPath id="a"><path d="M-847.35 390.049a43.016 43.016 0 1 1-86.031 0 43.016 43.016 0 1 1 86.031 0z" transform="matrix(1.06538 0 0 1.06538 56.548 -1225.399)" fill="#00000f" fill-opacity=".039"/></clipPath></defs><g clip-path="url(#a)" transform="matrix(1.58595 0 0 1.58595 1489.474 1359.629)"><path fill="#f9f9f9" d="M-945.943-858.131h104.569v97.619h-104.569z"/><path d="M-886.559-725.31l-1.917 4.944.254 5.198h24.417c-1.153-5.73-2.08-10.141-2.08-10.141h-20.674z" opacity=".889" fill="#69a5ba"/><path d="M-887.33-723.142l19.797.49 3.838-53.108-13.47-20.431s-6.937 6.96-19.65.082l-7.267 25.489 13.514 43.4z" opacity=".889" fill="#628ea0"/><path d="M-908.088-797.843s-29.868 11.985-29.868 34.257v41.88s2.859 3.627 8.57 3.627c5.71 0 11.411-3.996 11.411-3.996l-1.455 7.461h35.343v-26.126c-.003-.002-4.586-46.634-24.001-57.103zM-875.725-798.975l-1.71 2.656s5.706 11.988 5.706 20.744v60.407h18.665v-7.115l-3.811-1.132v-20.744s4.573 6.86 8.57 6.86 15.425-3.044 19.612-9.516c0 0-8.766-9.145-8.385-21.137 0 0-.766-1.707-13.33 5.336 0 0 .568-8.77-3.81-16.955-4.379-8.186-7.992-16.93-21.507-19.404z" opacity=".889" fill="#dff2fd"/><path d="M-884.094-736.214l-16.655-45.684s2.477-2.22 2.142-4.71l-5.425-1.286-6.996-8.994s2.57-3.426 5.425-3.712c2.855-.285 7.138 2.142 9.136 6.28 1.999 4.141 11.612 22.843 12.373 36.548.761 13.706 0 21.558 0 21.558zM-871.722-730.931s5.807-4.424 5.807-9.778v-42.045l-3.998-4.854s4.426-1.714 3.998-2.856c-.429-1.142-.599-5.44-2.889-6.375-2.29-.934-10.436-3.738-8.627.521 1.809 4.26 3.44 5.542 4.565 12.767 1.125 7.225 1.144 42.912 1.144 52.62zM-919.404-723.793s-1.427-8.09 0-12.754c1.427-4.663 7.805-20.843 10.85-22.65 3.045-1.808 1.046 1.998 0 3.425-1.047 1.427-7.995 14.086-7.9 22.651.096 8.565.572 10.089.572 10.089h16.085l-.761 2.664h-19.481l.635-3.425zM-896.954-722.653s.894 1.092 1.34 7.762h2.61c-.087-1.963-.2-3.678-.23-4.62-.096-2.95-3.72-3.142-3.72-3.142zM-860.386-723.138c-3.57.146-3.05 2.772-3.05 2.772-.108 1.167-.17 2.83-.208 4.643h2.541l.047-4.643 7.992.37s0-2.265-5.52-3.026c-.69-.095-1.292-.137-1.802-.116z" opacity=".889" fill="#8cbcd5"/><g transform="matrix(1.22392 0 0 1.22392 -987.952 -921.799)" opacity=".889"><path d="M93.052 75.115l3.591-3.268s1.095-.722.957 1.887c-.137 2.609.234 8.469-3.148 7.867-3.381-.602-1.4-6.486-1.4-6.486z" fill="#fdd08f"/><path d="M93.078 79.281c1.176.331 3.129-5.719 3.672-7.486.272-.103.96-.162.85 1.94-.137 2.609.234 8.469-3.148 7.867-1.373-.244-1.862-1.36-1.959-2.599.168.118.36.215.585.278z" fill="none"/><path d="M93.078 79.281a1.862 1.862 0 0 1-.584-.279c-.141-1.812.558-3.887.558-3.887l3.591-3.268s.042-.027.108-.052c-.544 1.768-2.497 7.817-3.673 7.486z" fill="#f7ae83"/><path d="M59.242 79.457l1.077-4.125c3.618-12.873 17.278-12.774 23.874-11.413 6.597 1.36 9.974 9.403 9.618 16.285-.353 6.836 5.578 13.297 5.656 13.382.139.311.22.487.22.487s-12.018 2.195-14.236.08c-2.218-2.115-13.256 5.991-13.256 5.991s-1.93-.419-4.391-2.481c-1.682 1.313-4.302 3.005-5.493 2.266-1.808-1.122-1.142-1.756-.237-4.974.464-1.65-.047-4.067-.654-6.034a24.398 24.398 0 0 1-1.225-3.292l-.017-.039.005-.006a24.056 24.056 0 0 1-.941-6.127z" fill="#fdd08f"/><ellipse ry="3.269" rx=".883" cy="79.312" cx="84.125" transform="rotate(166.507 84.125 79.31)" fill="#2b4d5a"/><ellipse ry="3.67" rx="1.622" cy="79.552" cx="77.613" transform="scale(-1) rotate(2.39 3813.759 -3720.837)" fill="#2b4d5a"/><path d="M74.831 103.412s6.131-1.484 7.682-7.007c0 0 2.734 4.583 8.59 5.405-5.022 6.48-16.272 1.602-16.272 1.602z" fill="#fdd08f"/><path d="M62.294 70.797s-1.182 6.323-.516 7.807c.666 1.484-1.421.417-2.073-.921 0 0 .908-4.693 2.589-6.886z" fill="#f7ae83"/><path d="M82.53 105.157c-4.061-.17-7.699-1.744-7.699-1.744s6.131-1.484 7.682-7.007c0 0 2.1 3.52 6.561 4.943-.731 1.244-2.469 3.024-6.544 3.808z" fill="none"/><path d="M89.074 101.348c.629.201 1.305.36 2.029.462-2.167 2.796-5.492 3.475-8.573 3.347 4.075-.784 5.813-2.564 6.544-3.809zM60.214 86.964s.924-2.208 1.843-1.568c0 0 .318.191.827.572l.096.152c-.098.025-.154.042-.154.042s3.428 4.602 1.633 8.375c-1.038 2.181-.847 4.581-.474 6.221a5.115 5.115 0 0 1-1.081-.652c-2.209-1.803-1.6-3.25-1.6-3.25s2.184-5.153-1.09-9.892z" fill="#f7ae83"/><path d="M60.281 100.545c-4.189-4.778-2.716-7.883-2.716-7.883v.001a4.4 4.4 0 0 1 8.381.207 3.323 3.323 0 0 0-3.482-2.238c-1.83.179-3.17 1.792-2.993 3.603a3.276 3.276 0 0 0 1.635 2.521c.312.17.611.282.885.354.067.016.134.032.203.044l-.001.003c.778.158 1.314.002 1.314.002 1.069-.176 1.961-.975 2.964-1.874.833-.747 1.265-1.322 1.673-1.8.783-.916 3.262-3.817 6.692-4.283.536-.073 2.592-.321 4.639.897.33.196 2.207 1.359 2.953 3.452.326-2.198 1.942-3.703 2.227-3.959 1.772-1.592 3.838-1.747 4.377-1.78 3.455-.209 6.45 2.156 7.396 2.902.493.389 1.029.87 1.99 1.441 1.158.687 2.188 1.298 3.271 1.263 0 0 .556.049 1.289-.257l-.001-.002c.065-.025.128-.054.19-.083.255-.124.527-.292.8-.519a3.276 3.276 0 0 0 1.115-2.79c-.177-1.81-1.805-3.133-3.635-2.953a3.322 3.322 0 0 0-2.981 2.871 4.4 4.4 0 0 1 8.181-1.83v-.001s2.047 2.759-1.132 8.257a12.814 12.814 0 0 1-.185.314l-.099.16-.002.004c-3.453 5.552-9.047 6.029-9.047 6.029l.004-.004c-.296.049-.594.092-.896.121-5.2.509-9.99-2.058-12.57-6.217-1.723 4.58-5.925 8.028-11.125 8.538-.303.03-.603.046-.903.055l.005.003s-5.69.631-10.176-4.299a24.416 24.416 0 0 1-.226-.253l-.014-.017z" fill="#2b4d5a"/><path d="M62.127 78.766s-7.827-3.693-8.543-2.831c-.716.862-.15 4.141 1.029 7.067 1.179 2.926 2.722 5.037 8.139 3.451 5.416-1.587-.625-7.687-.625-7.687z" fill="#fdd08f"/><path d="M59.039 79.827s-3.996-3.299-4.018-1.277c-.021 2.022.745 4.123 2.508 5.138 0 0 .588.283-.128-.68-.716-.963-1.83-3.964-1.21-3.668.62.296 4.307 1.552 2.848.487zM60.079 82.494s.296.851-.602.843c-.898-.008-.764.978-.092 1.002.672.024 1.848-1.365.694-1.845z" fill="#f7ae83"/></g></g></svg>