<svg xmlns="http://www.w3.org/2000/svg" xmlns:xlink="http://www.w3.org/1999/xlink" version="1.1" x="0px" y="0px" viewBox="0 0 100 125" style="enable-background:new 0 0 100 100;" xml:space="preserve"><g><path d="M52,43.7c-0.9-0.2-1.8,0-2.5,0.4c-0.8,0.5-1.3,1.2-1.5,2.1l-1.6,7.1h0c-0.2,0.9,0,1.9,0.5,2.6c-0.3,0.1-0.5,0.2-0.7,0.3   l-6.4,3.4c-0.8,0.4-1.4,1.1-1.6,2c-0.3,0.9-0.2,1.8,0.2,2.6c0.6,1.1,1.8,1.8,3,1.8c0.5,0,1.1-0.1,1.6-0.4l6.4-3.4   c1.6-0.9,2.3-2.9,1.4-4.6c-0.1-0.1-0.1-0.2-0.2-0.3c1.2-0.3,2.2-1.2,2.5-2.5l1.6-7.1c0.2-0.9,0-1.8-0.4-2.5   C53.6,44.4,52.9,43.9,52,43.7z M48.4,60.4L42,63.8c-0.7,0.4-1.5,0.1-1.9-0.6c-0.2-0.3-0.2-0.7-0.1-1c0.1-0.4,0.3-0.6,0.7-0.8   l6.4-3.4c0.2-0.1,0.4-0.2,0.6-0.2c0.5,0,1,0.3,1.2,0.7C49.3,59.2,49,60.1,48.4,60.4z M52.6,47.3L51,54.4c-0.2,0.7-0.9,1.2-1.6,1   c-0.7-0.2-1.2-0.9-1-1.6h0l1.6-7.1c0.1-0.4,0.3-0.7,0.6-0.9c0.3-0.2,0.7-0.3,1-0.2c0.4,0.1,0.7,0.3,0.9,0.6   C52.6,46.6,52.7,47,52.6,47.3z"/><path d="M49.8,42.2c0.4,0.2,0.9,0.4,1.4,0.4c0.2,0,0.5,0,0.7-0.1c0.7-0.2,1.3-0.7,1.7-1.3c0.8-1.4,0.3-3.1-1-3.9   c-1.4-0.8-3.1-0.3-3.9,1c-0.4,0.7-0.5,1.4-0.3,2.2C48.7,41.3,49.1,41.9,49.8,42.2z"/><path d="M58.1,35.9c-0.7-0.4-1.6-0.2-2,0.5c-0.2,0.3-0.2,0.7-0.1,1.1c0.1,0.4,0.3,0.7,0.7,0.9c0.2,0.1,0.5,0.2,0.7,0.2   c0.5,0,1-0.3,1.3-0.7c0.2-0.3,0.2-0.7,0.1-1.1C58.6,36.4,58.4,36.1,58.1,35.9z"/><path d="M72.9,56.8c-1.1-1.1-2.6-1.7-4.2-1.7H67c-1.2,0-2.4-0.6-3.2-1.6L61,49.6c0.4-1.1,0.8-2.1,1.1-3.2H64c1,0,2,0.4,2.7,1.1   l0.2,0.1c1.1,1,2.5,1.6,4.1,1.6h1.9c0.6,0,1-0.4,1-1s-0.4-1-1-1H71c-1,0-2-0.4-2.7-1.1L68.1,46c-1.1-1-2.5-1.6-4.1-1.6h-1.3   c0.1-0.4,0.2-0.9,0.3-1.3c0.3-1.5,0.5-2.8,0.5-4l6.3,0.3c0.1,0,0.2,0,0.3,0c1.4,0,2.7-0.5,3.8-1.4l1.4-1.2c0.4-0.4,0.5-1,0.1-1.4   C75,35,74.4,35,74,35.3l-1.4,1.2c-0.8,0.6-1.7,0.9-2.7,0.9L63.5,37c-0.2-2-0.8-3.5-1.6-4.5l0.7-1.9c0.5-1.3,1.7-2.3,3.1-2.5l0.3,0   c1.1-0.2,2.2-0.7,3.1-1.5l2-1.9c0.4-0.4,0.4-1,0.1-1.4c-0.4-0.4-1-0.4-1.4-0.1l-2,1.9c-0.6,0.5-1.3,0.9-2,1l-0.3,0   c-2.1,0.3-3.9,1.8-4.6,3.9l-0.4,1.1c-0.2-0.1-0.3-0.2-0.5-0.3c-0.6-0.3-1.2-0.6-2-0.8l-0.5-3.8c-0.2-1.2,0.3-2.4,1.1-3.3l2.1-2   c0.4-0.4,0.4-1,0-1.4c-0.4-0.4-1-0.4-1.4,0l-2.1,2c-1.3,1.3-1.9,3.1-1.7,5l0.4,3.4c-1.1,0.1-2.4,0.4-3.8,1.1l-0.8-1.2   c-0.5-0.7-0.7-1.5-0.7-2.3V26c0-2.1-1.2-4.1-3-5.2l-0.8-0.5c-0.5-0.3-1.1-0.1-1.4,0.4c-0.3,0.5-0.1,1.1,0.4,1.4l0.8,0.5   c1.2,0.7,2,2,2,3.4v1.4c0,1.2,0.4,2.4,1.1,3.5l0.7,1c-0.9,0.6-1.9,1.3-2.9,2.2c-0.4,0.4-0.9,0.8-1.3,1.2l-0.8-2.1   c-0.8-2.1-2.7-3.6-5-3.8L35.8,29c-0.9-0.1-1.8-0.5-2.5-1.2L31.6,26c-0.4-0.4-1-0.4-1.4,0c-0.4,0.4-0.4,1,0,1.4l1.7,1.8   c1,1.1,2.3,1.7,3.8,1.8l4.5,0.4c1.5,0.1,2.8,1.1,3.3,2.5l1.1,3c-1,1.2-2,2.4-2.9,3.5l-3.8-4c-0.4-0.4-1-0.4-1.4,0   c-0.4,0.4-0.4,1,0,1.4l4.1,4.3c-1.2,1.7-2.2,3.3-3,4.6l-4.6-6.1c-0.9-1.1-2.1-1.9-3.5-2.2l-4-0.8c-0.4-0.1-0.8-0.2-1.2-0.4   l-2.4-1.4c-0.5-0.3-1.1-0.1-1.4,0.4c-0.3,0.5-0.1,1.1,0.4,1.4l2.4,1.4c0.5,0.3,1.1,0.5,1.8,0.7l4,0.8c0.9,0.2,1.8,0.7,2.3,1.5   l5.2,6.8c-1.1,1.9-1.9,3.7-2.4,5.3l-3.1-3.3c-0.6-0.6-1.3-1.1-2-1.4l-2.2-0.9c-0.5-0.2-1.1,0-1.3,0.5c-0.2,0.5,0,1.1,0.5,1.3   l2.2,0.9c0.5,0.2,1,0.5,1.3,0.9l3.9,4.2c-0.3,1.1-0.4,2.1-0.4,3h-2.1c-0.7,0-1.4-0.2-2-0.6c-2.1-1.3-4.8-1.1-6.7,0.4l-1.4,1.1   c-0.4,0.3-0.5,1-0.2,1.4c0.2,0.3,0.5,0.4,0.8,0.4c0.2,0,0.4-0.1,0.6-0.2l1.4-1.1c1.3-1,3.1-1.1,4.5-0.3c0.9,0.6,2,0.9,3.1,0.9h2.2   c0.1,1,0.3,1.8,0.6,2.6l-2.7,1c-0.2,0.1-0.3,0.1-0.5,0.2l-2.6,0.5c-1.4,0.3-2.7,1.1-3.6,2.3l-1.3,1.7c-0.3,0.4-0.2,1.1,0.2,1.4   c0.2,0.1,0.4,0.2,0.6,0.2c0.3,0,0.6-0.1,0.8-0.4l1.3-1.7c0.6-0.8,1.4-1.3,2.4-1.5l2.6-0.5c0.3-0.1,0.5-0.1,0.8-0.2l2.9-1.1   c0.3,0.5,0.7,0.9,1,1.2L35.2,67c-1.5,0.9-2.4,2.5-2.6,4.2l-0.2,1.4c-0.2,1.4-1.1,2.6-2.4,3.1l-1.6,0.7c-0.5,0.2-0.8,0.8-0.5,1.3   c0.2,0.4,0.5,0.6,0.9,0.6c0.1,0,0.3,0,0.4-0.1l1.6-0.7c2-0.8,3.3-2.6,3.6-4.7l0.2-1.4c0.1-1.1,0.8-2.2,1.7-2.8l0.8-0.5   c0.3,0.2,0.6,0.4,0.8,0.5c0.8,0.5,1.8,0.9,2.9,1.2l-1,2c-0.6,1.3-0.8,2.8-0.4,4.2l0.7,2.3c0.1,0.4,0.5,0.7,1,0.7c0.1,0,0.2,0,0.3,0   c0.5-0.2,0.8-0.7,0.7-1.2l-0.7-2.3c-0.3-0.9-0.2-1.9,0.2-2.8l1.3-2.6c0,0,0,0,0,0c1.2,0,2.6-0.3,4-0.9l-0.2,1.8   c-0.3,2.2,0.7,4.3,2.4,5.5l2.7,1.9c0.2,0.1,0.4,0.2,0.6,0.2c0.3,0,0.6-0.1,0.8-0.4c0.3-0.5,0.2-1.1-0.2-1.4L50.3,75   c-1.2-0.8-1.8-2.2-1.6-3.7l0.4-3.3c1.1-0.8,2.3-1.8,3.5-3.2l1.8,1.7c0.4,0.4,0.7,0.8,0.9,1.3l0.5,1.1c0.8,1.8,2.4,3.2,4.4,3.5   l2.6,0.5c1.2,0.2,2.2,0.9,2.8,2l0.6,1.2c0.2,0.3,0.5,0.5,0.9,0.5c0.2,0,0.3,0,0.5-0.1c0.5-0.3,0.7-0.9,0.4-1.4l-0.6-1.2   c-0.9-1.6-2.4-2.7-4.2-3l-2.6-0.5c-1.3-0.2-2.4-1.1-2.9-2.3L57.2,67c-0.3-0.8-0.8-1.5-1.4-2l-2-1.8c0.7-1,1.4-2.1,2.2-3.3l2.8,0.4   c0.8,0.1,1.5,0.5,2,1l3,2.7c0.2,0.2,0.4,0.3,0.7,0.3c0.3,0,0.5-0.1,0.7-0.3c0.4-0.4,0.3-1-0.1-1.4l-3-2.7c-0.9-0.8-1.9-1.3-3.1-1.5   l-2-0.3c0.9-1.7,2-3.9,3.1-6.3l2.1,2.9c1.1,1.5,2.9,2.4,4.8,2.4h1.7c1,0,2,0.4,2.8,1.1l4.4,4.4c0.2,0.2,0.5,0.3,0.7,0.3   s0.5-0.1,0.7-0.3c0.4-0.4,0.4-1,0-1.4L72.9,56.8z M54.6,58.3c-4.9,8.6-10.5,11.6-15.7,8.6c-5.2-3-5.4-9.4-0.5-17.9c0,0,0,0,0,0   c3.2-5.6,6.9-10.4,10.3-13.5c2.8-2.6,5.4-3.9,7.5-3.9c0.2,0,0.4,0,0.6,0c0,0,0,0,0,0c0,0,0,0,0,0c0.7,0.1,1.3,0.3,1.8,0.6   c2.6,1.5,3.4,5,2.3,10.3C60.1,47.1,57.8,52.7,54.6,58.3z"/></g><text x="0" y="115" fill="#000000" font-size="5px" font-weight="bold" font-family="'Helvetica Neue', Helvetica, Arial-Unicode, Arial, Sans-serif">Created by Nook Fulloption</text><text x="0" y="120" fill="#000000" font-size="5px" font-weight="bold" font-family="'Helvetica Neue', Helvetica, Arial-Unicode, Arial, Sans-serif">from the Noun Project</text></svg>