<svg xmlns="http://www.w3.org/2000/svg" xmlns:xlink="http://www.w3.org/1999/xlink" version="1.1" x="0px" y="0px" viewBox="0 0 100 125" style="enable-background:new 0 0 100 100;" xml:space="preserve"><g><path d="M44.7,77.8c0.8,0.6,1.7,0.9,2.7,0.9c0.2,0,0.4,0,0.5,0c1.2-0.1,2.2-0.7,2.9-1.6c0.7-0.9,1-2,0.9-3.2s-0.7-2.2-1.6-2.9   l-1.1-0.9c0.6-0.2,1.1-0.5,1.6-1c0.2,0.7,0.5,1.4,1.1,1.9c0.8,0.8,2,1.3,3.1,1.3c1.1,0,2.2-0.4,3.1-1.3l15.8-15.8   c1.7-1.7,1.7-4.4,0-6.1c-0.6-0.6-1.4-1-2.1-1.2l1.5-1.5c1.7-1.7,1.7-4.4,0-6.1c-1.6-1.6-4.2-1.7-5.9-0.2c-0.2-0.8-0.6-1.6-1.2-2.2   c-1.7-1.7-4.4-1.7-6.1,0l-7.9,7.9l5.5-18.6c0.3-1.1,0.2-2.3-0.3-3.3s-1.5-1.8-2.6-2.1c-1.1-0.3-2.3-0.2-3.3,0.3   c-1,0.6-1.8,1.5-2.1,2.6l-0.4,1.3c-0.5-0.6-1.2-1.1-2-1.3c-1.1-0.3-2.3-0.2-3.3,0.3c-1,0.6-1.8,1.5-2.1,2.6l-6.4,21.4   c-0.1,0.4-0.2,0.9-0.2,1.3l-2.1-1.6c-0.9-0.7-2-1-3.2-0.9c-1.2,0.1-2.2,0.7-2.9,1.6c-0.7,0.9-1,2-0.9,3.2s0.7,2.2,1.6,2.9l1.1,0.8   c-0.8,0.3-1.5,0.8-2,1.4c-1.5,1.9-1.1,4.6,0.7,6.1L44.7,77.8z M50.2,62.6L48.1,61c0.6-0.2,1.2-0.5,1.7-0.9c0.2,0.8,0.6,1.6,1.2,2.2   c0.6,0.6,1.3,1,2.1,1.2l-1.5,1.5C51.4,64,50.9,63.2,50.2,62.6z M72.2,50.5c0.9,0.9,0.9,2.4,0,3.3L56.4,69.6c-0.9,0.9-2.4,0.9-3.3,0   c-0.9-0.9-0.9-2.4,0-3.3l4.1-4.1l11.7-11.7c0.5-0.5,1.1-0.7,1.6-0.7C71.1,49.8,71.7,50.1,72.2,50.5z M68.2,41.7   c0.5-0.5,1.1-0.7,1.6-0.7c0.6,0,1.2,0.2,1.7,0.7c0.9,0.9,0.9,2.4,0,3.3l-4.1,4.1c0,0,0,0,0,0L55.7,60.8c-0.9,0.9-2.4,0.9-3.3,0   c-0.9-0.9-0.9-2.4,0-3.3l13.4-13.4L68.2,41.7z M61.1,39.4c0.5-0.5,1.1-0.7,1.6-0.7c0.6,0,1.2,0.2,1.7,0.7c0.9,0.9,0.9,2.4,0,3.3   L51,56.1l-2.4,2.4c-0.9,0.9-2.4,0.9-3.3,0c-0.9-0.9-0.9-2.4,0-3.3L61.1,39.4z M43.9,53.8c-0.8,0.8-1.2,1.9-1.3,3L40,54.6   c0.4-0.1,0.7-0.2,1.1-0.4c1-0.6,1.8-1.5,2.1-2.6l0.4-1.3c0.5,0.6,1.2,1.1,2,1.3c0.1,0,0.3,0.1,0.4,0.1L43.9,53.8z M50.9,25.4   c0.2-0.6,0.6-1.1,1.1-1.4c0.3-0.2,0.7-0.3,1.1-0.3c0.2,0,0.4,0,0.7,0.1c0.6,0.2,1.1,0.6,1.4,1.1c0.3,0.6,0.4,1.2,0.2,1.8L49,48.2   c-0.4,1.2-1.7,1.9-2.9,1.6c-0.6-0.2-1.1-0.6-1.4-1.1c-0.3-0.6-0.4-1.2-0.2-1.8L50.9,25.4z M36.7,49.7l6.4-21.4   c0.2-0.6,0.6-1.1,1.1-1.4c0.3-0.2,0.7-0.3,1.1-0.3c0.2,0,0.4,0,0.7,0.1c0.6,0.2,1.1,0.6,1.4,1.1c0.3,0.6,0.4,1.2,0.2,1.8l-6.4,21.4   c-0.2,0.6-0.6,1.1-1.1,1.4c-0.6,0.3-1.2,0.4-1.8,0.2C37.1,52.3,36.4,51,36.7,49.7z M27.6,52.5c-0.1-0.6,0.1-1.2,0.5-1.7   S29,50,29.6,50c0.1,0,0.2,0,0.3,0c0.5,0,1,0.2,1.4,0.5L49,64.2c0.5,0.4,0.8,0.9,0.9,1.6c0.1,0.6-0.1,1.2-0.5,1.7   c-0.8,1-2.3,1.2-3.3,0.4L32.4,57.2c0,0,0,0,0,0l-3.9-3.1C28,53.7,27.7,53.2,27.6,52.5z M27.9,59.2c0.4-0.5,0.9-0.8,1.6-0.9   c0.1,0,0.2,0,0.3,0c0.5,0,1,0.2,1.4,0.5l13.7,10.7c0,0,0,0,0,0l3.9,3.1c0.5,0.4,0.8,0.9,0.9,1.6c0.1,0.6-0.1,1.2-0.5,1.7   s-0.9,0.8-1.6,0.9c-0.6,0.1-1.2-0.1-1.7-0.5L28.3,62.4C27.3,61.6,27.1,60.2,27.9,59.2z"/></g><text x="0" y="115" fill="#000000" font-size="5px" font-weight="bold" font-family="'Helvetica Neue', Helvetica, Arial-Unicode, Arial, Sans-serif">Created by Nook Fulloption</text><text x="0" y="120" fill="#000000" font-size="5px" font-weight="bold" font-family="'Helvetica Neue', Helvetica, Arial-Unicode, Arial, Sans-serif">from the Noun Project</text></svg>