<?xml version="1.0" encoding="UTF-8" standalone="no"?>
<!-- Created with Inkscape (http://www.inkscape.org/) -->

<svg
   xmlns:dc="http://purl.org/dc/elements/1.1/"
   xmlns:cc="http://creativecommons.org/ns#"
   xmlns:rdf="http://www.w3.org/1999/02/22-rdf-syntax-ns#"
   xmlns:svg="http://www.w3.org/2000/svg"
   xmlns="http://www.w3.org/2000/svg"
   xmlns:sodipodi="http://sodipodi.sourceforge.net/DTD/sodipodi-0.dtd"
   xmlns:inkscape="http://www.inkscape.org/namespaces/inkscape"
   width="64"
   height="64"
   id="svg2"
   version="1.1"
   inkscape:version="0.48.4 r9939"
   sodipodi:docname="favicon_original.svg"
   inkscape:export-filename="/home/poupi/Desktop/work/frontScope/src/assets/favicon_original.png"
   inkscape:export-xdpi="99.040001"
   inkscape:export-ydpi="99.040001">
  <defs
     id="defs4" />
  <sodipodi:namedview
     id="base"
     pagecolor="#ffffff"
     bordercolor="#666666"
     borderopacity="1.0"
     inkscape:pageopacity="0.0"
     inkscape:pageshadow="2"
     inkscape:zoom="5.6"
     inkscape:cx="32.240131"
     inkscape:cy="25.077548"
     inkscape:document-units="px"
     inkscape:current-layer="layer1"
     showgrid="false"
     inkscape:window-width="1280"
     inkscape:window-height="748"
     inkscape:window-x="0"
     inkscape:window-y="0"
     inkscape:window-maximized="1" />
  <metadata
     id="metadata7">
    <rdf:RDF>
      <cc:Work
         rdf:about="">
        <dc:format>image/svg+xml</dc:format>
        <dc:type
           rdf:resource="http://purl.org/dc/dcmitype/StillImage" />
        <dc:title></dc:title>
      </cc:Work>
    </rdf:RDF>
  </metadata>
  <g
     inkscape:label="Layer 1"
     inkscape:groupmode="layer"
     id="layer1"
     transform="translate(0,-988.36218)">
    <path
       style="fill:#7c1544;fill-opacity:1"
       d="m 51.502893,1045.6326 c -0.252151,-0.1242 -0.458457,-0.3979 -0.458457,-0.6085 0,-0.2104 -0.137538,-0.4355 -0.305639,-0.5 -0.168101,-0.065 -0.305639,-0.2375 -0.305639,-0.3846 0,-0.147 -0.16046,-0.5525 -0.356579,-0.9011 -0.272323,-0.484 -0.459883,-0.6088 -0.793791,-0.5274 -0.548279,0.1335 -0.74582,-0.3113 -0.465572,-1.0485 0.378596,-0.9958 0.05235,-1.6827 -1.039404,-2.1886 -0.541554,-0.2509 -1.380559,-0.7474 -1.864456,-1.1031 -0.483896,-0.3559 -1.332127,-0.9796 -1.884958,-1.386 l -1.005146,-0.739 -0.343342,0.4241 c -0.458556,0.5662 -1.415907,0.8165 -1.415907,0.3701 0,-0.456 -0.992119,-1.0515 -1.615682,-0.97 -0.288084,0.038 -0.754072,0.1877 -1.035527,0.3333 -0.441535,0.2282 -0.574316,0.2138 -0.967856,-0.1053 -0.250865,-0.2032 -0.456117,-0.5668 -0.456117,-0.8081 0,-0.3716 -0.100485,-0.4289 -0.657572,-0.3748 -0.445501,0.043 -0.733123,0.2162 -0.891841,0.5366 -0.312168,0.6297 -0.990057,1.0847 -1.388536,0.9317 -0.227569,-0.086 -0.322197,-0.01 -0.322197,0.2839 0,0.2242 -0.138912,0.4608 -0.308697,0.5259 -0.169782,0.065 -0.393977,0.3429 -0.498212,0.6169 -0.135269,0.3559 -0.301342,0.4694 -0.580159,0.3964 -0.277934,-0.073 -0.424177,0.026 -0.506867,0.3423 -0.06497,0.2485 -0.212776,0.3848 -0.335136,0.3091 -0.307875,-0.1902 -0.511803,0.451 -0.245468,0.7721 0.126247,0.1522 0.166877,0.5918 0.09539,1.0323 -0.146122,0.9004 -0.9017,1.3507 -1.570521,0.9357 -0.233583,-0.1448 -0.433028,-0.1627 -0.509399,-0.045 -0.06903,0.1062 -0.432927,0.2004 -0.808653,0.2096 -0.80594,0.018 -0.876973,0.075 -1.173241,0.9232 -0.183135,0.524 -0.32444,0.637 -0.740739,0.5927 -0.309597,-0.034 -0.56123,0.066 -0.631957,0.2512 -0.158916,0.4141 -0.744221,0.1662 -0.744221,-0.3153 0,-0.4837 -0.851068,-1.0533 -1.310432,-0.8771 -0.212416,0.081 -0.58806,-0.043 -0.959605,-0.3172 -0.335802,-0.2484 -0.738859,-0.4022 -0.895682,-0.3421 -0.358757,0.1377 -0.608636,-0.2475 -0.534247,-0.8236 0.03309,-0.2562 -0.09781,-0.533 -0.311925,-0.6596 -0.346575,-0.2052 -0.339694,-0.2413 0.113556,-0.5966 l 0.482485,-0.378 -0.575889,-0.8979 c -0.316739,-0.4939 -0.60041,-0.9338 -0.630382,-0.9779 -0.02996,-0.044 -0.193158,0.036 -0.362641,0.1757 -0.252001,0.2092 -0.331309,0.1955 -0.435238,-0.075 -0.0699,-0.1823 -0.01979,-0.4607 0.111363,-0.6187 0.192076,-0.2313 0.148599,-0.3002 -0.22355,-0.3539 -0.2541,-0.037 -0.511605,-0.2501 -0.572232,-0.4742 -0.06062,-0.2241 -0.293616,-0.4332 -0.51775,-0.4644 -0.796816,-0.1111 -1.631224,-0.2882 -1.707804,-0.3627 -0.04275,-0.042 -0.253463,0.019 -0.46825,0.1335 -0.265243,0.142 -0.35029,0.3358 -0.265118,0.6041 0.06897,0.2174 0.05046,0.3981 -0.04115,0.4017 -1.374631,0.055 -2.990985,0.4239 -3.217887,0.7341 -0.224704,0.3073 -0.349667,0.3299 -0.748663,0.1347 -0.827488,-0.4048 -1.079997,-0.4236 -1.442974,-0.1076 -0.266653,0.2321 -0.420435,0.2512 -0.630025,0.077 -0.152499,-0.1266 -0.3389001,-0.1686 -0.414228,-0.094 -0.075333,0.075 -0.5941187,0.1434 -1.1528671,0.1516 -0.9660723,0.013 -1.0159081,-0.011 -1.0159081,-0.5237 0,-0.3876 -0.099814,-0.5304 -0.3565799,-0.51 -0.2287217,0.017 -0.3584001,-0.1177 -0.3616625,-0.3792 -0.0078,-0.6249 -0.8329345,-2.2108 -1.2969856,-2.4928 -0.227574,-0.1382 -0.5528021,-0.198 -0.7227292,-0.1327 -0.2022817,0.077 -0.3927007,-0.065 -0.5514942,-0.4138 -0.1742853,-0.3825 -0.3476314,-0.4989 -0.6160126,-0.4137 -0.3943552,0.1251 -0.5468873,-0.389 -0.1822563,-0.6144 0.6652937,-0.4112 -0.7809454,-2.8861 -1.7519266,-2.9983 -0.5122381,-0.059 -0.5969999,-0.1817 -0.81874876,-1.1845 -0.21139609,-0.9562 -0.20322727,-1.1436 0.0561844,-1.2887 0.1868146,-0.1038 0.2556483,-0.3209 0.1789983,-0.5623 -0.095527,-0.301 -0.026402,-0.3924 0.2967078,-0.3924 0.2498249,0 0.4212494,-0.1323 0.4212494,-0.3251 0,-0.1788 0.1850438,-0.585 0.4112061,-0.9026 0.4026667,-0.5655 0.2596157,-0.9968 -0.2302273,-0.6939 -0.3476923,0.215 -0.5950906,-0.3487 -0.4651227,-1.0596 0.091187,-0.4987 0.023517,-0.7031 -0.3101092,-0.9368 -0.57322525,-0.4015 -0.3918063,-1.5301 0.2609195,-1.6233 0.2393682,-0.035 0.4475589,-0.1994 0.4626492,-0.3677 0.015099,-0.1681 0.038013,-0.4244 0.05094,-0.5696 0.012919,-0.1451 0.2398977,-0.4803 0.504379,-0.7449 0.2644813,-0.2643 0.6845734,-0.8103 0.9335343,-1.2132 0.2489631,-0.4028 0.5368726,-0.7324 0.6397995,-0.7324 0.1029272,0 0.1871406,-0.092 0.1871406,-0.2039 0,-0.112 -0.2292289,-0.2037 -0.5093977,-0.2037 -0.3735576,0 -0.5093976,-0.1085 -0.5093976,-0.4075 0,-0.224 0.095661,-0.4075 0.2125775,-0.4075 0.1204298,0 0.1866741,-0.3312 0.1528194,-0.7642 -0.05852,-0.7481 -0.04391,-0.7653 0.704338,-0.8272 0.8892901,-0.073 0.92572,-0.1564 0.3056386,-0.694 -0.2521519,-0.2186 -0.4656506,-0.5961 -0.4744427,-0.839 -0.00878,-0.2427 -0.083342,-0.7326 -0.1656664,-1.0883 -0.1436216,-0.6209 -0.1109856,-0.6642 0.8059834,-1.0697 0.5256145,-0.2326 1.1273907,-0.4229 1.3372806,-0.4229 0.2098887,0 0.3816168,-0.081 0.3816168,-0.1803 0,-0.099 0.2296809,-0.3307 0.5104043,-0.5147 0.4829129,-0.3164 0.5431397,-0.3103 1.1181704,0.115 0.3342714,0.247 0.6615504,0.3954 0.7272869,0.3296 0.065732,-0.065 0.1230162,-0.7248 0.1272854,-1.4648 0.00417,-0.7398 0.090646,-1.3966 0.1919436,-1.4592 0.1013089,-0.062 0.1201269,-0.2174 0.041828,-0.3442 -0.078294,-0.1267 -0.1640427,-0.4182 -0.1905517,-0.6481 -0.026515,-0.2299 -0.078569,-0.6012 -0.1156721,-0.8253 -0.051957,-0.3139 0.061352,-0.4224 0.4928654,-0.472 0.3627239,-0.042 0.5611035,-0.1854 0.5625095,-0.4075 0.0012,-0.1887 0.322111,-0.654 0.713157,-1.0339 0.71848,-0.6981 0.884007,-1.0411 0.502427,-1.0411 -0.210739,0 -0.150189,-0.9107 0.119438,-1.79622 0.08157,-0.26809 0.03482,-0.67531 -0.108173,-0.94246 -0.196889,-0.3679 -0.198445,-0.5703 -0.0071,-0.92777 0.259667,-0.4852 0.167649,-0.48256 2.709563,-0.0777 0.557759,0.0887 0.873692,0.0322 1.133906,-0.2033 0.198394,-0.17954 0.65931,-0.43054 1.024255,-0.55774 0.690259,-0.24064 1.122212,-0.95763 0.910034,-1.51055 -0.07704,-0.2008 0.206042,-0.64518 0.785329,-1.23274 0.823942,-0.83574 0.955481,-0.89988 1.455336,-0.70984 0.470345,0.17883 0.530118,0.29012 0.414849,0.77251 -0.07408,0.30999 -0.205521,0.65531 -0.292107,0.76736 -0.08659,0.11208 -0.223434,0.57053 -0.304109,1.0188 -0.08068,0.44826 -0.241497,0.9343 -0.357381,1.08006 -0.156472,0.19681 -0.103581,0.29301 0.205487,0.37384 0.533836,0.1396 0.865198,0.86419 0.65502,1.43234 -0.08975,0.24258 -0.0914,0.70106 -0.0037,1.01873 0.137762,0.49892 0.249044,0.57052 0.814943,0.52432 0.360469,-0.029 0.853381,0.084 1.09536,0.2547 0.241993,0.1694 0.602957,0.3081 0.802158,0.3081 0.199199,0 0.362179,0.087 0.362179,0.1933 0,0.1064 0.227104,0.4383 0.504674,0.7377 0.382294,0.4126 0.637991,0.5192 1.054437,0.4396 0.398843,-0.076 0.649988,0.014 0.91486,0.3319 0.200805,0.2404 0.36815,0.54 0.371877,0.6662 0.0038,0.1261 0.273121,0.2824 0.598655,0.3477 0.610121,0.122 1.241954,1.0365 1.241954,1.7976 0,0.3974 0.499494,0.5182 0.713157,0.1725 0.06927,-0.1121 0.344337,-0.2038 0.611278,-0.2038 0.266939,0 0.545696,-0.098 0.619456,-0.217 0.07377,-0.1193 0.377226,-0.1914 0.674368,-0.1603 0.29714,0.032 0.647119,-0.01 0.77773,-0.091 0.324273,-0.2004 1.206864,0.1595 1.358167,0.5539 0.07401,0.1928 0.365496,0.3211 0.729392,0.3211 0.387061,0 0.715751,0.1566 0.909462,0.4331 0.239574,0.3422 0.424046,0.4031 0.877529,0.2906 0.315803,-0.078 0.76029,-0.3162 0.987751,-0.5284 0.579438,-0.5405 1.520721,-0.5591 2.35008,-0.046 0.52582,0.325 0.792506,0.3824 1.066422,0.2291 0.439188,-0.2458 1.723054,0.3454 2.064666,0.9506 0.119921,0.2125 0.332654,0.5114 0.472738,0.6642 0.140085,0.1528 0.2547,0.4656 0.2547,0.6949 0,0.2293 0.252151,0.7141 0.560337,1.0771 1.234578,1.4543 1.36204,1.6485 1.30606,1.9917 -0.05383,0.3298 0.217551,0.4121 1.139048,0.3454 0.08405,-0.01 0.136843,-0.2259 0.117314,-0.4885 -0.02868,-0.3857 0.08238,-0.4948 0.577743,-0.5675 0.983723,-0.1444 1.913005,0.394 2.156003,1.2493 0.19078,0.6716 0.221605,0.6953 0.35815,0.2763 0.164935,-0.5062 0.32059,-0.5657 0.64081,-0.2456 0.117106,0.1172 0.637602,0.238 1.15666,0.2686 0.794959,0.046 1.043528,-0.036 1.57671,-0.5226 0.812457,-0.742 1.990275,-0.7125 2.274952,0.057 0.240585,0.6503 0.779208,1.2244 1.013103,1.0799 0.104148,-0.065 0.350989,0.029 0.548527,0.2081 0.287553,0.2601 0.742032,0.312 2.279451,0.2599 1.70545,-0.058 2.022871,-0.01 2.837205,0.4216 0.504304,0.2678 1.352451,0.5392 1.884771,0.6034 0.970341,0.1171 1.190494,0.306 0.711141,0.6102 -0.34826,0.2211 -0.912918,1.4017 -1.174254,2.4553 -0.137786,0.5554 -0.328428,0.8659 -0.531673,0.8659 -0.174276,0 -0.364815,0.1833 -0.423428,0.4075 -0.05862,0.2242 -0.223473,0.4076 -0.366352,0.4076 -0.142883,0 -0.314756,0.219 -0.381939,0.4867 -0.06718,0.2677 -0.445699,0.7708 -0.841145,1.1178 -0.853358,0.7494 -1.152536,1.4344 -0.987303,2.2605 0.06655,0.3329 0.04876,0.7683 -0.03956,0.9679 -0.399041,0.9018 -0.646926,2.223 -0.551109,2.9374 0.08029,0.5985 0.02736,0.8098 -0.227334,0.9075 -0.2035,0.078 -0.331969,0.3613 -0.331969,0.7315 0,0.3324 -0.219139,0.9873 -0.486976,1.4555 -0.267839,0.4682 -0.605803,1.3316 -0.751034,1.9186 -0.249184,1.007 -0.238967,1.0938 0.181337,1.5413 0.446864,0.4755 0.602463,1.4474 0.265147,1.6557 -0.09914,0.061 -0.240749,0.5481 -0.314696,1.0819 -0.07395,0.5337 -0.225751,1.2046 -0.337344,1.4907 -0.122842,0.3152 -0.131979,0.7122 -0.02316,1.0063 0.109681,0.2965 0.09867,0.7008 -0.02825,1.037 -0.177615,0.4705 -0.128275,0.6457 0.337855,1.1996 0.65043,0.7731 0.691392,1.2437 0.138326,1.5891 -0.224135,0.14 -0.407518,0.439 -0.407518,0.6648 0,0.6671 -1.565577,2.2205 -2.20756,2.1906 -0.298751,-0.013 -0.772417,0.033 -1.052586,0.1018 -0.280168,0.07 -0.715703,0.026 -0.967855,-0.098 z"
       id="path2996"
       inkscape:connector-curvature="0"
       sodipodi:nodetypes="sscsccscccccscccsscsscscsccssccsccsccccsscssccccsscccsccccscscsccscccsscssssscccccssssssssscscsssscccssscccssssscccccsssccccccsscssscsssccccscccsccsssscscssccssccsccssssscsscscscsscssccscsccs" />
  </g>
</svg>
