<?xml version="1.0" encoding="UTF-8" standalone="no"?>
<!-- Created with Inkscape (http://www.inkscape.org/) -->

<svg
   xmlns:dc="http://purl.org/dc/elements/1.1/"
   xmlns:cc="http://creativecommons.org/ns#"
   xmlns:rdf="http://www.w3.org/1999/02/22-rdf-syntax-ns#"
   xmlns:svg="http://www.w3.org/2000/svg"
   xmlns="http://www.w3.org/2000/svg"
   xmlns:sodipodi="http://sodipodi.sourceforge.net/DTD/sodipodi-0.dtd"
   xmlns:inkscape="http://www.inkscape.org/namespaces/inkscape"
   height="70"
   width="70"
   version="1.1"
   id="svg3037"
   inkscape:version="0.48.4 r9939"
   sodipodi:docname="preloader_top_right.svg">
  <defs
     id="defs3065" />
  <sodipodi:namedview
     pagecolor="#ffffff"
     bordercolor="#666666"
     borderopacity="1"
     objecttolerance="10"
     gridtolerance="10"
     guidetolerance="10"
     inkscape:pageopacity="0"
     inkscape:pageshadow="2"
     inkscape:window-width="1280"
     inkscape:window-height="748"
     id="namedview3063"
     showgrid="false"
     inkscape:zoom="2.38396"
     inkscape:cx="67.861368"
     inkscape:cy="5.1732303"
     inkscape:window-x="0"
     inkscape:window-y="0"
     inkscape:window-maximized="1"
     inkscape:current-layer="svg3037" />
  <metadata
     id="metadata3039">
    <rdf:RDF>
      <cc:Work
         rdf:about="">
        <dc:format>image/svg+xml</dc:format>
        <dc:type
           rdf:resource="http://purl.org/dc/dcmitype/StillImage" />
        <dc:title />
      </cc:Work>
    </rdf:RDF>
  </metadata>
  <rect
     style="fill:#7c1544"
     id="rect3043"
     x="-70.19632"
     y="0.23061028"
     width="70.438004"
     height="69.939003"
     transform="matrix(0,-1,1,0,0,0)" />
  <path
     style="fill:#a61c5a"
     inkscape:connector-curvature="0"
     id="path3061"
     d="m 40.060615,70.146178 30,0 0,-53.969 c -0.5913,-0.55671 -1.2574,-1.0249 -1.6563,-1.125 -0.5116,-0.12842 -0.9375,-0.44561 -0.9375,-0.71875 0,-0.27313 -0.3527,-0.6067 -0.7812,-0.71875 -0.4286,-0.11205 -0.7813,-0.47935 -0.7813,-0.8125 0,-0.38852 -0.5945,-0.73661 -1.6562,-1 -2.0141,-0.49958 -4.265,-1.5843 -4.6875,-2.2499996 -0.5816,-0.91634 -0.9325,-0.51117 -1.1563,1.3437996 -0.1228,1.0176 -0.6441,2.661 -1.1562,3.625 -0.8299,1.5567 -0.9233,2.1461 -0.8125,5.4062 0.1,2.939 0,3.8253 -0.5,4.375 -0.3438,0.37762 -0.5312,0.83217 -0.4063,1.0312 0.2762,0.44712 -0.8194,1.4776 -2.0625,1.9375 -1.4703,0.5442 -1.5121,2.7906 -0.094,4.3438 0.9312,1.0192 1.087,1.5116 1,3.0312 -0.059,0.99224 -0.3074,1.9949 -0.5313,2.2188 -0.612,0.61214 -0.4988,0.90346 0.4688,1.2188 0.801,0.26103 0.7526,0.3228 -0.5313,0.6875 -1.635,0.46452 -2.6512,2.2445 -2.375,4.125 0.1388,0.94694 0.3564,1.1486 1.0938,1.0938 0.5019,-0.0373 0.9135,0.0581 0.9375,0.21875 0.1275,1.7616 -0.057,2.2904 -0.6875,2.1875 -0.6561,-0.10702 -1.001,0.13995 -3.7813,2.5 -0.6938,0.58913 -1.6242,1.0625 -2.0625,1.0625 -0.4383,0 -1.0515,0.23221 -1.3437,0.5 -0.292,0.26778 -0.8438,0.64576 -1.25,0.875 -1.1569,0.65304 -2.3137,3.1292 -1.8438,3.9688 0.2932,0.52362 0.1837,1.0261 -0.4375,2.0312 -0.982,1.5854 -0.9396,3.3923 0.094,4.5 0.4055,0.43482 0.8515,1.2713 1,1.875 0.2151,0.86689 0.1228,1.2295 -0.5313,1.6875 -0.5286,0.3703 -0.8437,0.97884 -0.8437,1.7188 0,0.69564 -0.2252,1.2648 -0.5938,1.4062 -0.4787,0.1836 -0.9254,0.94535 -1.0937,1.625 z" />
</svg>
