<!-- Created with Inkscape (http://www.inkscape.org/) -->
<svg xmlns:rdf="http://www.w3.org/1999/02/22-rdf-syntax-ns#" xmlns="http://www.w3.org/2000/svg" height="70" width="70" version="1.1" xmlns:cc="http://creativecommons.org/ns#" xmlns:dc="http://purl.org/dc/elements/1.1/">
 <metadata>
  <rdf:RDF>
   <cc:Work rdf:about="">
    <dc:format>image/svg+xml</dc:format>
    <dc:type rdf:resource="http://purl.org/dc/dcmitype/StillImage"/>
    <dc:title/>
   </cc:Work>
  </rdf:RDF>
 </metadata>
 <g transform="translate(0,-982.36218)">
  <rect height="69.939" width="70.438" y="982.38" x="0.030151" fill="#7c1544"/>
  <rect opacity="0.22768" stroke-opacity="0" height="141.77" width="142.79" stroke-miterlimit="4" y="671.73" x="287.82" fill="#7c1544"/>
  <path fill="#7c1544" d="m396.64,790.2c-0.48202-0.2375-0.8764-0.7607-0.8764-1.1634,0-0.402-0.26292-0.8323-0.58426-0.9558-0.32135-0.1249-0.58427-0.4539-0.58427-0.735,0-0.2812-0.30674-1.0563-0.68164-1.7227-0.52058-0.9252-0.87912-1.1639-1.5174-1.0081-1.0481,0.2552-1.4257-0.5951-0.88999-2.0045,0.72373-1.9034,0.10006-3.2165-1.987-4.1836-1.0352-0.4798-2.6391-1.4288-3.5641-2.1089-0.92503-0.6803-2.5465-1.8725-3.6033-2.6495l-1.9215-1.4125-0.65634,0.8107c-0.87658,1.0823-2.7067,1.5607-2.7067,0.7074,0-0.8717-1.8966-2.0101-3.0886-1.8541-0.55071,0.073-1.4415,0.3586-1.9795,0.6369-0.84404,0.4362-1.0979,0.4089-1.8502-0.2003-0.47956-0.3883-0.87192-1.0835-0.87192-1.5447,0-0.7105-0.19209-0.8198-1.257-0.7166-0.85163,0.082-1.4014,0.4133-1.7049,1.0258-0.59675,1.2037-1.8926,2.0735-2.6544,1.7811-0.43503-0.165-0.61592-0.024-0.61592,0.5427,0,0.4287-0.26555,0.8809-0.59011,1.0053-0.32456,0.1249-0.75314,0.6556-0.9524,1.1792-0.25858,0.6806-0.57605,0.8974-1.109,0.7579-0.5313-0.139-0.81086,0.05-0.96894,0.6544-0.12419,0.4751-0.40674,0.7355-0.64065,0.5908-0.58854-0.3636-0.97837,0.8623-0.46924,1.4759,0.24134,0.291,0.31901,1.1314,0.18235,1.9734-0.27933,1.7212-1.7237,2.5821-3.0022,1.7889-0.44652-0.2769-0.82779-0.3111-0.97378-0.085-0.13197,0.2027-0.82759,0.383-1.5458,0.4006-1.5406,0.035-1.6764,0.1438-2.2428,1.7649-0.35008,1.0015-0.6202,1.2176-1.416,1.133-0.59183-0.066-1.0729,0.1249-1.2081,0.48-0.30379,0.7918-1.4227,0.3179-1.4227-0.6025,0-0.9248-1.6269-2.0137-2.505-1.6767-0.40605,0.1555-1.1241-0.082-1.8344-0.6064-0.64192-0.4748-1.4124-0.7689-1.7122-0.6539-0.68581,0.2632-1.1635-0.4732-1.0213-1.5744,0.0632-0.49-0.18696-1.019-0.59628-1.261-0.66252-0.3924-0.64936-0.4612,0.21707-1.1406l0.92232-0.7225-1.1009-1.7165c-0.60548-0.9441-1.1478-1.7851-1.205-1.8693-0.0573-0.085-0.36924,0.068-0.69323,0.3358-0.48173,0.3999-0.63334,0.3738-0.83201-0.1437-0.13362-0.3485-0.0378-0.8809,0.21289-1.1828,0.36718-0.4421,0.28407-0.5738-0.42734-0.6765-0.48574-0.071-0.97799-0.4782-1.0939-0.9066-0.11589-0.4284-0.56128-0.8281-0.98974-0.8877-1.5232-0.2121-3.1183-0.551-3.2647-0.6933-0.0817-0.08-0.48453,0.035-0.89512,0.2552-0.50704,0.2715-0.66962,0.6419-0.5068,1.1547,0.13185,0.4157,0.0965,0.7612-0.0787,0.768-2.6278,0.1061-5.7176,0.8102-6.1514,1.4033-0.42955,0.5875-0.66843,0.6307-1.4312,0.2574-1.5818-0.7737-2.0645-0.8097-2.7584-0.205-0.50974,0.4435-0.80371,0.48-1.2044,0.1461-0.29152-0.2421-0.64785-0.3222-0.79184-0.1791-0.14401,0.1437-1.1357,0.274-2.2038,0.2898-1.8468,0.026-1.942-0.024-1.942-1.0013,0-0.7409-0.19081-1.0138-0.68164-0.9749-0.43723,0.033-0.68513-0.2239-0.69136-0.7249-0.0148-1.1945-1.5923-4.2262-2.4794-4.7652-0.43503-0.2641-1.0567-0.3784-1.3816-0.2538-0.38669,0.1461-0.7507-0.1249-1.0542-0.7908-0.33317-0.7313-0.66454-0.9537-1.1776-0.7909-0.75386,0.2392-1.0454-0.7437-0.34841-1.1745,1.2718-0.7861-1.4929-5.5172-3.349-5.7316-0.97921-0.1131-1.1412-0.3474-1.5651-2.2645-0.40411-1.8278-0.38849-2.1862,0.1074-2.4636,0.35712-0.1979,0.48871-0.6134,0.34218-1.0748-0.18261-0.5755-0.0505-0.7501,0.56719-0.7501,0.47757,0,0.80527-0.2529,0.80527-0.6214,0-0.342,0.35373-1.1184,0.78607-1.7255,0.76975-1.0809,0.49629-1.9055-0.44011-1.3265-0.66465,0.411-1.1376-0.6664-0.88913-2.0255,0.17431-0.9534,0.045-1.3441-0.59281-1.7907-1.0958-0.7675-0.74899-2.9252,0.49877-3.1034,0.45759-0.066,0.85557-0.381,0.88441-0.7027,0.0289-0.3214,0.0727-0.8113,0.0974-1.0889,0.0247-0.2774,0.4586-0.9182,0.96418-1.4239,0.50559-0.5052,1.3086-1.5492,1.7846-2.3193,0.47592-0.7699,1.0263-1.4,1.223-1.4,0.19676,0,0.35774-0.1768,0.35774-0.3898,0-0.2145-0.4382-0.3893-0.97377-0.3893-0.7141,0-0.97378-0.2074-0.97378-0.7791,0-0.4282,0.18287-0.7791,0.40637-0.7791,0.23022,0,0.35685-0.6329,0.29213-1.4608-0.11187-1.43-0.0839-1.463,1.3464-1.5813,1.7-0.139,1.7696-0.299,0.58426-1.3267-0.48201-0.4178-0.89014-1.1394-0.90695-1.6036-0.0168-0.464-0.15932-1.4005-0.31669-2.0806-0.27455-1.1868-0.21216-1.2698,1.5407-2.0448,1.0048-0.4447,2.1552-0.8086,2.5564-0.8086,0.40122,0,0.7295-0.1555,0.7295-0.3445,0-0.1885,0.43907-0.6323,0.9757-0.9839,0.92315-0.6049,1.0383-0.5931,2.1375,0.2192,0.639,0.472,1.2646,0.7558,1.3903,0.6299,0.12566-0.1249,0.23516-1.3854,0.24333-2.8,0.008-1.4142,0.17327-2.6698,0.36692-2.7895,0.19366-0.1178,0.22965-0.4157,0.08-0.658-0.14967-0.2422-0.31359-0.7993-0.36426-1.2388-0.0507-0.4395-0.15021-1.1493-0.22112-1.5777-0.0993-0.6002,0.11729-0.8076,0.94217-0.9023,0.69339-0.08,1.0726-0.3545,1.0753-0.7791,0.002-0.3606,0.61575-1.2502,1.3633-1.9765,1.3735-1.3342,1.6899-1.9901,0.96045-1.9901-0.40285,0-0.28711-1.7408,0.22833-3.4337,0.15593-0.5123,0.0666-1.2909-0.20679-1.8016-0.37638-0.7032-0.37935-1.0901-0.0137-1.7736,0.49638-0.9275,0.32048-0.9223,5.1796-0.1484,1.0662,0.1697,1.6702,0.061,2.1676-0.3886,0.37925-0.3434,1.2604-0.8232,1.958-1.0664,1.3195-0.46,2.1452-1.8305,1.7396-2.8874-0.14726-0.3839,0.39388-1.2334,1.5013-2.3566,1.5751-1.5976,1.8265-1.7202,2.782-1.3569,0.89913,0.3418,1.0134,0.5546,0.79304,1.4767-0.14161,0.5926-0.39288,1.2527-0.5584,1.4669s-0.42712,1.0906-0.58134,1.9477c-0.15424,0.8568-0.46165,1.786-0.68318,2.0645-0.29911,0.3764-0.19799,0.5602,0.39282,0.7148,1.0205,0.2668,1.6539,1.6519,1.2522,2.7381-0.17156,0.4635-0.17472,1.3401-0.007,1.9472,0.26335,0.9539,0.47608,1.0906,1.5579,1.0025,0.68908-0.057,1.6313,0.1602,2.0939,0.4868,0.4626,0.3238,1.1526,0.5889,1.5334,0.5889,0.38079,0,0.69235,0.1674,0.69235,0.3696,0,0.2026,0.43414,0.8379,0.96474,1.4101,0.73081,0.7888,1.2196,0.9926,2.0157,0.8404,0.76243-0.1461,1.2425,0.026,1.7489,0.6346,0.38387,0.4595,0.70377,1.0322,0.71089,1.2735,0.007,0.241,0.5221,0.5399,1.1444,0.6645,1.1663,0.2333,2.3741,1.9814,2.3741,3.4364,0,0.7597,0.95485,0.9907,1.3633,0.3299,0.13241-0.2145,0.65824-0.3898,1.1685-0.3898,0.51029,0,1.0432-0.1862,1.1842-0.4148,0.14101-0.2285,0.72111-0.3659,1.2891-0.3063,0.56802,0.061,1.237-0.024,1.4867-0.1744,0.61988-0.3832,2.3071,0.3047,2.5963,1.0588,0.14149,0.3686,0.69869,0.6137,1.3943,0.6137,0.73991,0,1.3682,0.2995,1.7385,0.8281,0.45797,0.6541,0.81061,0.7705,1.6775,0.5554,0.6037-0.1485,1.4534-0.6045,1.8882-1.01,1.1077-1.0334,2.907-1.069,4.4925-0.087,1.0052,0.6212,1.515,0.731,2.0386,0.4378,0.83956-0.4699,3.2938,0.6603,3.9469,1.8172,0.22924,0.4062,0.63591,0.9777,0.90369,1.2697,0.26779,0.2922,0.48689,0.8901,0.48689,1.3284s0.48202,1.3651,1.0712,2.0589c2.36,2.7803,2.6037,3.1514,2.4967,3.8075-0.10291,0.6304,0.41588,0.7878,2.1774,0.6603,0.16068-0.024,0.2616-0.432,0.22426-0.9339-0.0548-0.7374,0.15748-0.9459,1.1044-1.0847,1.8805-0.2762,3.6569,0.7531,4.1215,2.3881,0.3647,1.2839,0.42362,1.3291,0.68465,0.5281,0.31529-0.9676,0.61284-1.0814,1.225-0.4694,0.22387,0.2239,1.2188,0.455,2.2111,0.5135,1.5197,0.087,1.9948-0.068,3.0141-0.9992,1.5531-1.4184,3.8046-1.3619,4.3488,0.1084,0.4599,1.2431,1.4896,2.3405,1.9367,2.0643,0.19908-0.1249,0.67095,0.054,1.0486,0.3978,0.54969,0.4973,1.4185,0.5965,4.3574,0.4968,3.2602-0.1108,3.867-0.024,5.4236,0.8059,0.96404,0.5121,2.5854,1.0308,3.603,1.1536,1.8549,0.2238,2.2758,0.5849,1.3594,1.1665-0.66574,0.4225-1.7452,2.6794-2.2447,4.6935-0.26339,1.0617-0.62783,1.6553-1.0164,1.6553-0.33315,0-0.69739,0.3504-0.80944,0.779-0.11205,0.4285-0.42719,0.7791-0.70032,0.7791-0.27314,0-0.6017,0.4188-0.73012,0.9304-0.12844,0.5118-0.85201,1.4736-1.608,2.1369-1.6313,1.4326-2.2032,2.7419-1.8874,4.3212,0.12723,0.6363,0.0932,1.4687-0.0756,1.8502-0.76282,1.724-1.2367,4.2496-1.0535,5.6152,0.15349,1.1441,0.0523,1.548-0.43457,1.7349-0.38902,0.1485-0.6346,0.6908-0.6346,1.3985,0,0.6353-0.41891,1.8873-0.93091,2.7824-0.51201,0.895-1.1581,2.5453-1.4357,3.6675-0.47635,1.925-0.45682,2.0909,0.34664,2.9464,0.85424,0.9089,1.1517,2.7668,0.50686,3.1651-0.18951,0.1178-0.46022,1.0477-0.60157,2.0681-0.14137,1.0201-0.43156,2.3028-0.64488,2.8498-0.23483,0.6023-0.25229,1.3613-0.0443,1.9236,0.20966,0.5668,0.18862,1.3395-0.054,1.9824-0.33953,0.8992-0.24522,1.2341,0.64585,2.2931,1.2434,1.4778,1.3217,2.3773,0.26443,3.0376-0.42847,0.2677-0.77902,0.8392-0.77902,1.2709,0,1.2754-2.9928,4.2449-4.22,4.1876-0.5711-0.024-1.4766,0.064-2.0121,0.1956-0.53558,0.1343-1.3682,0.05-1.8502-0.1861z"/>
  <rect opacity="0.22768" stroke-opacity="0" height="69.939" width="70.438" stroke-miterlimit="4" y="672.69" x="287.6" fill="#7c1544"/>
  <path fill="#7c1544" d="m568.46,809.96c-0.48202-0.2375-0.8764-0.7607-0.8764-1.1634,0-0.402-0.26292-0.8323-0.58426-0.9558-0.32135-0.1249-0.58427-0.4539-0.58427-0.735,0-0.2812-0.30674-1.0563-0.68164-1.7227-0.52058-0.9252-0.87912-1.1639-1.5174-1.0081-1.0481,0.2552-1.4257-0.5951-0.88999-2.0045,0.72373-1.9034,0.10006-3.2165-1.987-4.1836-1.0352-0.4798-2.6391-1.4288-3.5641-2.1089-0.92503-0.6803-2.5465-1.8725-3.6033-2.6495l-1.9215-1.4125-0.65634,0.8107c-0.87658,1.0823-2.7067,1.5607-2.7067,0.7074,0-0.8717-1.8966-2.0101-3.0886-1.8541-0.55071,0.073-1.4415,0.3586-1.9795,0.6369-0.84404,0.4362-1.0979,0.4089-1.8502-0.2003-0.47956-0.3883-0.87192-1.0835-0.87192-1.5447,0-0.7105-0.19209-0.8198-1.257-0.7166-0.85163,0.082-1.4014,0.4133-1.7049,1.0258-0.59675,1.2037-1.8926,2.0735-2.6544,1.7811-0.43503-0.165-0.61592-0.024-0.61592,0.5427,0,0.4287-0.26555,0.8809-0.59011,1.0053-0.32456,0.1249-0.75314,0.6556-0.9524,1.1792-0.25858,0.6806-0.57605,0.8974-1.109,0.7579-0.5313-0.139-0.81086,0.05-0.96894,0.6544-0.12419,0.4751-0.40674,0.7355-0.64065,0.5908-0.58854-0.3636-0.97837,0.8623-0.46924,1.4759,0.24134,0.291,0.31901,1.1314,0.18235,1.9734-0.27933,1.7212-1.7237,2.5821-3.0022,1.7889-0.44652-0.2769-0.82779-0.3111-0.97378-0.085-0.13197,0.2027-0.82759,0.383-1.5458,0.4006-1.5406,0.035-1.6764,0.1438-2.2428,1.7649-0.35008,1.0015-0.6202,1.2176-1.416,1.133-0.59183-0.066-1.0729,0.1249-1.2081,0.48-0.30379,0.7918-1.4227,0.3179-1.4227-0.6025,0-0.9248-1.6269-2.0137-2.505-1.6767-0.40605,0.1555-1.1241-0.082-1.8344-0.6064-0.64192-0.4748-1.4124-0.7689-1.7122-0.6539-0.68581,0.2632-1.1635-0.4732-1.0213-1.5744,0.0632-0.49-0.18696-1.019-0.59628-1.261-0.66252-0.3924-0.64936-0.4612,0.21707-1.1406l0.92232-0.7225-1.1009-1.7165c-0.60548-0.9441-1.1478-1.7851-1.205-1.8693-0.0573-0.085-0.36924,0.068-0.69323,0.3358-0.48173,0.3999-0.63334,0.3738-0.83201-0.1437-0.13362-0.3485-0.0378-0.8809,0.21289-1.1828,0.36718-0.4421,0.28407-0.5738-0.42734-0.6765-0.48574-0.071-0.97799-0.4782-1.0939-0.9066-0.11589-0.4284-0.56128-0.8281-0.98974-0.8877-1.5232-0.2121-3.1183-0.551-3.2647-0.6933-0.0817-0.08-0.48453,0.035-0.89512,0.2552-0.50704,0.2715-0.66962,0.6419-0.5068,1.1547,0.13185,0.4157,0.0965,0.7612-0.0787,0.768-2.6278,0.1061-5.7176,0.8102-6.1514,1.4033-0.42955,0.5875-0.66843,0.6307-1.4312,0.2574-1.5818-0.7737-2.0645-0.8097-2.7584-0.205-0.50974,0.4435-0.80371,0.48-1.2044,0.1461-0.29152-0.2421-0.64785-0.3222-0.79184-0.1791-0.14401,0.1437-1.1357,0.274-2.2038,0.2898-1.8468,0.026-1.942-0.024-1.942-1.0013,0-0.7409-0.19081-1.0138-0.68164-0.9749-0.43723,0.033-0.68513-0.2239-0.69136-0.7249-0.0148-1.1945-1.5923-4.2262-2.4794-4.7652-0.43503-0.2641-1.0567-0.3784-1.3816-0.2538-0.38669,0.1461-0.7507-0.1249-1.0542-0.7908-0.33317-0.7313-0.66454-0.9537-1.1776-0.7909-0.75386,0.2392-1.0454-0.7437-0.34841-1.1745,1.2718-0.7861-1.4929-5.5172-3.349-5.7316-0.97921-0.1131-1.1412-0.3474-1.5651-2.2645-0.40411-1.8278-0.38849-2.1862,0.1074-2.4636,0.35712-0.1979,0.48871-0.6134,0.34218-1.0748-0.18261-0.5755-0.0505-0.7501,0.56719-0.7501,0.47757,0,0.80527-0.2529,0.80527-0.6214,0-0.342,0.35373-1.1184,0.78607-1.7255,0.76975-1.0809,0.49629-1.9055-0.44011-1.3265-0.66465,0.411-1.1376-0.6664-0.88913-2.0255,0.17431-0.9534,0.045-1.3441-0.59281-1.7907-1.0958-0.7675-0.74899-2.9252,0.49877-3.1034,0.45759-0.066,0.85557-0.381,0.88441-0.7027,0.0289-0.3214,0.0727-0.8113,0.0974-1.0889,0.0247-0.2774,0.4586-0.9182,0.96418-1.4239,0.50559-0.5052,1.3086-1.5492,1.7846-2.3193,0.47592-0.7699,1.0263-1.4,1.223-1.4,0.19676,0,0.35774-0.1768,0.35774-0.3898,0-0.2145-0.4382-0.3893-0.97377-0.3893-0.7141,0-0.97378-0.2074-0.97378-0.7791,0-0.4282,0.18287-0.7791,0.40637-0.7791,0.23022,0,0.35685-0.6329,0.29213-1.4608-0.11187-1.43-0.0839-1.463,1.3464-1.5813,1.7-0.139,1.7696-0.299,0.58426-1.3267-0.48201-0.4178-0.89014-1.1394-0.90695-1.6036-0.0168-0.464-0.15932-1.4005-0.31669-2.0806-0.27455-1.1868-0.21216-1.2698,1.5407-2.0448,1.0048-0.4447,2.1552-0.8086,2.5564-0.8086,0.40122,0,0.7295-0.1555,0.7295-0.3445,0-0.1885,0.43907-0.6323,0.9757-0.9839,0.92315-0.6049,1.0383-0.5931,2.1375,0.2192,0.639,0.472,1.2646,0.7558,1.3903,0.6299,0.12566-0.1249,0.23516-1.3854,0.24333-2.8,0.008-1.4142,0.17327-2.6698,0.36692-2.7895,0.19366-0.1178,0.22965-0.4157,0.08-0.658-0.14967-0.2422-0.31359-0.7993-0.36426-1.2388-0.0507-0.4395-0.15021-1.1493-0.22112-1.5777-0.0993-0.6002,0.11729-0.8076,0.94217-0.9023,0.69339-0.08,1.0726-0.3545,1.0753-0.7791,0.002-0.3606,0.61575-1.2502,1.3633-1.9765,1.3735-1.3342,1.6899-1.9901,0.96045-1.9901-0.40285,0-0.28711-1.7408,0.22833-3.4337,0.15593-0.5123,0.0666-1.2909-0.20679-1.8016-0.37638-0.7032-0.37935-1.0901-0.0137-1.7736,0.49638-0.9275,0.32048-0.9223,5.1796-0.1484,1.0662,0.1697,1.6702,0.061,2.1676-0.3886,0.37925-0.3434,1.2604-0.8232,1.958-1.0664,1.3195-0.46,2.1452-1.8305,1.7396-2.8874-0.14726-0.3839,0.39388-1.2334,1.5013-2.3566,1.5751-1.5976,1.8265-1.7202,2.782-1.3569,0.89913,0.3418,1.0134,0.5546,0.79304,1.4767-0.14161,0.5926-0.39288,1.2527-0.5584,1.4669s-0.42712,1.0906-0.58134,1.9477c-0.15424,0.8568-0.46165,1.786-0.68318,2.0645-0.29911,0.3764-0.19799,0.5602,0.39282,0.7148,1.0205,0.2668,1.6539,1.6519,1.2522,2.7381-0.17156,0.4635-0.17472,1.3401-0.007,1.9472,0.26335,0.9539,0.47608,1.0906,1.5579,1.0025,0.68908-0.057,1.6313,0.1602,2.0939,0.4868,0.4626,0.3238,1.1526,0.5889,1.5334,0.5889,0.38079,0,0.69235,0.1674,0.69235,0.3696,0,0.2026,0.43414,0.8379,0.96474,1.4101,0.73081,0.7888,1.2196,0.9926,2.0157,0.8404,0.76243-0.1461,1.2425,0.026,1.7489,0.6346,0.38387,0.4595,0.70377,1.0322,0.71089,1.2735,0.007,0.241,0.5221,0.5399,1.1444,0.6645,1.1663,0.2333,2.3741,1.9814,2.3741,3.4364,0,0.7597,0.95485,0.9907,1.3633,0.3299,0.13241-0.2145,0.65824-0.3898,1.1685-0.3898,0.51029,0,1.0432-0.1862,1.1842-0.4148,0.14101-0.2285,0.72111-0.3659,1.2891-0.3063,0.56802,0.061,1.237-0.024,1.4867-0.1744,0.61988-0.3832,2.3071,0.3047,2.5963,1.0588,0.14149,0.3686,0.69869,0.6137,1.3943,0.6137,0.73991,0,1.3682,0.2995,1.7385,0.8281,0.45797,0.6541,0.81061,0.7705,1.6775,0.5554,0.6037-0.1485,1.4534-0.6045,1.8882-1.01,1.1077-1.0334,2.907-1.069,4.4925-0.087,1.0052,0.6212,1.515,0.731,2.0386,0.4378,0.83956-0.4699,3.2938,0.6603,3.9469,1.8172,0.22924,0.4062,0.63591,0.9777,0.90369,1.2697,0.26779,0.2922,0.48689,0.8901,0.48689,1.3284s0.48202,1.3651,1.0712,2.0589c2.36,2.7803,2.6037,3.1514,2.4967,3.8075-0.10291,0.6304,0.41588,0.7878,2.1774,0.6603,0.16068-0.024,0.2616-0.432,0.22426-0.9339-0.0548-0.7374,0.15748-0.9459,1.1044-1.0847,1.8805-0.2762,3.6569,0.7531,4.1215,2.3881,0.3647,1.2839,0.42362,1.3291,0.68465,0.5281,0.31529-0.9676,0.61284-1.0814,1.225-0.4694,0.22387,0.2239,1.2188,0.455,2.2111,0.5135,1.5197,0.087,1.9948-0.068,3.0141-0.9992,1.5531-1.4184,3.8046-1.3619,4.3488,0.1084,0.4599,1.2431,1.4896,2.3405,1.9367,2.0643,0.19908-0.1249,0.67095,0.054,1.0486,0.3978,0.54969,0.4973,1.4185,0.5965,4.3574,0.4968,3.2602-0.1108,3.867-0.024,5.4236,0.8059,0.96404,0.5121,2.5854,1.0308,3.603,1.1536,1.8549,0.2238,2.2758,0.5849,1.3594,1.1665-0.66574,0.4225-1.7452,2.6794-2.2447,4.6935-0.26339,1.0617-0.62783,1.6553-1.0164,1.6553-0.33315,0-0.69739,0.3504-0.80944,0.779-0.11205,0.4285-0.42719,0.7791-0.70032,0.7791-0.27314,0-0.6017,0.4188-0.73012,0.9304-0.12844,0.5118-0.85201,1.4736-1.608,2.1369-1.6313,1.4326-2.2032,2.7419-1.8874,4.3212,0.12723,0.6363,0.0932,1.4687-0.0756,1.8502-0.76282,1.724-1.2367,4.2496-1.0535,5.6152,0.15349,1.1441,0.0523,1.548-0.43457,1.7349-0.38902,0.1485-0.6346,0.6908-0.6346,1.3985,0,0.6353-0.41891,1.8873-0.93091,2.7824-0.51201,0.895-1.1581,2.5453-1.4357,3.6675-0.47635,1.925-0.45682,2.0909,0.34664,2.9464,0.85424,0.9089,1.1517,2.7668,0.50686,3.1651-0.18951,0.1178-0.46022,1.0477-0.60157,2.0681-0.14137,1.0201-0.43156,2.3028-0.64488,2.8498-0.23483,0.6023-0.25229,1.3613-0.0443,1.9236,0.20966,0.5668,0.18862,1.3395-0.054,1.9824-0.33953,0.8992-0.24522,1.2341,0.64585,2.2931,1.2434,1.4778,1.3217,2.3773,0.26443,3.0376-0.42847,0.2677-0.77902,0.8392-0.77902,1.2709,0,1.2754-2.9928,4.2449-4.22,4.1876-0.5711-0.024-1.4766,0.064-2.0121,0.1956-0.53558,0.1343-1.3682,0.05-1.8502-0.1861z"/>
  <rect opacity="0.22768" height="69.939" width="70.438" y="692.44" x="459.43" fill="#7c1544"/>
  <rect opacity="0.22768" height="69.939" width="70.438" y="692.44" x="529.88" fill="#7c1544"/>
  <rect opacity="0.22768" height="69.939" width="70.438" y="762.38" x="459.43" fill="#7c1544"/>
  <rect opacity="0.22768" height="69.939" width="70.438" y="762.38" x="529.88" fill="#7c1544"/>
  <path fill="#a61c5a" d="m46.987,1000c-0.54767-0.044-0.97496,0.3331-2.1562,1.5313-1.1074,1.1232-1.6473,1.9598-1.5,2.3437,0.40561,1.0569-0.43049,2.4463-1.75,2.9063-0.69764,0.2432-1.5895,0.7191-1.9688,1.0625-0.49743,0.4496-1.09,0.5447-2.1562,0.375-4.8592-0.7739-4.6911-0.7713-5.1875,0.1562-0.36565,0.6835-0.34513,1.078,0.0312,1.7813,0.27339,0.5107,0.34343,1.2689,0.1875,1.7812-0.51544,1.6929-0.6216,3.4375-0.21875,3.4375,0.72944,0,0.40471,0.6658-0.96875,2-0.74753,0.7263-1.3418,1.6081-1.3438,1.9688-0.003,0.4246-0.40036,0.7012-1.0938,0.7812-0.82488,0.095-1.0368,0.3061-0.9375,0.9063,0.0709,0.4284,0.16805,1.1542,0.21875,1.5937s0.22533,0.9766,0.375,1.2188c0.14965,0.2423,0.0999,0.5384-0.0937,0.6562-0.19365,0.1197-0.367,1.367-0.375,2.7813-0.008,1.4146-0.0931,2.6876-0.21875,2.8125-0.12566,0.1259-0.76725-0.153-1.4062-0.625-1.0992-0.8123-1.2018-0.8237-2.125-0.2188-0.53663,0.3516-0.96875,0.7802-0.96875,0.9688,0,0.189-0.34878,0.3437-0.75,0.3437-0.40123,0-1.5577,0.3678-2.5625,0.8125-1.7529,0.775-1.8058,0.8757-1.5312,2.0625,0.15737,0.6801,0.2957,1.5985,0.3125,2.0625,0.0168,0.4641,0.42424,1.2072,0.90625,1.625,1.1854,1.0277,1.1375,1.1735-0.5625,1.3125-1.4303,0.1183-1.4869,0.1638-1.375,1.5938,0.0647,0.8279-0.051,1.4375-0.28125,1.4375-0.2235,0-0.40625,0.353-0.40625,0.7812,0,0.5717,0.25465,0.7813,0.96875,0.7813,0.53557,0,0.96875,0.1917,0.96875,0.4062,0,0.213-0.14699,0.375-0.34375,0.375s-0.74283,0.6364-1.2188,1.4063c-0.47592,0.7701-1.2757,1.8073-1.7812,2.3125-0.50558,0.5057-0.94405,1.1601-0.96875,1.4375-0.0247,0.2776-0.0648,0.7723-0.0937,1.0937-0.0288,0.3217-0.41741,0.6215-0.875,0.6875-0.67262,0.096-1.0921,0.7814-1.1562,1.5h57.938v-30c-0.3906-0.096-0.74258-0.1086-0.96875,0.031-0.24968,0.1504-0.93198,0.2485-1.5,0.1875-0.56802-0.06-1.1402,0.053-1.2812,0.2812-0.141,0.2286-0.67721,0.4375-1.1875,0.4375s-1.0238,0.1605-1.1562,0.375c-0.40844,0.6609-1.375,0.4472-1.375-0.3125,0-1.455-1.2087-3.2042-2.375-3.4375-0.6223-0.1246-1.1492-0.4465-1.1562-0.6875-0.007-0.2413-0.30363-0.7905-0.6875-1.25-0.50633-0.6086-0.98757-0.8023-1.75-0.6562-0.79609,0.1522-1.3004-0.055-2.0312-0.8438-0.5306-0.5722-0.96875-1.2036-0.96875-1.4062,0-0.2021-0.30671-0.375-0.6875-0.375-0.3808,0-1.0686-0.2387-1.5312-0.5625-0.46257-0.3266-1.4047-0.557-2.0938-0.5-1.0818,0.088-1.2992-0.046-1.5625-1-0.16772-0.607-0.17156-1.4739,0-1.9375,0.40178-1.0861-0.22951-2.4831-1.25-2.75-0.59081-0.1546-0.67411-0.3424-0.375-0.7188,0.22153-0.2784,0.53326-1.2057,0.6875-2.0625,0.15422-0.8571,0.39698-1.7233,0.5625-1.9375,0.16552-0.2141,0.42089-0.8761,0.5625-1.4687,0.22035-0.9221,0.11788-1.1582-0.78125-1.5-0.23888-0.091-0.44244-0.1415-0.625-0.1563z"/>
 </g>
</svg>
