<?xml version="1.0" encoding="UTF-8" standalone="no"?>
<!-- Created with Inkscape (http://www.inkscape.org/) -->

<svg
   xmlns:dc="http://purl.org/dc/elements/1.1/"
   xmlns:cc="http://creativecommons.org/ns#"
   xmlns:rdf="http://www.w3.org/1999/02/22-rdf-syntax-ns#"
   xmlns:svg="http://www.w3.org/2000/svg"
   xmlns="http://www.w3.org/2000/svg"
   xmlns:sodipodi="http://sodipodi.sourceforge.net/DTD/sodipodi-0.dtd"
   xmlns:inkscape="http://www.inkscape.org/namespaces/inkscape"
   height="70"
   width="70"
   version="1.1"
   id="svg3007"
   inkscape:version="0.48.4 r9939"
   sodipodi:docname="preloader_bottom_right.svg">
  <defs
     id="defs3035" />
  <sodipodi:namedview
     pagecolor="#ffffff"
     bordercolor="#666666"
     borderopacity="1"
     objecttolerance="10"
     gridtolerance="10"
     guidetolerance="10"
     inkscape:pageopacity="0"
     inkscape:pageshadow="2"
     inkscape:window-width="640"
     inkscape:window-height="480"
     id="namedview3033"
     showgrid="false"
     inkscape:zoom="1.19198"
     inkscape:cx="74.609571"
     inkscape:cy="15.835666"
     inkscape:window-x="0"
     inkscape:window-y="0"
     inkscape:window-maximized="0"
     inkscape:current-layer="svg3007" />
  <metadata
     id="metadata3009">
    <rdf:RDF>
      <cc:Work
         rdf:about="">
        <dc:format>image/svg+xml</dc:format>
        <dc:type
           rdf:resource="http://purl.org/dc/dcmitype/StillImage" />
        <dc:title />
      </cc:Work>
    </rdf:RDF>
  </metadata>
  <rect
     style="fill:#7c1544"
     id="rect3013"
     x="-70.030518"
     y="-69.974518"
     width="70.094002"
     height="70.016998"
     transform="scale(-1,-1)" />
  <path
     style="fill:#a61c5a"
     inkscape:connector-curvature="0"
     id="path3031"
     d="m 69.979984,70.034523 0,-35.656 c -0.0416,0.477 -0.35091,0.8523 -0.71875,0.625 -0.23391,-0.1447 -0.50081,0.1187 -0.625,0.5938 -0.15808,0.6044 -0.43745,0.7952 -0.96875,0.6562 -0.53299,-0.1395 -0.86642,0.1007 -1.125,0.7813 -0.19926,0.5236 -0.61294,1.0313 -0.9375,1.1562 -0.32456,0.1244 -0.59375,0.5713 -0.59375,1 0,0.5667 -0.18997,0.7275 -0.625,0.5625 -0.76174,-0.2924 -2.0595,0.5776 -2.6562,1.7813 -0.30341,0.6125 -0.83587,0.9492 -1.6875,1.0312 -1.0649,0.1032 -1.2812,-0.01 -1.2812,-0.7187 0,-0.4612 -0.39544,-1.1742 -0.875,-1.5625 -0.7523,-0.6092 -0.99971,-0.6237 -1.8438,-0.1875 -0.53804,0.2783 -1.418,0.552 -1.9688,0.625 -1.192,0.156 -3.0938,-0.9721 -3.0938,-1.8438 0,-0.8533 -1.8422,-0.3635 -2.7188,0.7188 l -0.65625,0.7812 -1.9062,-1.4062 c -1.0568,-0.777 -2.6687,-1.976 -3.5938,-2.6563 -0.92503,-0.6801 -2.5273,-1.6139 -3.5625,-2.0937 -2.087,-0.9671 -2.7237,-2.2841 -2,-4.1875 0.53573,-1.4094 0.1731,-2.2552 -0.875,-2 -0.63831,0.1558 -1.0107,-0.075 -1.5312,-1 -0.3749,-0.6664 -0.6875,-1.4376 -0.6875,-1.7188 0,-0.2811 -0.2724,-0.6251 -0.59375,-0.75 -0.32134,-0.1235 -0.5625,-0.5667 -0.5625,-0.9687 0,-0.4027 -0.39298,-0.9188 -0.875,-1.1563 -0.48202,-0.2361 -1.3082,-0.3218 -1.8438,-0.1875 -0.53557,0.1316 -1.4602,0.2428 -2.0312,0.2188 -1.2272,-0.057 -4.2188,2.9121 -4.2188,4.1875 0,0.4317 -0.35278,0.9823 -0.78125,1.25 -1.0572,0.6603 -0.96212,1.5534 0.28125,3.0312 0.89107,1.059 0.96453,1.4133 0.625,2.3125 -0.24262,0.6429 -0.24091,1.402 -0.0312,1.9688 0.20799,0.5623 0.17233,1.3352 -0.0625,1.9375 -0.21332,0.547 -0.48363,1.8236 -0.625,2.8437 -0.14135,1.0204 -0.43549,1.9447 -0.625,2.0625 -0.64482,0.3983 -0.35424,2.2474 0.5,3.1563 0.80346,0.8555 0.85135,1.0437 0.375,2.9687 -0.27762,1.1222 -0.92549,2.7613 -1.4375,3.6563 -0.512,0.89508 -0.9375,2.1459 -0.9375,2.7812 0,0.7077 -0.23598,1.2578 -0.625,1.4063 -0.48687,0.1869 -0.59099,0.5746 -0.4375,1.7187 0.18316,1.3656 -0.29968,3.901 -1.0625,5.625 -0.1688,0.3815 -0.18973,1.2075 -0.0625,1.8438 0.31587,1.5793 -0.27495,2.9111 -1.9062,4.3437 -0.1674,0.1469 -0.34188,0.3007 -0.5,0.4688 l 53.969,0 z m 0,-35.656 0,-3.9687 c -0.20717,0.3175 -0.36478,0.7081 -0.4375,1.1562 -0.13666,0.842 -0.0538,1.6778 0.1875,1.9688 0.19092,0.2301 0.27498,0.5575 0.25,0.8437 z" />
</svg>
