<svg xmlns="http://www.w3.org/2000/svg" xmlns:xlink="http://www.w3.org/1999/xlink" version="1.1" x="0px" y="0px" viewBox="0 0 100 125" style="enable-background:new 0 0 100 100;" xml:space="preserve"><g><path d="M78.4,39.3L54.9,24.8c-2.8-1.7-6.5-0.8-8.2,2c-0.8,1.4-1.1,3-0.7,4.5c0.4,1.6,1.3,2.9,2.7,3.7l23.6,14.5   c0.9,0.6,2,0.9,3.1,0.9c0.5,0,0.9-0.1,1.4-0.2c1.6-0.4,2.9-1.3,3.7-2.7c0.8-1.4,1.1-3,0.7-4.5C80.7,41.5,79.8,40.2,78.4,39.3z    M78.7,46.5c-0.6,0.9-1.4,1.5-2.5,1.8c-1,0.2-2.1,0.1-3-0.5L49.6,33.3c-0.9-0.6-1.5-1.4-1.8-2.5c-0.2-1-0.1-2.1,0.5-3   c0.8-1.2,2.1-1.9,3.4-1.9c0.7,0,1.4,0.2,2.1,0.6L77.4,41c0.9,0.6,1.5,1.4,1.8,2.5C79.4,44.6,79.2,45.6,78.7,46.5z"/><path d="M75.1,44.2c-0.2-0.1-0.3-0.3-0.3-0.9c-0.1-0.7-0.2-1.7-1.3-2.3c-1.1-0.6-2-0.3-2.6-0.1c-0.6,0.2-0.7,0.2-0.9,0.1   c-0.2-0.1-0.3-0.3-0.3-0.9c-0.1-0.7-0.2-1.7-1.3-2.3c-1.1-0.6-2-0.3-2.6-0.1c-0.6,0.2-0.7,0.2-0.9,0.1c-0.2-0.1-0.3-0.3-0.3-0.9   c-0.1-0.7-0.2-1.7-1.3-2.3s-2-0.3-2.6-0.1c-0.6,0.2-0.7,0.2-0.9,0.1c-0.2-0.1-0.3-0.3-0.3-0.9c-0.1-0.7-0.2-1.7-1.3-2.3   s-2-0.3-2.6-0.1c-0.6,0.2-0.7,0.2-0.9,0.1c-0.2-0.1-0.3-0.3-0.3-0.9c-0.1-0.7-0.2-1.7-1.3-2.3c-0.5-0.3-1.1-0.1-1.4,0.3   C51,29,51.2,29.7,51.6,30c0.2,0.1,0.3,0.3,0.3,0.9c0.1,0.7,0.2,1.7,1.3,2.3c1.1,0.6,2,0.3,2.6,0.1c0.6-0.2,0.7-0.2,0.9-0.1   c0.2,0.1,0.3,0.3,0.3,0.9c0.1,0.7,0.2,1.7,1.3,2.3c1.1,0.6,2,0.3,2.6,0.1c0.6-0.2,0.7-0.2,0.9-0.1c0.2,0.1,0.3,0.3,0.3,0.9   c0.1,0.7,0.2,1.7,1.3,2.3c1.1,0.6,2,0.3,2.6,0.1c0.6-0.2,0.7-0.2,0.9-0.1c0.2,0.1,0.3,0.3,0.3,0.9c0.1,0.7,0.2,1.7,1.3,2.3   c1.1,0.6,2,0.3,2.6,0.1c0.6-0.2,0.7-0.2,0.9-0.1c0.2,0.1,0.3,0.3,0.3,0.9c0.1,0.7,0.2,1.7,1.3,2.3c0.2,0.1,0.3,0.1,0.5,0.1   c0.3,0,0.7-0.2,0.9-0.5C75.7,45.1,75.6,44.5,75.1,44.2z"/><path d="M46.9,47.1c0-0.6-0.1-1.6-1.1-2.3c-1-0.7-1.9-0.6-2.5-0.4c-0.6,0.1-0.7,0.1-0.9-0.1c-0.2-0.2-0.3-0.3-0.3-0.9   c0-0.6-0.1-1.6-1.1-2.3c-1-0.7-1.9-0.6-2.5-0.4c-0.6,0.1-0.7,0.1-0.9-0.1c-0.2-0.2-0.3-0.3-0.3-0.9c0-0.6-0.1-1.6-1.1-2.3   c-1-0.7-1.9-0.6-2.5-0.4c-0.6,0.1-0.7,0.1-0.9-0.1c-0.2-0.2-0.3-0.3-0.3-0.9c0-0.6-0.1-1.6-1.1-2.3s-1.9-0.6-2.5-0.4   c-0.6,0.1-0.7,0.1-0.9-0.1c-0.2-0.2-0.3-0.3-0.3-0.9c0-0.6-0.1-1.6-1.1-2.3c-0.4-0.3-1.1-0.3-1.4,0.2c-0.3,0.4-0.3,1.1,0.2,1.4   c0.2,0.2,0.3,0.3,0.3,0.9c0,0.6,0.1,1.6,1.1,2.3s1.9,0.6,2.5,0.4c0.6-0.1,0.7-0.1,0.9,0.1c0.2,0.2,0.3,0.3,0.3,0.9   c0,0.6,0.1,1.6,1.1,2.3c1,0.7,1.9,0.6,2.5,0.4c0.6-0.1,0.7-0.1,0.9,0.1c0.2,0.2,0.3,0.3,0.3,0.9c0,0.6,0.1,1.6,1.1,2.3   c1,0.7,1.9,0.6,2.5,0.4c0.6-0.1,0.7-0.1,0.9,0.1c0.2,0.2,0.3,0.3,0.3,0.9c0,0.6,0.1,1.6,1.1,2.3c1,0.7,1.9,0.6,2.5,0.4   c0.6-0.1,0.7-0.1,0.9,0.1c0.2,0.2,0.3,0.3,0.3,0.9c0,0.6,0.1,1.6,1.1,2.3c0.2,0.1,0.4,0.2,0.6,0.2c0.3,0,0.6-0.1,0.8-0.4   c0.3-0.4,0.3-1.1-0.2-1.4C47,47.8,46.9,47.7,46.9,47.1z"/><path d="M59.5,50.8c-1.6-1.8-4.1-2.4-6.3-1.7c0.1-0.5,0.1-1,0-1.6c-0.2-1.6-1-3-2.3-4L29.1,26.6c-1.3-1-2.8-1.4-4.4-1.2   c-1.6,0.2-3,1-4,2.3c-1,1.3-1.4,2.8-1.2,4.4c0.2,1.6,1,3,2.3,4L43.7,53c1.1,0.8,2.4,1.2,3.7,1.2c0.6,0,1.2-0.1,1.8-0.3   c-0.2,1.7,0.2,3.4,1.4,4.8l18.3,20.8c1,1.2,2.5,1.9,4.1,2c0.1,0,0.3,0,0.4,0c1.5,0,2.8-0.5,3.9-1.5c2.5-2.2,2.7-6,0.5-8.4   L59.5,50.8z M50.5,50.7c-1.3,1.7-3.8,2.1-5.6,0.7L23,34.5c-0.8-0.6-1.4-1.6-1.5-2.6c-0.1-1.1,0.1-2.1,0.8-2.9   c0.6-0.8,1.6-1.4,2.6-1.5c0.2,0,0.3,0,0.5,0c0.9,0,1.7,0.3,2.4,0.8l21.9,16.9c0.8,0.6,1.4,1.6,1.5,2.6S51.1,49.9,50.5,50.7z    M75.9,78.5c-0.8,0.7-1.8,1-2.9,1c-1.1-0.1-2-0.5-2.7-1.3L52.1,57.4c-1.4-1.6-1.3-4.2,0.4-5.6c0.8-0.7,1.7-1,2.6-1   c1.1,0,2.2,0.5,3,1.3l18.3,20.8C77.7,74.6,77.6,77.1,75.9,78.5z"/><path d="M73.1,74.3c0.1-0.6,0.2-1.6-0.6-2.5c-0.8-0.9-1.7-0.9-2.4-0.9c-0.6,0-0.7,0-0.9-0.3c-0.2-0.2-0.2-0.4-0.1-0.9   c0.1-0.6,0.2-1.6-0.6-2.5s-1.7-0.9-2.4-0.9c-0.6,0-0.7,0-0.9-0.3S65,65.7,65,65.1c0.1-0.6,0.2-1.6-0.6-2.5   c-0.8-0.9-1.7-0.9-2.4-0.9c-0.6,0-0.7,0-0.9-0.3C61,61.2,61,61.1,61,60.5c0.1-0.6,0.2-1.6-0.6-2.5c-0.8-0.9-1.7-0.9-2.4-0.9   c-0.6,0-0.7,0-0.9-0.3S56.9,56.5,57,56c0.1-0.6,0.2-1.6-0.6-2.5c-0.4-0.4-1-0.5-1.4-0.1c-0.4,0.4-0.5,1-0.1,1.4   c0.2,0.2,0.2,0.4,0.1,0.9c-0.1,0.6-0.2,1.6,0.6,2.5s1.7,0.9,2.4,0.9c0.6,0,0.7,0,0.9,0.3c0.2,0.2,0.2,0.4,0.1,0.9   c-0.1,0.6-0.2,1.6,0.6,2.5c0.8,0.9,1.7,0.9,2.4,0.9c0.6,0,0.7,0,0.9,0.3c0.2,0.2,0.2,0.4,0.1,0.9c-0.1,0.6-0.2,1.6,0.6,2.5   s1.7,0.9,2.4,0.9c0.6,0,0.7,0,0.9,0.3c0.2,0.2,0.2,0.4,0.1,0.9c-0.1,0.6-0.2,1.6,0.6,2.5c0.8,0.9,1.7,0.9,2.4,0.9   c0.6,0,0.7,0,0.9,0.3s0.2,0.4,0.1,0.9c-0.1,0.6-0.2,1.6,0.6,2.5c0.2,0.2,0.5,0.3,0.8,0.3c0.2,0,0.5-0.1,0.7-0.2   c0.4-0.4,0.5-1,0.1-1.4C73.1,75,73.1,74.8,73.1,74.3z"/><path d="M40.9,65.6c0.8-0.4,1.2-0.6,1.5-0.4c0.4,0.2,0.5,0.6,0.5,1.5c0.1,1,0.2,2.3,1.6,3c0.5,0.2,0.9,0.3,1.3,0.3   c0.8,0,1.5-0.4,2.1-0.7c0.8-0.4,1.2-0.6,1.5-0.4c0.5,0.3,1.1,0.1,1.4-0.4s0.1-1.1-0.4-1.4c-1.4-0.7-2.5-0.1-3.4,0.3   c-0.8,0.4-1.2,0.6-1.5,0.4c-0.4-0.2-0.5-0.6-0.5-1.5c-0.1-1-0.2-2.3-1.6-3c-1.4-0.7-2.5-0.1-3.4,0.3c-0.8,0.4-1.2,0.6-1.5,0.4   C38,64,38,63.6,37.9,62.7c-0.1-1-0.2-2.3-1.6-3c-1.4-0.7-2.5-0.1-3.4,0.3c-0.8,0.4-1.2,0.6-1.5,0.4c-0.4-0.2-0.5-0.6-0.5-1.5   c-0.1-1-0.2-2.3-1.6-3c-0.5-0.3-1.1-0.1-1.4,0.4c-0.3,0.5-0.1,1.1,0.4,1.4c0.4,0.2,0.5,0.6,0.5,1.5c0.1,1,0.2,2.3,1.6,3   c1.4,0.7,2.5,0.1,3.4-0.3c0.8-0.4,1.2-0.6,1.5-0.4c0.4,0.2,0.5,0.6,0.5,1.5c0.1,1,0.2,2.3,1.6,3C38.8,66.7,40,66,40.9,65.6z"/><path d="M28.6,49.9c0.1,0,0.2,0.1,0.3,0.6c0.2,0.6,0.6,1.5,1.8,1.7c0.2,0,0.3,0.1,0.5,0.1c0.9,0,1.5-0.5,1.8-0.9   c0.3-0.3,0.4-0.4,0.5-0.4c0.5,0.1,1.1-0.2,1.2-0.8c0.1-0.5-0.2-1.1-0.8-1.2c-1.1-0.2-1.9,0.4-2.3,0.8c-0.3,0.3-0.4,0.4-0.5,0.4   c-0.1,0-0.2-0.1-0.3-0.6c-0.2-0.6-0.6-1.5-1.8-1.7c-1.1-0.2-1.9,0.4-2.3,0.8c-0.3,0.3-0.4,0.4-0.5,0.4c-0.1,0-0.2-0.1-0.3-0.6   c-0.2-0.6-0.6-1.5-1.8-1.7c-0.5-0.1-1.1,0.2-1.2,0.8c-0.1,0.5,0.2,1.1,0.8,1.2c0.1,0,0.2,0.1,0.3,0.6c0.2,0.6,0.6,1.5,1.8,1.7   c1.1,0.2,1.9-0.4,2.3-0.8C28.4,50,28.5,49.9,28.6,49.9z"/><path d="M67.2,52.4c0.1,0.6,0.2,1.6,1.2,2.2c1,0.6,1.9,0.3,2.5,0.1c0.5-0.2,0.6-0.2,0.8-0.1c0.2,0.1,0.2,0.2,0.3,0.7   c0.1,0.6,0.2,1.6,1.2,2.2c0.5,0.3,0.9,0.4,1.3,0.4c0.5,0,0.9-0.1,1.2-0.2c0.5-0.2,0.6-0.2,0.8-0.1c0.5,0.3,1.1,0.2,1.4-0.3   c0.3-0.5,0.2-1.1-0.3-1.4c-1-0.6-1.9-0.3-2.5-0.1c-0.5,0.2-0.6,0.2-0.8,0.1c-0.2-0.1-0.2-0.2-0.3-0.7c-0.1-0.6-0.2-1.6-1.2-2.2   c-1-0.6-1.9-0.3-2.5-0.1c-0.5,0.2-0.6,0.2-0.8,0.1c-0.2-0.1-0.2-0.2-0.3-0.7c-0.1-0.6-0.2-1.6-1.2-2.2c-0.5-0.3-1.1-0.2-1.4,0.3   c-0.3,0.5-0.2,1.1,0.3,1.4C67.1,51.7,67.1,51.8,67.2,52.4z"/><path d="M39.4,28.2c0.6,0.9,1.5,1,2.1,1.1c0.5,0,0.6,0.1,0.7,0.2c0.2,0.3,0.5,0.4,0.8,0.4c0.2,0,0.4-0.1,0.6-0.2   c0.5-0.3,0.6-0.9,0.2-1.4c-0.6-0.9-1.5-1-2.1-1.1c-0.5,0-0.6-0.1-0.7-0.2c-0.1-0.1-0.1-0.2,0-0.7c0.2-0.6,0.4-1.4-0.3-2.4   c-0.6-0.9-1.5-1-2.1-1.1c-0.5,0-0.6-0.1-0.7-0.2c-0.1-0.1-0.1-0.2,0-0.7c0.2-0.6,0.4-1.4-0.3-2.4c-0.3-0.5-0.9-0.6-1.4-0.2   c-0.5,0.3-0.6,0.9-0.2,1.4c0.1,0.1,0.1,0.2,0,0.7c-0.2,0.6-0.4,1.4,0.3,2.4c0.6,0.9,1.5,1,2.1,1.1c0.5,0,0.6,0.1,0.7,0.2   c0.1,0.1,0.1,0.2,0,0.7C39,26.4,38.8,27.3,39.4,28.2z"/></g><text x="0" y="115" fill="#000000" font-size="5px" font-weight="bold" font-family="'Helvetica Neue', Helvetica, Arial-Unicode, Arial, Sans-serif">Created by Nook Fulloption</text><text x="0" y="120" fill="#000000" font-size="5px" font-weight="bold" font-family="'Helvetica Neue', Helvetica, Arial-Unicode, Arial, Sans-serif">from the Noun Project</text></svg>