<svg xmlns="http://www.w3.org/2000/svg" xmlns:xlink="http://www.w3.org/1999/xlink" width="800" height="391" viewBox="0 0 800 391"><defs><linearGradient id="b"><stop offset="0" stop-color="#fff"/><stop offset="1" stop-color="#fff" stop-opacity="0"/></linearGradient><linearGradient id="a"><stop offset="0" stop-color="#0098c3" stop-opacity=".748"/><stop offset=".629" stop-color="#00546c"/><stop offset=".748" stop-color="#003a4d"/><stop offset="1" stop-color="#00212e"/></linearGradient><clipPath id="c"><path fill="#00212e" d="M-39.286 1383.298h800v303.5h-800z"/></clipPath><radialGradient xlink:href="#a" id="d" gradientUnits="userSpaceOnUse" gradientTransform="matrix(1.36785 -.05019 .02831 .77164 -180.02 503.128)" cx="356.912" cy="1561.082" fx="356.912" fy="1561.082" r="400.5"/><linearGradient xlink:href="#b" id="e" x1="362.729" y1="309.002" x2="437.271" y2="309.002" gradientUnits="userSpaceOnUse" gradientTransform="rotate(90 400 309.002)"/></defs><path clip-path="url(#c)" transform="matrix(1.00785 0 0 1.00785 35.756 -1397.3)" fill="url(#d)" stroke="#004b60" stroke-width="2.047" d="M-230.429 1265.268H954.239v858.606H-230.429z"/><path fill="#00212e" d="M-727.31-569.053h800v303.5h-800z"/><path d="M-577.042-569.053c-62.296 18.677-114.07 44.297-150.268 74.512v156.121h800v-145.744c-36.3-34.736-92.594-64.109-161.907-84.889h-487.825z" fill="#002633"/><path d="M72.69-265.553V-428.59C-.438-506.869-154.674-560.82-333.12-560.82c-169.485 0-317.132 48.668-394.19 120.623v174.645h800z" fill="#003745"/><path d="M67.345-265.557C-14.644-369.345-160.735-438.43-327.31-438.43c-166.574 0-312.665 69.085-394.655 172.873h789.31z" fill="#004b60"/><path fill="#002633" d="M305.835 188.638l20.377-13.471 59.018 58.777 110.509-75.515 67.279 57.013 53.573-23.859 30.215 16.935 87.904-28.935 63.625 90.379V303.5h-800v-108l56.908-59.332 41.171 24.754 49.104-17.672L227.731 200l53.909-33.697z"/><path fill="#00212e" d="M55.243 136.168L79.7 190.25l16.714-29.328zM145.518 143.25l58.182 84.5L227.731 200z"/><path fill="#001a25" d="M281.64 166.303l10.06 41.447 14.135-19.112zM347.388 220.28l17.753-6.425-38.929-38.688zM495.739 158.429l30.294 72.204 36.985-15.191z"/><path fill="#00212e" d="M616.591 191.583l14.109 28.251 16.106-11.316zM734.71 179.583l21.081 123.913 42.544.004v-33.538l-61.969-90.379"/><path fill="#fff" opacity=".15" d="M149.911 159.414l-2.208.891 2.302.658.807 2.002.632-2.208 1.846-.745-1.901-.544-.874-2.166zM174.015 164.95l-2.364.283 2.05 1.237.257 2.143 1.187-1.967 1.976-.237-1.693-1.022-.278-2.319z"/><g transform="matrix(1.14521 0 0 1.14521 -78.215 .17)" opacity=".4"><path opacity=".5" fill="#fff" d="M668.625 42.806l2.925-1.21-3.03-.838-1.419-3.432-.932 3.366-3.497 1.446 3.667 1.016 1.311 3.17zM770.231 71.283l1.157-3.463 2.984-1.055-2.982-.996-1.238-3.501-1.107 3.313-3.568 1.262 3.61 1.205zM782.546 75.119l2.491-2.669 3.152.28-2.298-2.145.329-3.698-2.383 2.553-3.77-.335 2.782 2.597z"/><path opacity=".8" fill="#fff" d="M754.706 50.181l3.623.451 1.623 2.717.388-3.119 3.188-1.904-3.466-.432-1.94-3.249-.47 3.777z"/><path opacity=".5" fill="#fff" d="M779.951 51.186l2.492-2.669 3.152.28-2.298-2.145.329-3.698-2.383 2.553-3.77-.335 2.782 2.597zM735.422 53.942l2.491-2.669 3.152.28-2.298-2.145.329-3.698-2.383 2.553-3.77-.335 2.783 2.597zM728.17 42.954l2.491-2.669 3.152.28-2.298-2.145.329-3.699-2.383 2.554-3.77-.335 2.783 2.596zM734.257 33.744l2.061-4.385 4.097-.928-3.776-1.775-1.089-4.806-1.972 4.195-4.898 1.11 4.571 2.148zM767.813 59.405l3.306-3.543 4.184.372-3.05-2.846.437-4.908-3.163 3.389-5.003-.445 3.693 3.446zM725.124 24.823l2.491-2.669 3.152.28-2.298-2.145.329-3.699-2.383 2.554-3.77-.335 2.783 2.596zM712.482 40.75l.124-3.65 2.561-1.86-3.142-.106-2.183-3.005-.118 3.491-3.062 2.225 3.804.129zM455.129 13.887l2.491-2.669 3.153.28-2.298-2.145.329-3.698-2.383 2.554-3.77-.336 2.782 2.597z"/><path opacity=".5" fill="#fff" d="M464.519 11.944l.741-3.575 2.84-1.399-3.078-.638-1.641-3.331-.71 3.42-3.395 1.672 3.727.773z"/><path opacity=".15" fill="#fff" d="M519.26 136.642l1.525-1.634 1.929.172-1.407-1.313.202-2.264-1.459 1.563-2.307-.205 1.703 1.589z"/><path opacity=".5" fill="#fff" d="M481.418 20.421l1.251-1.34 1.583.141-1.154-1.077.165-1.857-1.196 1.282-1.893-.168 1.397 1.303z"/><path opacity=".15" fill="#fff" d="M548.745 117.332l1.583.14-1.154-1.076.165-1.857-1.196 1.282-1.893-.168 1.397 1.303-.152 1.716zM582.402 118.894l1.251-1.34 1.583.141-1.154-1.077.165-1.856-1.196 1.281-1.893-.168 1.397 1.304z"/><path opacity=".5" fill="#fff" d="M551.426 19.436l2.31.205-1.684-1.571.241-2.71-1.745 1.872-2.76-.246 2.037 1.902-.223 2.503z"/><path opacity=".15" fill="#fff" d="M460.519 88.741l1.824-1.955 2.309.205-1.683-1.571.241-2.709-1.745 1.87-2.761-.245 2.038 1.902zM472.369 87.907l.599-1.372 1.258-.322-1.182-.516-.377-1.475-.573 1.313-1.504.384 1.431.625z"/><path opacity=".15" fill="#fff" d="M460.926 83.673l-.745-1.299.491-1.201-1.118.641-1.409-.575.712 1.242-.586 1.436 1.353-.776z"/><path opacity=".5" fill="#fff" d="M500.409 8.252l1.824-1.955 2.309.205-1.683-1.571.241-2.709-1.746 1.87-2.761-.245 2.038 1.902zM508.144 10.186l1.825-1.955 2.309.205-1.683-1.571.24-2.709-1.745 1.87-2.761-.245 2.038 1.902zM517.818 26.942l1.973-2.114 2.497.222-1.82-1.699.26-2.93-1.888 2.023-2.986-.266 2.204 2.057zM158.692 36.87l2.491-2.67 3.152.281-2.298-2.145.329-3.699-2.383 2.554-3.77-.335 2.783 2.596zM127.941 45.102l2.492-2.669 3.152.28-2.298-2.145.329-3.698-2.383 2.553-3.77-.335 2.782 2.597zM61.064 125.8l.797-3.563 2.86-1.355-3.068-.686-1.589-3.356-.762 3.409-3.421 1.619 3.715.831zM76.638 69.836l2.016-3.045 3.155-.245-2.621-1.735-.287-3.702-1.928 2.912-3.774.293 3.174 2.101zM109.269 25.614l-.396-2.526 1.516-1.617-2.175.341-1.898-1.779.379 2.417-1.813 1.934 2.634-.413zM55.999 60.663l2.566-3.877 4.019-.311-3.338-2.21-.366-4.714-2.455 3.709-4.805.373 4.041 2.675zM30.08 113.159l1.97-2.978 3.086-.239-2.563-1.697-.281-3.62-1.886 2.848-3.689.286 3.103 2.055z"/><path opacity=".8" fill="#fff" d="M35.444 73.012l1.97-2.977 3.086-.24-2.563-1.696-.281-3.621-1.886 2.849-3.689.286 3.103 2.054z"/><path opacity=".5" fill="#fff" d="M28.442 67.403l2.989-1.953 2.928 1.003-1.681-2.574 1.176-3.435-2.86 1.868-3.501-1.198 2.036 3.115zM404.679 48.201l4.296-4.603 5.438.483-3.964-3.699.567-6.379-4.111 4.404-6.501-.578 4.799 4.478zM218.894 12.203l1.309-3.409 3.028-.922-2.935-1.127-1.082-3.552-1.252 3.261-3.62 1.102 3.553 1.365z"/><path opacity=".15" fill="#fff" d="M290.72 91.82l3.153.28-2.298-2.146.329-3.698-2.383 2.553-3.77-.335 2.782 2.597-.303 3.417zM332.487 105.362l-3.017-.883-1.37-3.452-.98 3.353-3.518 1.394 3.653 1.069 1.264 3.19 1.026-3.504z"/><path opacity=".5" fill="#fff" d="M235.736 22.052l2.013-2.157 2.548.227-1.858-1.734.266-2.988-1.926 2.063-3.046-.271 2.249 2.099z"/><path opacity=".15" fill="#fff" d="M311.2 137.72l-1.856-1.733.266-2.99-1.926 2.064-3.046-.271 2.248 2.099-.245 2.762 2.013-2.158z"/><path opacity=".5" fill="#fff" d="M264.544 30.963l1.218-2.687 2.486-.6-2.314-1.049-.703-2.917-1.165 2.571-2.974.717 2.802 1.27zM301.194 12.358l2.013-2.157 2.548.226-1.858-1.733.266-2.989-1.926 2.064-3.046-.271 2.249 2.098zM194.228 28.194l2.491-2.669 3.153.28-2.298-2.145.329-3.698-2.383 2.553-3.77-.335 2.782 2.597z"/><path opacity=".15" fill="#fff" d="M232.842 132.06l2.491-2.67 3.153.281-2.298-2.145.329-3.699-2.383 2.554-3.77-.335 2.782 2.596zM217.81 141.198l2.491-2.67 3.153.281-2.299-2.145.329-3.699-2.383 2.554-3.77-.335 2.783 2.596z"/><path opacity=".5" fill="#fff" d="M164.432 134.525l2.491-2.669 3.153.281-2.298-2.145.329-3.699-2.384 2.554-3.769-.336 2.782 2.597zM365.84 15.888l1.851-1.983 2.342.208-1.707-1.594.244-2.748-1.771 1.898-2.801-.25 2.068 1.93zM94.189 106.412l2.342.208-1.708-1.593.245-2.749-1.771 1.898-2.801-.249 2.067 1.93-.225 2.538z"/><path opacity=".15" fill="#fff" d="M227.893 114.212l.921-3.415 2.826-1.191-2.941-.793-1.397-3.316-.881 3.268-3.379 1.423 3.56.961zM204.043 127.122l.631-2.208 1.847-.745-1.902-.544-.874-2.166-.604 2.112-2.208.891 2.302.658z"/><path opacity=".5" fill="#fff" d="M157.917 133.241l.632-2.208 1.847-.745-1.902-.544-.874-2.166-.604 2.112-2.208.891 2.302.658zM64.898 111.44l.354-1.236 1.034-.417-1.065-.305-.489-1.213-.339 1.183-1.236.499 1.289.369zM86.971 49.762l.41-1.435 1.2-.484-1.236-.354-.567-1.407-.393 1.373-1.435.578 1.496.428zM205.569 42.7l1.851-1.983 2.342.208-1.708-1.593.245-2.749-1.771 1.898-2.801-.249 2.067 1.929zM203.878 37.706l.605-1.78 1.539-.535-1.532-.52-.628-1.806-.579 1.702-1.84.64 1.855.63zM166.86 11.89l1.282-1.374 1.623.144-1.183-1.104.169-1.904-1.226 1.315-1.94-.173 1.432 1.337zM358.165 7.885l.696-1.745 1.564-.456-1.503-.598-.534-1.836-.666 1.671-1.87.544 1.82.725z"/><path opacity=".8" fill="#fff" d="M777.282 69.005l1.282-1.374 1.623.145-1.183-1.104.169-1.904-1.227 1.314-1.94-.172 1.432 1.336z"/><path opacity=".5" fill="#fff" d="M760.327 104.785l1.283-1.374 1.622.144-1.183-1.104.17-1.904-1.227 1.315-1.94-.173 1.432 1.337zM413.292 38.637l1.862-.255 1.166 1.137-.219-1.603 1.334-1.368-1.781.243-1.395-1.36.266 1.941z"/><circle cx="650.514" cy="24.206" r="3.193" opacity=".5" fill="#004b60"/><path d="M650.514 21.013c-.143 0-.28.024-.419.042a3.189 3.189 0 0 1 1.879 2.903 3.183 3.183 0 0 1-2.775 3.151c.402.182.845.29 1.315.29a3.193 3.193 0 1 0 0-6.386z" opacity=".5" fill="#00212e"/><path opacity=".5" fill="#fff" d="M614.429 20.928l1.397 1.303-.152 1.716 1.25-1.34 1.583.14-1.154-1.076.165-1.857-1.196 1.282zM613.765 15.497l1.62.022.883 1.163.02-1.554 1.074-.814-1.338-.018-.956-1.26-.02 1.488zM674.559 6.353l-.152 1.716 1.25-1.34 1.583.14-1.154-1.076.165-1.857-1.196 1.282-1.893-.168zM654.996 53.838l1.597-1.05 1.63.553-1.007-1.531.51-1.505-1.318.867-1.766-.598.964 1.465z"/><g opacity=".5" fill="#fff"><path opacity=".33" d="M700.159 89.859l2.491-2.669 3.152.28-2.298-2.145.329-3.698-2.383 2.553-3.77-.335 2.782 2.597zM722.109 107.555l2.491-2.669 3.153.28-2.298-2.145.329-3.698-2.384 2.553-3.769-.335 2.782 2.597zM367.657 41.642l2.491-2.67 3.153.281-2.298-2.145.329-3.699-2.384 2.554-3.769-.335 2.782 2.596zM391.735 23.076l2.491-2.67 3.153.281-2.298-2.145.328-3.699-2.383 2.554-3.769-.335 2.782 2.596zM434.283 34.003l2.491-2.67 3.152.281-2.298-2.145.329-3.699-2.383 2.554-3.77-.336 2.782 2.597zM530.167 76.666l2.492-2.669 3.152.28-2.298-2.145.329-3.698-2.383 2.553-3.77-.335 2.782 2.597zM499.405 76.666l2.491-2.669 3.153.28-2.299-2.145.329-3.698-2.383 2.553-3.77-.335 2.783 2.597zM530.956 57.94l1.25-1.34 1.583.141-1.154-1.077.165-1.857-1.196 1.282-1.893-.168 1.397 1.303zM531.55 50.675l.02-1.554 1.074-.814-1.338-.018-.956-1.259-.019 1.487-1.284.973 1.62.022zM592.831 103.494l-1.007-1.531.51-1.505-1.319.867-1.765-.598.964 1.465-.61 1.799 1.596-1.05zM573.506 87.334l-1.008-1.531.51-1.505-1.318.867-1.766-.598.964 1.465-.61 1.799 1.597-1.05zM564.618 72.289l1.289-1.303 1.578.187-1.122-1.11.219-1.851-1.233 1.247-1.887-.223 1.359 1.343zM592.557 66.599l.048-2.132 1.484-1.103-1.836-.042-1.294-1.741-.047 2.04-1.774 1.319 2.223.051zM614.968 92.209l.063-2.764 1.924-1.43-2.38-.055-1.678-2.256-.06 2.644-2.3 1.71 2.881.066zM562.45 56.855l.042-1.832 1.275-.948-1.578-.036-1.112-1.496-.04 1.753-1.525 1.134 1.91.043zM563.508 52.252l1.401-2.343 2.349-.29-2.017-1.207-.341-2.755-1.341 2.241-2.807.347 2.441 1.461zM576.429 55.924l2.969-1.875 2.864 1.03-1.614-2.557 1.208-3.36-2.84 1.794-3.425-1.231 1.955 3.094zM478.291 38.452l.151-2.67 1.906-1.32-2.299-.13-1.548-2.236-.145 2.554-2.278 1.578 2.782.158zM497.141 51.422l.861-2.531 2.189-.761-2.18-.741-.892-2.569-.824 2.422-2.618.909 2.639.898zM516.891 52.626l.29-2.658 1.973-1.219-2.289-.25-1.429-2.314-.278 2.543-2.359 1.457 2.771.303zM470.092 81.778l1.825-1.955 2.309.206-1.684-1.571.241-2.709-1.745 1.87-2.761-.245 2.038 1.901zM462.796 67.781l.599-1.372 1.257-.321-1.181-.516-.377-1.475-.573 1.312-1.504.385 1.43.624zM503.89 38.422l1.824-1.955 2.309.205-1.683-1.571.241-2.709-1.746 1.87-2.761-.245 2.038 1.902z"/><path opacity=".33" d="M528.454 48.447l1.974-2.114 2.497.222-1.821-1.699.261-2.93-1.888 2.023-2.986-.266 2.204 2.057zM616.224 103.439l2.491-2.67 3.153.281-2.298-2.145.329-3.699-2.384 2.554-3.769-.335 2.782 2.596zM646.072 82.694l3.241-3.473 4.102.365-2.99-2.791.428-4.813-3.101 3.323-4.905-.436 3.62 3.378zM293.786 33.993l3.242-3.473 4.102.365-2.991-2.791.428-4.813-3.101 3.323-4.905-.436 3.621 3.379zM307.16 70.545l3.152.281-2.298-2.145.329-3.699-2.384 2.554-3.77-.336 2.783 2.597-.304 3.418zM328.573 74.824l3.152.281-2.298-2.145.329-3.699-2.383 2.554-3.77-.336 2.783 2.597-.304 3.417zM274.282 71.766l3.153.28-2.3-2.145.33-3.698-2.383 2.553-3.77-.335 2.783 2.597-.304 3.417zM148.91 71.043l2.503-2.866-3.711.717-3.362-2.937.796 4.123-2.993 3.427 4.492-.867 3.107 2.713zM280.386 38.768l2.013-2.157 2.548.227-1.858-1.734.266-2.988-1.926 2.063-3.046-.271 2.249 2.099zM203.511 50.386l2.492-2.669 3.152.28-2.298-2.145.329-3.698-2.383 2.554-3.77-.336 2.782 2.597zM202.551 62.282l1.851-1.984 2.343.209-1.708-1.594.244-2.748-1.77 1.897-2.801-.249 2.067 1.93zM88.604 101.48l2.343.21-1.708-1.595.244-2.748-1.77 1.897-2.801-.249 2.067 1.93-.226 2.54zM160.294 62.872l2.343.21-1.708-1.595.245-2.748-1.771 1.897-2.801-.249 2.067 1.93-.225 2.54zM153.042 80.605l2.343.208-1.708-1.594.244-2.748-1.771 1.898-2.8-.249 2.067 1.93-.226 2.538zM146.306 78.405l1.846-.745-1.901-.544-.874-2.166-.605 2.113-2.207.89 2.3.66.809 2zM204.043 115.518l.631-2.208 1.847-.745-1.902-.544-.874-2.166-.604 2.112-2.208.891 2.302.658zM177.361 96.153l.354-1.237 1.034-.417-1.065-.305-.489-1.212-.339 1.182-1.236.499 1.289.369z"/><path opacity=".33" d="M150.476 66.226l1.99-.046L150.88 65l-.054-2.335-1.31 1.764-2.38.055 1.922 1.428.05 2.157zM245.359 89.2l.903-1.215 1.312-.03-1.046-.778-.036-1.539-.864 1.163-1.569.036 1.267.941zM317.715 70.81l2.045-1.16-2.311-.34-1.36-2.4-.38 2.567-2.445 1.387 2.798.412 1.257 2.218zM356.991 73.042l-1.707-1.594.244-2.748-1.77 1.898-2.802-.25 2.068 1.93-.226 2.539 1.851-1.983zM365.586 70.169l-2.275-.526-1.163-2.502-.585 2.528-2.55 1.185 2.755.637 1.074 2.312.612-2.643zM116.436 96.144l2.343.208-1.708-1.594.244-2.748-1.77 1.897-2.801-.249 2.067 1.93-.226 2.54zM95.857 97.927l2.342.208-1.708-1.594.245-2.748-1.771 1.897-2.801-.249 2.068 1.93-.226 2.54zM401.438 45.572l.174-2.606 1.874-1.269-2.243-.15-1.49-2.198-.166 2.492-2.241 1.518 2.716.181z"/><g opacity=".33"><path d="M682.93 109.408l-2.242 1.744-3.252-.823 1.937 2.492-.839 3.315 2.715-2.111 3.006.76-2.025-2.605z"/><path d="M678.958 113.966s-16.936-11.17-14.08-15.868c0 0-1.91 4.741 14.018 14.88l.165.456M680.586 110.501l1.382-.611s-7.254-7.53-15.793-10.84c0 0 12.159 6.73 14.411 11.451z" opacity=".8"/><path d="M676.31 110.275s-6.735-4.51-7.537-7.97c0 0 1.858 4.31 7.32 6.74 0 0 1.205-1.364-3.393-4.424 0 0 5.363 2.728 4.984 5.013 0 0-1.643-.519-1.375.64zM678.453 109.716s.323-1.178-1.198-2.579c0 0 2.582 2.348 3.116 3.534l-1.918-.955zM668.886 104.843s-2.598-2.287-3.013-4.695c0 0 .891 2.352 3.013 4.695z" opacity=".8"/><path d="M673.996 107.045s-2.553-1.446-3.306-3.179c0 0 2.823 1.916 3.306 3.18zM668.15 101.258s2.932 1.517 5.09 3.059c0 0-1.78-1.913-5.09-3.059z" opacity=".8"/></g><path opacity=".33" d="M612.407 36.659l2.782 2.597-.304 3.417 2.492-2.67 3.152.28-2.298-2.144.329-3.698-2.383 2.553zM581.644 36.659l2.783 2.597-.304 3.417 2.49-2.67 3.154.28-2.3-2.144.33-3.698-2.383 2.553zM648.18 35.243l1.359 1.343-.203 1.71 1.289-1.303 1.578.187-1.122-1.11.219-1.851-1.233 1.247z"/></g><path opacity=".5" fill="#fff" d="M673.856 30.947l2.223.05 1.196 1.609.048-2.132 1.484-1.103-1.836-.042-1.294-1.741-.047 2.04zM644.23 21.437l1.91.043 1.028 1.382.042-1.832 1.275-.948-1.578-.036-1.112-1.496-.04 1.753zM645.47 14.252l2.44 1.46.316 2.547 1.4-2.343 2.35-.29-2.017-1.207-.341-2.755-1.341 2.24z"/><path opacity=".8" fill="#fff" d="M699.687 52.61l-1.117 3.105 2.969-1.875 2.864 1.03-1.614-2.557 1.208-3.36-2.84 1.794-3.425-1.23z"/><path opacity=".5" fill="#fff" d="M578.395 14.158l2.639.898.825 2.373.86-2.531 2.19-.761-2.18-.741-.892-2.57-.824 2.423zM597.517 16.192l2.77.303 1.322 2.138.29-2.658 1.973-1.22-2.29-.25-1.428-2.313-.278 2.543zM544.131 16.134l-.223 2.503 1.824-1.955 2.31.205-1.684-1.57.241-2.71-1.745 1.871-2.76-.246zM611.209 9.69l2.204 2.057-.241 2.707 1.974-2.114 2.497.222-1.821-1.7.26-2.93-1.887 2.024z"/></g><path fill="#6d8d90" d="M292.333 251.167l-8 16.666-34.666-38-84 14-84 12.754L37 218.044 15 244.5l7.333 21.333-7.333 8 7.333 14L15 303.5h365.536L337 243.833z"/><path fill="#46737b" d="M32.25 262l-1.75 16 13 15.5 8.75-7.236-6-7.014 10-23.478 8-2.272 23.5 37.5 24.5 4.167 6-16.167 36.75-.5 16.5 17.75 75.75-3 8.403 10.25-50.771 2.734-38.549 5.641-13.333 3.75h-10.562l-11.063-5.25-1.5-6.792-42.542-.083-43 10.917-24-2.542L15 303.5l7.333-15.667-7.333-14 7.333-8L15 244.5l22-26.456L24 246z"/><path fill="#f0f0f0" d="M198.951 223l7.549-40.961-18-5.067 6-18.972-13.5-10.5-12.221 16.611L155 167.657V136h-16.5l-17 24-56-9.5-21 7.5 8.5 21.054-8.5 19.232L54 225l-12.333 18.673L52.5 268.038l6 27.129 25 3.833-2-16.38 16.5 7.131 8-8.213-6.083-16.841 36.583 3.341-4.333 20.879L158 299l5-30.962 47-.375-5 27.504L250 299l10-9.249-.5-28.772 36 32.021 32 2.167 22.118-5.416L219 215.488z"/><path fill="#ccd6dd" d="M157 262.833l-12-44.789-8.333 35.456-34.501 1.667L86 225.833 74.408 248.5l16.925 1.754v19.913L74.408 265.5 73 281.833h-4.667l-18.666-34 13-19-9-27 3.666-16.722-10.183-20.547 5.85 14.49-8.5 19.232L54 225l-12.333 18.673L52.5 268.038l6 27.129 25 3.833-2-16.38 16.5 7.131 8-8.213-6.083-16.841 36.583 3.341-12.17 20.984 21.837 14.561 12.333-2 2-6.416 2.165-23.495-3.332 3.392L157 292.5h-9.333zM188.5 176.972l6-18.972-13.5-10.5 2.125 11 4.875 6.064-6.25 11.936-1.376 5.846-7.624 1.779V173.25l5.625-3.25-3.375-5.436-16.75 11.936s4.5 19.75 5.125 20.125 11 3.375 11 3.375l8.875-2.5.312-6.646 3.355.604.417-8.708 12.458.25 3.458 5.292-5.85 5.009 6.766 1.199 2.333-12.461-17.999-5.067zM148.25 139.5l4.375 5.438v3.562l-5-1-.562 3.438L154 154l1-2.25V136h-16.5l-8.625 11.5 6.313 2.875.562-6.125z"/><path d="M68 208v27.687l-9.75 7.063 8 10.75L76 231.782V205.5l22.875 2.75 1.375 21.25 13.5 2.282L133 215s-9.75-23-9.75-23.75-39.5-9.75-39.5-9.75l-.5-28-17.75-3-11.624 4.152v5.598l16.624-1-1.75 12.275L64.5 197l3.5 11z" fill="#ccd6dd"/><path fill="#adbcb3" d="M532.053 217.705l-4.518-18.848 16.378-25.267-4.518-16.943 22.025-12.207h19.766l7.907 29.15-12.425 10.481 2.259 14.786 18.637-9.407 15.813 11.882-2.259 12.323 20.331 12.55v18.826l-20.896 14.546 17.508 24.899-55.911 7.172-47.439-18.527L490 250.5z"/><path d="M607.375 215.917l2-5.625-4.5-3.25-.375 7.792-5.792-1.458-2.292-8 5.583-5.25-5.208-4.333-11.208 4.875-7.25 15.667-15.667-6-.5-21.833 7.083-4.333-2.833-6.083-5.692-9.132 1.109-6.908L569 154.5l5.5 2.667-1.833 3.626 2.167.957 7.583-.25-2.167-13.25-18.667-1.417-14.917 8.75L550 173.917l-14.047 15.595 5.464 1.821 2.667 4.083-1.25 6.417 6.083 1 2.583 4.917-2.75 5.833L554 227.5s-2.046 2.558-3.453 4.384l17.328 9.616 5.875-13.5 8.125.75 5.208 3.25.917-5.875 6.125-6.375 8.75 2.375-2 6.5 7.125 6.5-2.875 7.875 10.75-14.125.449-6.022-1.033.897-7.916-7.833z" fill="none"/><path d="M618.181 221.24l2.194-1.906-9.257-5.679 2.259-12.322-15.813-11.883-18.651 9.315-2.245-14.694 12.424-10.481-7.906-29.15H561.42l-22.025 12.207 4.518 16.943-16.378 25.267 4.518 18.848-10.741 8.376 11.938 13.002s5.795-1.851 10.41-3.392l11.09 4.809 13.125 16.456 9 7.544 23.375-8.125L622 246.5l.75-23.25-4.569-2.01zm-2.306 7.635L605.125 243l2.875-7.875-7.125-6.5 2-6.5-8.75-2.375-6.125 6.375-.917 5.875-5.208-3.25-8.125-.75-5.875 13.5-17.328-9.616c1.407-1.825 3.453-4.384 3.453-4.384l-5.25-13.917 2.75-5.833-2.583-4.917-6.083-1 1.25-6.417-2.667-4.083-5.464-1.821L550 173.917l-3.333-18.333 14.917-8.75 18.667 1.417 2.167 13.25-7.583.25-2.167-.957 1.833-3.626L569 154.5l-7.167 7.543-1.109 6.908 5.692 9.132 2.833 6.083-7.083 4.333.5 21.833 15.667 6 7.25-15.667 11.208-4.875 5.208 4.333-5.583 5.25 2.292 8 5.792 1.458.375-7.792 4.5 3.25-2 5.625 7.917 7.833 1.033-.897-.45 6.025z" fill="#93a49f"/><path fill="#f07e51" d="M636 208.018l9-21.024 14 2.761 14 5.147V174.5l12-11.071 15 9.071 4-17.849 31.5-6.151 2.5-10.763 14.5-3.133 11-29.828H800V240.5l-15.667 20-16-3.913 4 21.913-10 13.148-56 11.852L589 272.5v-35zM205 194.643l-34-6.004-3.333-36.806-51.334-8.666-16-18.667-58.666 50.665 32.666 62.21 35.334-19.323 14 19.445L97 268.038l35.333 27.129 44-20.444 41.334 20.444L249 264.697l26 16.841 81.234 13.629-110.567-110.056z"/><path fill="#ea5046" d="M130.625 237.25L105.75 208.5l-28.25 9-17.125-41.417L98.125 136l17.5 14 .708-6.833-16-18.667-58.666 50.665 32.666 62.21 35.32-19.316 14.014 19.438L97 268.038l12.569 10.6L121.25 292l13.272 6.69 39.353-22.752-31.375 2.625-19-12.063z"/><path fill="#ea5046" d="M148.5 266.5l39.5 6.25 38.5-4.635L190 265.5l-22.667-8.142L165 227.51 197.768 216l22.982 10.875-21.083 3.292-.716 7.083-8.951 2.417 8.951 4.959 45.424-8.751 53.486 24.006 3.389-.756-93.75-49.292-39.5-3.882-25.562 20.549z"/><path fill="#ea5046" d="M347.75 298.333l12.167.667-114.25-113.889-24.25 2.222-16.417 7.31-34-6.004-3.333-36.806-51.334-8.666-14.221 14.333-3.237 26.5 16.625 25 26 9.625 7.375-11-1.5-26.729L138 187.75l-1.667 13.167-17.333-1.75-10-25.792 12.5-21.625 16.004-1.121L161.25 159l5.75 41 37.417 2L218 216l4.19 1.301-5.19-14.829 4.333-6.972L243 193.464l88.968 80.308z"/><path fill="#adbcb3" d="M305.833 270.333L294.5 262.25l-20.187 3.375-4.875-10.187-14.875-7.063L243 248.5l-2.667-12.667-8-9.892L239 211.359l-19.333-7.859-24.025 4.518 2.126 17.913 15.899 12.569-35.334 4.667v13.42l6.167 10.163-14.861 4.25v28l6.028 4.5h166l-36.903-20.571z"/><path fill="none" d="M281.333 286.264l-11.5-4.764-1.833-9.667 5.1-4.345-3.6-10.144-14.625-7.09h-8.069l-4.454 5.29-.685 7.456 9.166 2.667L263 294.625l49.125 5.25-20.458-19.375-8.834-2z"/><path d="M763.5 104.776l-11 29.827-14.5 3.134-2.5 10.763-31.5 6.151-4 17.849-15-9.071-12 11.071v20.402l-14-5.147-14-2.761-9 21.024-47 29.482v35l10.167-14.167.667-19 41-19.667L647 200l15.333 5.167 14.833 17.5 20.833-8-9.167-15.333L698 187.667 711.833 196l15.833 6.833s11.833-20 11.833-20.5-4-10.809-4-10.809l18.75-3.025 15.932 10.509L778.75 165l7-18.167L800 149.25v-44.474h-36.5z" fill="#ea5046"/><path fill="#ea5046" d="M633.333 262.25V251.5l14-15.333L664.667 243 721 245.167 741.667 221 777 205.951l15.333 9.882L800 204.138V240.5l-15.667 20-27-10-8 16.667 2 24.481L696 297.167l-81.667-22 6-12.917zM794.167 189.833l5.833 7v-26.5l-5.833 4.834z"/><path fill="#6d8d90" d="M520.333 254.726l8-21.654 29.334-15.028 18.666 20.456v23.333l22-7.107 35.334 21.774L649 241.833l24 3.334 6-27.123 34.667-.544 12 15.572-6 46.095 24 10-9.334 14.333H396.116l29.607-14.333L477 233.072z"/><path fill="#46737b" d="M694.044 217.5L688 243.833l-13.333 29.334L654 268.115l-5-26.282-15.333 34.667-35.334-21.774-6 5.774 14.167 13.167-5.333 9-19.5 3.833-16.834-24.25 11.5-.417V238.5l-18.666-20.456-11.984 6.139 15.042 11.504V253.5l-12.058-4.667-10.334 5.893L540 271.167l6.667 10.333-23.155 10.912-6.679-18.579L490 239.568l-13-6.496-5.456 5.968 13.289 5.793-6.644 13.667-13.356 3.75 4.667 14.25L490 284l28.624 14.158 1.709 5.342H611.5l9 6.25 15.75 4.25h12.25l1.75-4.25L663 303.5h36.333l10-15.667L693 278.167l16.333-31.96-5.871-28.132z"/><path fill="#f0f0f0" d="M402.25 269.25l3.667-15.75L421 244.75l14.926 30.314 23.741-6.949 6.351 21.718 13.86-5.821 21.789-2.512 5.958-8-24.125-12.728 6.5-21.204L511.5 221l28 14.5 12 36-22 11.5 7.5 20.5H380.536l9.347-25.634zM677 209.674L701.667 221l22-35.833 20 4 6-14h20L773 200l-24 19.75 24.25 9.875 14.417-2.115 4.666 33.262-8.666 16.395-40 4 28.666 18.166.667 4.167-5 4h-15.75l-14.583 2.25L663 303.5l6.667-26-10-50.345z"/><path fill="#ccd6dd" d="M775.019 232.882l10.231-2.444 4.083 27.895L779 272.5l-30.167 2.667v-5.5l7-8.334L750 260.5l-9.667 4 3.334 16.667 40-4 8.666-16.395-4.666-33.262-13.604 1.24z"/><path fill="#ccd6dd" d="M755.667 217.5l-.159-2.484L773 200l-3.333-24.833h-3.75L763.625 199l-8.558 9.128-.234-3.658-11.166-15.303-20-4-22 35.833L677 209.674l-17.333 17.481.691 3.478 18.309-14.466 15.833 7.666 5.751 22.704L685 252.25l-15.333 25.25-6.667 26 74.667 6.25L687 299.333l-2-20.583 20.178-24.411 10.072 6.161 1 9.75H723l3-9.75-16.52-12.837-6.147-13.83 10.834-25.666 16.833-17 17.167 14.666L751 216.167l-6.167 1.877 2.072 2.624-10.78 5.207-5.875 15.25v13.214l3.375.661 5.208-21.833 11.292-8.667 20.625 5.125-1.5 13.625-8.792 7.402L749.25 248l.25-4.625-3.625-1.875-2.208 8 11.208 5.5 14.75-3 7.625-18.125-3.125-8.25-22.228-6.573z"/><g fill="#93a49f"><path d="M223.5 280.75l1.25 6.125 5.5-2.375.5 5.75-14.25-.625-4.75 8-27.375 1.708-9-8.708 1.5-15L192 279.25l-8 13.333s8.661-1.897 9.144-2.022c.483-.125 2.498-7.895 2.498-7.895l17.17-.542 17.337-9.822-8.263-27.646-22.157-4.316-21.396 2.826v13.42l6.167 10.163 21.875 6 10.25-10.75-5.5-8.5-14.75 12-13.625-14.25L194 243l25.875 8.5 3.25 18.875-18.625 7.875-26.167-9.737-8.694 2.487v28l6.028 4.5h40.208l9-4.5-.875-4.375 10.75-.5 5.375-8.625-4.375-8.125-12.25 3.375z"/><path d="M304.764 282.929l1.07-12.596-11.334-8.083-17.5 1.917-.637.543-2.238-9.209-16.625-11-15.107 1.119-2.06-9.786-8-9.893L239 211.359l-19.333-7.859-24.024 4.518 2.126 17.913 15.899 12.569 9.458-4-1.875-17.375-7.125-1.75-1.313 2.669L217.875 232l-11.5-4-4.375-9.956L209.75 208l18.25 4.75-.125 15 6 11.625 4 4.125-1 20.875 9.5 7.375 4.717 6.325-9.759 9.758v12.333L251.5 303.5h4.153l.847-6.333-3.333 2.167-8.333-.833.833-8.25 9.986-.446 2.722 7.696 22.125 6h61.167l-36.903-20.572zM263 294.625l-12.167-28.958-9.166-2.667.686-7.456 4.454-5.29h8.069l14.625 7.09 3.6 10.144-5.1 4.345 1.833 9.667 11.5 4.764 1.5-7.764 8.833 2 20.458 19.375-49.125-5.25z"/></g><path fill="#ccd6dd" d="M406.25 273.25l-8.625 7.125 3.5 18 50 3.5 10.5-2.875-3.5-23.125-18 5.188 4.688 7-5.313 1.125-5.125-8.063 1.551-6.061 23.741-6.949 14.583 31.968 2.333-4.25 9.792 5.417 9.225-4.108-1.864-9.614-14.819-3.278L490 281.5h11.667l13 15.083 12.083 4.167-7.917-13.083L524 276.875l20.25-7.75-8.297-31.5-24.328-8.25-15.375 11.5-2.625 22.25 12.25 6.75 1.887-7.625 3.863.625.25 9-3.875 2.75-19.125-7.5-5.375-6.353 6.5-21.204L511.5 221l28 14.5 12 36-22 11.5 7.5 20.5v3.583l-6.5 2.667-12.5-.667-13.5-5.583H380.536l9.347-25.634 12.367-8.616 3.667-15.75L421 244.75l-12.625 12.206z"/><path fill="#00212e" d="M-38.095 608.298h800v303.5h-800z"/><path d="M112.173 608.298C49.877 626.975-1.898 652.595-38.095 682.81v156.12h800V693.188c-36.301-34.736-92.594-64.11-161.907-84.89H112.173z" fill="#002633"/><path d="M761.905 911.798V748.76c-73.128-78.278-227.364-132.231-405.811-132.231-169.484 0-317.131 48.669-394.19 120.624v174.645h800z" fill="#003745"/><path d="M756.56 911.794C674.57 808.006 528.479 738.92 361.905 738.92c-166.574 0-312.665 69.085-394.655 172.873h789.31z" fill="#004b60"/><g><path d="M400 260.772c-31.948 0-17.252 57.838-6.987 89.071 3.797 11.552 8.74 19.214 8.74 19.214s1.676-8.253 5.654-20.5c10.235-31.505 24.108-87.785-7.407-87.785z" fill="#80cff5" stroke="#6dc8f3"/><path d="M400 271.731c-19.875 0-11.21 33.58-4.742 52.519 2.54 7.439 4.172 22.023 4.172 22.023s2.94-14.98 5.6-22.871c6.43-19.075 14.552-51.67-5.03-51.67z" opacity=".429" fill="url(#e)"/><path d="M400.463 261.337s10.903-.704 15.476 8.617c4.572 9.321 3.165 25.852 2.814 29.545-.352 3.693-3.518 20.752-4.045 23.039-.528 2.286 12.31-59.09-14.245-61.201z" opacity=".268" fill="#59c0f2"/></g><g transform="matrix(.9516 0 0 .9516 19.357 20.207)"><circle cx="399.828" cy="117.447" r="20.949" fill="#80b39b"/><path d="M390.816 127.434s.59-.401.778-.489c.189-.088 5.046.871 5.046.871l.28.347.271.33.151.255-3.058.641-3.09-.733-.432-.886.054-.336zM414.722 124.448l-3.238.931.259.342 1.767.603 1.641-1.231-.686-.81z" fill="#628ea0"/><path d="M413.872 127.887c-.512-.261-1.203-.919-2.129-2.166a4.218 4.218 0 0 0-1.275-1.127l-.155.341c-.048-.005-.094-.009-.143-.016-1.055-.135-1.948-.285-2.557-.47-2.408.359-5.258.803-7.368 1.192-.065.534-.557 1.512-3.057 2.294-.105.033-.208.06-.311.086.111.439.363.675.363.675s-.023.788-.683 1.643l.017.081 3.867 15.553 14.942-1.622c-.079-3.401-1.164-13.947-1.47-16.184-.012-.097-.027-.187-.041-.28z" fill="#fff"/><path d="M404.71 131.454l-.164.896s2.12-1.758 3.927-1.293l-.544-.5-3.213.871" fill="#cfe1eb"/><path d="M398.335 127.65s4.889-1.633 5.769-6.236c0 0 2.543 3.542 7.366 3.806-3.639 5.622-13.135 2.43-13.135 2.43z" fill="#fdd08f"/><path d="M404.723 128.537c-3.318.143-6.388-.887-6.388-.887s4.889-1.633 5.769-6.236c0 0 1.953 2.72 5.683 3.57-.509 1.064-1.801 2.634-5.064 3.553z" fill="none"/><path d="M409.787 124.984c.526.12 1.087.203 1.684.236-1.57 2.426-4.23 3.209-6.748 3.318 3.263-.92 4.555-2.49 5.064-3.554z" fill="#f7ae83"/><path d="M388.227 112.105l.472-2.739c1.639-8.561 10.517-9.251 14.878-8.732 4.36.519 6.997 5.557 7.147 10.047.148 4.46 4.357 8.329 4.413 8.38.107.195.17.304.17.304s-7.685 2.089-9.242.838c-1.557-1.251-8.28 4.623-8.28 4.623s-1.277-.166-2.989-1.369c-1.02.946-2.629 2.19-3.443 1.775-1.236-.629-.838-1.077-.429-3.218.21-1.097-.255-2.639-.758-3.883a15.952 15.952 0 0 1-.978-2.071l-.013-.024.003-.004a15.619 15.619 0 0 1-.951-3.927z" fill="#fdd08f"/><ellipse transform="rotate(-5.762 400.132 111.395)" cx="400.096" cy="111.387" rx=".576" ry="2.131" fill="#2b4d5a"/><ellipse transform="rotate(-17.04 404.23 110.532)" cx="404.187" cy="110.51" rx="1.058" ry="2.677" fill="#2b4d5a"/><path d="M389.273 116.928s.478-1.485 1.111-1.12c0 0 .217.106.569.326l.071.094a2.911 2.911 0 0 0-.097.036s2.481 2.8 1.523 5.35c-.554 1.474-.297 3.022.036 4.067a3.296 3.296 0 0 1-.738-.364c-1.534-1.049-1.219-2.023-1.219-2.023s1.133-3.469-1.256-6.366z" fill="#f7ae83"/><path d="M390.063 111.497s-5.288-1.967-5.706-1.367c-.418.599.132 2.698 1.059 4.534.927 1.835 2.046 3.122 5.477 1.792 3.431-1.33-.83-4.959-.83-4.959z" fill="#fdd08f"/><path d="M388.116 112.357s-2.778-1.922-2.68-.608c.098 1.314.712 2.637 1.912 3.199 0 0 .398.151-.121-.434-.518-.586-1.407-2.474-.988-2.316.419.158 2.884.77 1.877.159zM388.939 114.031s.239.536-.344.581c-.584.045-.442.677-.005.656.437-.021 1.125-.988.349-1.237z" fill="#f7ae83"/><path d="M394.925 128.784c-1.669-.131-3.133-.644-4.109-1.35-2.672 1.725-6.826 5.225-9.437 9.471l.416 4.895 24.788 2.354-9.342-15.457a9.818 9.818 0 0 1-2.316.087z" fill="#529eb2"/><path d="M406.427 137.07c.053.447.682 6.169.799 7.242l6.899-.404c-1.143-2.329-5.328-10.429-6.451-11.373l.255-1.977s-1.264-1.465-2.15-.79c-.886.676-1.069 1.687-1.069 1.687l1.859 1.672s-.26 2.94-.142 3.943z" fill="#167c9c"/><path d="M425.683 143.25l-1.606-7.524a16.02 16.02 0 0 0-1.323-2.509c-2.006-3.089-3.806-6.364-7.604-8.124-.83.286-1.875.504-3.025.602-.13.011-.256.016-.384.023l.001.004s3.654 7.464 2.133 16.95l11.808.578z" fill="#529eb2"/><path d="M398.774 129.528s3.147 2.479 4.99 2.681l-.585.559c-.001 0-2.923-1.423-4.405-3.24zM408.97 131.088l.828.554s1.704-3.134 1.508-4.478c0 .001-1.109 3.663-2.336 3.924z" fill="#cfe1eb"/><path fill="#195e72" d="M394.973 133.225l-3.232-2.602 2.565-2.59-.297-.068-2.83 2.605 3.136 2.65-1.779 2.833 11.103 7.82.923.243-11.506-8.118zM415.285 129.001l.746-2.338-3.137-1.422-.325.052 2.997 1.509-.63 2.229 2.087 1.729-1.27 12.133.379-.112 1.387-12.286z"/><path d="M420.709 134.239l-.124-.279s-1.663.843-3.627.901l-.016.144-.054.061c2.725-.21 3.821-.827 3.821-.827z" fill="#195e72"/><path d="M421.284 135.757a5.487 5.487 0 0 0-.454-1.349l-.001-.002-.002-.002c-.135-.277-.242-.444-.242-.444l.013.155c.014.021.028.045.042.07l-.034.023s.449 1.183.493 1.652l.125-.058-.003-.017.063-.028z" fill="#34606f"/><path d="M421.27 135.686a.309.309 0 0 1-.1.077l-.004-.013s-1.327.525-4.427.728l.005.06-.022.002.009.111c1.917-.146 4.56-.712 4.56-.712.037-.083-.021-.253-.021-.253z" fill="#34606f"/><path d="M409.949 107.419l2.152-2.321s.671-.529.726 1.173c.055 1.702.62 5.488-1.61 5.284-2.23-.205-1.268-4.136-1.268-4.136z" fill="#fdd08f"/><path d="M410.196 110.123c.782.15 1.717-3.887 1.972-5.065.171-.082.615-.158.659 1.213.055 1.702.62 5.488-1.61 5.284-.906-.083-1.285-.781-1.416-1.58.115.067.245.119.395.148z" fill="none"/><path d="M410.196 110.123a1.224 1.224 0 0 1-.395-.149c-.192-1.169.148-2.556.148-2.556l2.152-2.321s.026-.02.067-.04c-.255 1.179-1.19 5.216-1.972 5.066z" fill="#f7ae83"/><path d="M390.066 125.745c-2.985-2.872-2.199-4.971-2.199-4.971v.001a2.867 2.867 0 0 1 5.455-.328 2.165 2.165 0 0 0-2.385-1.261 2.158 2.158 0 0 0-1.745 2.505c.13.704.594 1.262 1.201 1.547a2.536 2.536 0 0 0 .729.199l-.001.002c.514.06.854-.071.854-.071.685-.173 1.22-.741 1.822-1.381.5-.531.748-.929.987-1.261.458-.638 1.908-2.659 4.111-3.151.344-.077 1.666-.352 3.063.326.225.109 1.508.761 2.109 2.079.091-1.446 1.057-2.512 1.228-2.695 1.063-1.132 2.396-1.347 2.745-1.398 2.233-.327 4.309 1.044 4.964 1.477.342.226.716.508 1.372.826.79.383 1.493.722 2.194.64 0 0 .364.001.823-.238l-.001-.001c.041-.02.08-.042.119-.064.159-.095.326-.219.491-.381.465-.482.7-1.17.57-1.874-.215-1.166-1.345-1.935-2.524-1.718a2.166 2.166 0 0 0-1.778 2.029 2.867 2.867 0 0 1 5.213-1.64s1.482 1.679-.28 5.426l-.008.017c-.031.065-.062.131-.095.197l-.055.109-.001.002c-1.937 3.798-5.544 4.416-5.544 4.416l.002-.003a8.645 8.645 0 0 1-9.084-3.216 8.646 8.646 0 0 1-7.338 6.246l.003.002s-3.661.724-6.847-2.231a11.902 11.902 0 0 1-.161-.152l-.009-.011z" fill="#0d4759"/><path opacity=".5" fill="#fff" d="M397.665 96.87l-3.621.504 25.924 23.29.995-3.223zM393.795 97.773l-1.387.475 27.084 25.139.918-1.149z"/><path d="M364.463 158.429s-26.45 10.989-35.687 53.504c-9.237 42.515-2.507 52.68 2.696 44.845 5.203-7.835 13.515-52.102 46.372-36.894l-13.381-61.455z" fill="#007673"/><path d="M334.268 224.494c7.514-34.586 26.418-48.307 33.208-52.223l-3.014-13.842s-26.45 10.989-35.687 53.504c-8.202 37.754-3.814 49.983.915 46.766-.02-7.594 1.221-18.754 4.578-34.205zM435.048 158.232s26.511 10.841 35.985 53.304 2.802 52.665-2.445 44.859c-5.247-7.806-13.806-52.026-46.578-36.634l13.038-61.529z" fill="#00988b"/><path d="M471.033 211.536c-9.474-42.463-35.986-53.304-35.986-53.304l-2.183 10.301c8.276 4.816 18.403 13.493 26.264 29.036 16.005 31.647 11.926 41.054 5.88 35.943-5.499-4.648-18.826-32.541-40.947-23.435l-2.052 9.684c32.772-15.392 41.331 28.828 46.578 36.634 5.248 7.806 11.92-2.396 2.446-44.859z" fill="#007673"/><g><circle cx="399.828" cy="117.447" r="20.949" fill="none"/><path d="M366.54 89.782l-.017.071c-2.743 12.9-4.455 38.818-5.216 52.74-.07.007-.139.018-.209.024a478.446 478.446 0 0 0-.252 9.301l-.001.029h.001c-.057 3.257-.083 6.58-.074 9.975.066 23.747 3.314 42.834 7.914 57.994l62.458-.175c4.515-15.185 7.656-34.29 7.59-58.037-.325-116.032-39.409-152.666-39.409-152.666s-22.032 20.903-32.785 80.744zm53.266 33.968c-3.481 11.034-15.248 17.156-26.281 13.675-11.033-3.481-17.156-15.248-13.675-26.281 3.481-11.034 15.248-17.156 26.281-13.675 11.033 3.481 17.156 15.247 13.675 26.281z" fill="#ee7246"/></g><path d="M399.11 9.305c3.438 22.399 5.856 53.242 6.64 88.054.127.038.255.07.382.11 11.034 3.481 17.156 15.248 13.675 26.281-2.16 6.846-7.51 11.798-13.895 13.742-.457 31.755-2.291 60.343-5.059 82.431l30.247-.084c4.515-15.186 7.656-34.29 7.59-58.037C438.365 45.77 399.281 9.135 399.281 9.135l-.171.17z" fill="#ea542d"/><path d="M383.408 229.388l-3.262 15.345s8.749 8.304 17.054-.048l-2.819-15.328-10.973.031zM406.03 229.033l-3.262 15.345s8.749 8.304 17.054-.048l-2.819-15.328-10.973.031z" fill="#006f81"/><path fill="#ea542d" d="M399.872 204.379l-21.537.061-3.426 29.537 25.045-.07 25.045-.07-3.59-29.518z"/><path d="M360.96 171.015c.755 19.584 3.728 35.727 7.725 48.9l62.458-.175c3.923-13.195 6.806-29.354 7.452-48.942l-77.635.217zM438.704 166.303l-77.878.218c.016.769.042 1.523.064 2.282l77.762-.217c.019-.76.041-1.514.052-2.283zM438.728 162.64l-77.946.218c.005.766.014 1.525.026 2.282l77.908-.218c.007-.756.012-1.516.012-2.282zM399.325 9.038s-6.334 6.008-13.866 20.796l27.848-.078c-7.614-14.745-13.982-20.718-13.982-20.718z" fill="#00799d"/><path d="M400.924 219.825l30.219-.084c3.923-13.195 6.806-29.354 7.452-48.942 0-.001-13.516 38.558-37.671 49.026z" fill="#005c78"/><ellipse transform="translate(-.6 1.119)" cx="399.902" cy="215.442" rx="8.923" ry="54.52" fill="#00988b"/><path d="M404.477 169.104c1.173 9.171 1.888 20.628 1.923 33.067.084 30.111-3.843 54.531-8.771 54.545-1.727.005-3.346-2.996-4.727-8.181 1.667 13.029 4.26 21.436 7.152 21.428 4.928-.014 8.855-24.434 8.771-54.545-.054-19.561-1.789-36.702-4.348-46.314z" fill="#007673"/><path d="M420.686 124.027c-3.629 11.501-15.937 17.905-27.438 14.277-11.501-3.629-17.905-15.937-14.277-27.438 3.628-11.501 15.937-17.905 27.438-14.277 11.501 3.628 17.905 15.938 14.277 27.438zm-39.957-12.606c-3.323 10.531 2.542 21.802 13.073 25.125 10.531 3.323 21.802-2.542 25.125-13.073 3.323-10.531-2.542-21.802-13.073-25.125-10.532-3.323-21.802 2.542-25.125 13.073z" fill="#0f637c"/></g><g><path fill="#F0F0F0" d="M264 282.167l-4.478-19.917 14.134-15.687L287 249l4-35.405L304.5 200l16.5 5.951-.657 21.204-5.843 4.975L330 241l2.851 19.5L324.5 275l29.993 14.5 22.4 13.418-65.685.582-17.833 8.375-29.708-11.042-6-6z"/><path fill="#CCD6DD" d="M294.5 309.917l-29.667-12.25 6.834-10.25L266 260.772l17.167-7.272 3.166 17 14.834 13.5 10.958-4.333 3.542-13.334-4.459-2.166-1.375 5.833-5.166 5.064L295 253.5l2.167-37.167 14.041-13.914L304.5 200 291 213.595 287 249l-13.344-2.437-14.134 15.687L264 282.167l-10.667 12.083 7.042 12.693 27.125 7.474h25.333l64.06-11.499-57.56-14.251z"/><path fill="#CCD6DD" d="M314.5 232.13l-7 8.037 5.083 7.25 5-4.167 9.667 2.167 2.5 10.25L324.5 275l8.351-14.5L330 241z"/></g></svg>