<svg xmlns="http://www.w3.org/2000/svg" viewBox="0 0 2287.8 1186.6"><path opacity=".3" fill-rule="evenodd" clip-rule="evenodd" d="M2058.6 1162.5s34.3 6.6 34.2 13.6c-.1 7-28.1 10.4-169.9 10.4H125.4c-42.2 0-96.5-3-87.8-4.8 10.5-2.2 28.7-4.6 28.7-4.6 0-1.7 22.5-2.2 36.7-2.2 0 0 1951.5-15.9 1955.6-12.4z"/><path fill="#D7D7D8" d="M881.5 1115.2c-3.1 22.8 17.8 29.9 40 29.9l1124.6 19.7c44.2-2.4 55.2-36.7 58.9-59.9L2281.5 45.4c5.5-38.2-16.1-47.4-39-44.7l-1133.7 155c-23.3 3.2-39.4 21.7-44.2 45l-183.1 914.5z"/><path fill="#EBEBEB" d="M881 1115.2c-3.1 22.8 17.8 29.9 40 29.9l1122.1 19.7c44.2-2.4 55.2-36.7 58.9-59.9L2278.5 45.4c5.5-38.2-16.1-47.4-39-44.7l-1131.2 155c-23.3 3.2-39.4 21.7-44.2 45L881 1115.2z"/><path fill="#464D59" d="M881.5 1115.2c-3.1 22.8 17.8 29.9 40 29.9l1117.1 15.2c44.2-2.4 55.2-36.7 58.9-59.9L2274 45.4c5.5-38.2-16.1-47.4-39-44.7l-1126.2 155c-23.3 3.2-39.4 21.7-44.2 45l-183.1 914.5z"/><path opacity=".03" fill="#FFF" d="M887 1119.8c-3.1 22.8 17.8 29.9 40 29.9L2236.4 6.9 1114.3 160.3c-23.3 3.2-39.4 21.7-44.2 45L887 1119.8z"/><path fill="#D7D7D8" d="M2041 1149.8l30 9.1s-16.6 22.4-173.9 22.4-1638.8-.3-1706.6-.3c-67.8 0-140 2.8-190.5-22.1l86.4-16.6 1954.6 7.5z"/><path fill="#EBEBEB" d="M0 1125.7h2071v33.1H0z"/><path fill="#D1D2D3" d="M618.1 1125.7s1 21.5-14.2 21.3c-15.2-.2-128.5 0-135.4 0-6.9 0-18.3-2-18.1-21.3h167.7z"/><path fill="#4E5663" d="M1591.2 140.9c3.7.2 6.8-3.4 7-7.9.2-4.6-2.6-8.4-6.2-8.6-3.7-.2-6.8 3.4-7 7.9-.3 4.6 2.5 8.4 6.2 8.6zm-3.5-8.5c.2-3.3 2.4-5.8 5.1-5.7 2.6.1 4.7 2.9 4.5 6.2-.2 3.3-2.4 5.8-5.1 5.7-2.6-.1-4.6-2.9-4.5-6.2z"/><path fill="#D7D7D8" d="M1998.4 1150.9c0 1.9 1.5 3.4 3.4 3.4h46.1c1.9 0 3.4-1.5 3.4-3.4v-16.2c0-1.9-1.5-3.4-3.4-3.4h-46.1c-1.9 0-3.4 1.5-3.4 3.4v16.2z"/></svg>