<svg xmlns="http://www.w3.org/2000/svg" height="70" width="70"><path fill="#7c1544" d="M70.031 69.975H-.063V-.042h70.094z"/><path d="M69.98 70.035V34.379c-.042.477-.35.852-.719.625-.234-.145-.5.118-.625.593-.158.605-.437.796-.969.657-.533-.14-.866.1-1.125.78-.199.524-.612 1.032-.937 1.157-.325.124-.594.571-.594 1 0 .567-.19.728-.625.563-.762-.293-2.06.577-2.656 1.78-.303.613-.836.95-1.687 1.032-1.065.103-1.282-.01-1.282-.719 0-.46-.395-1.174-.875-1.562-.752-.61-1-.624-1.843-.188-.539.279-1.418.552-1.97.625-1.191.156-3.093-.972-3.093-1.843 0-.854-1.842-.364-2.719.718l-.656.782-1.906-1.407c-1.057-.777-2.669-1.976-3.594-2.656-.925-.68-2.527-1.614-3.563-2.094-2.087-.967-2.723-2.284-2-4.187.536-1.41.173-2.255-.875-2-.638.156-1.01-.075-1.53-1-.376-.667-.688-1.438-.688-1.719 0-.281-.273-.625-.594-.75-.321-.123-.563-.567-.563-.969s-.393-.918-.875-1.156c-.482-.236-1.308-.322-1.843-.187-.536.131-1.46.242-2.032.218-1.227-.057-4.218 2.912-4.218 4.188 0 .432-.353.982-.782 1.25-1.057.66-.962 1.553.282 3.031.89 1.059.964 1.413.625 2.313-.243.642-.241 1.402-.032 1.968.208.563.173 1.336-.062 1.938-.213.547-.484 1.823-.625 2.844-.141 1.02-.436 1.944-.625 2.062-.645.398-.354 2.247.5 3.156.803.856.851 1.044.375 2.969-.278 1.122-.926 2.761-1.438 3.656-.512.895-.937 2.146-.937 2.782 0 .707-.236 1.257-.625 1.406-.487.187-.591.574-.438 1.719.184 1.365-.3 3.9-1.062 5.625-.169.381-.19 1.207-.063 1.843.316 1.58-.275 2.911-1.906 4.344-.167.147-.342.3-.5.469h53.97zm0-35.656v-3.97a2.988 2.988 0 0 0-.438 1.157c-.136.842-.053 1.678.188 1.969.19.23.275.557.25.844z" fill="#a61c5a"/></svg>