<svg xmlns="http://www.w3.org/2000/svg" height="70" width="70"><path fill="#7c1544" d="M.03.018h70.438v69.939H.03z"/><path opacity=".228" fill="#7c1544" d="M287.82-310.632h142.79v141.77H287.82z"/><path fill="#7c1544" d="M396.64-192.162c-.482-.238-.876-.76-.876-1.164 0-.402-.263-.832-.585-.955-.321-.125-.584-.454-.584-.735 0-.282-.307-1.057-.682-1.723-.52-.925-.879-1.164-1.517-1.008-1.048.255-1.426-.595-.89-2.005.724-1.903.1-3.216-1.987-4.183-1.035-.48-2.64-1.43-3.564-2.11l-3.603-2.649-1.922-1.412-.656.81c-.877 1.083-2.707 1.561-2.707.708 0-.872-1.897-2.01-3.089-1.854-.55.073-1.441.358-1.979.637-.844.436-1.098.409-1.85-.2-.48-.389-.872-1.084-.872-1.545 0-.71-.192-.82-1.257-.717-.852.082-1.402.413-1.705 1.026-.597 1.204-1.893 2.073-2.654 1.781-.435-.165-.616-.024-.616.543 0 .428-.266.88-.59 1.005-.325.125-.754.656-.953 1.18-.258.68-.576.897-1.109.757-.531-.139-.81.05-.969.655-.124.475-.407.735-.64.59-.589-.363-.979.863-.47 1.476.242.291.32 1.132.183 1.974-.28 1.72-1.724 2.582-3.003 1.789-.446-.277-.827-.312-.973-.085-.132.202-.828.383-1.546.4-1.54.035-1.677.144-2.243 1.765-.35 1.002-.62 1.218-1.416 1.133-.592-.066-1.073.125-1.208.48-.304.792-1.423.318-1.423-.602 0-.925-1.627-2.014-2.505-1.677-.406.155-1.124-.082-1.834-.607-.642-.474-1.413-.768-1.712-.653-.686.263-1.164-.474-1.022-1.575.064-.49-.187-1.019-.596-1.26-.662-.393-.65-.462.217-1.141l.923-.723-1.101-1.716a286.642 286.642 0 0 0-1.205-1.87c-.058-.085-.37.068-.694.336-.481.4-.633.374-.832-.144-.133-.348-.037-.88.213-1.182.367-.443.284-.574-.427-.677-.486-.071-.978-.478-1.094-.907-.116-.428-.561-.828-.99-.887-1.523-.212-3.118-.551-3.264-.694-.082-.08-.485.035-.896.256-.507.271-.67.642-.506 1.154.131.416.096.762-.08.768-2.627.106-5.717.81-6.15 1.404-.43.587-.669.63-1.432.257-1.581-.774-2.064-.81-2.758-.205-.51.444-.804.48-1.204.146-.292-.242-.648-.322-.792-.179-.144.144-1.136.274-2.204.29-1.847.026-1.942-.024-1.942-1.001 0-.741-.19-1.014-.682-.975-.437.033-.685-.224-.691-.725-.015-1.195-1.592-4.226-2.48-4.765-.435-.265-1.056-.379-1.381-.254-.387.146-.75-.125-1.054-.791-.333-.731-.665-.954-1.178-.791-.754.24-1.045-.744-.348-1.174 1.272-.787-1.493-5.518-3.35-5.732-.979-.113-1.14-.347-1.564-2.265-.405-1.827-.389-2.186.107-2.463.357-.198.489-.614.342-1.075-.182-.575-.05-.75.567-.75.478 0 .806-.253.806-.621 0-.342.353-1.119.786-1.726.77-1.08.496-1.905-.44-1.326-.665.41-1.138-.667-.89-2.026.175-.953.045-1.344-.592-1.79-1.096-.768-.75-2.926.498-3.104.458-.066.856-.381.885-.703l.097-1.089c.025-.277.459-.918.964-1.424.506-.505 1.309-1.549 1.785-2.319s1.026-1.4 1.223-1.4c.197 0 .358-.177.358-.39 0-.214-.438-.389-.974-.389-.714 0-.974-.207-.974-.78 0-.427.183-.778.407-.778.23 0 .356-.633.292-1.461-.112-1.43-.084-1.463 1.346-1.581 1.7-.14 1.77-.3.584-1.327-.482-.418-.89-1.14-.907-1.604-.016-.464-.159-1.4-.316-2.08-.275-1.187-.212-1.27 1.54-2.045 1.005-.445 2.156-.809 2.557-.809.401 0 .73-.155.73-.344 0-.189.438-.632.975-.984.923-.605 1.038-.593 2.138.22.639.471 1.264.755 1.39.63.125-.126.235-1.386.243-2.8.008-1.415.173-2.67.367-2.79.194-.118.23-.416.08-.658-.15-.243-.314-.8-.364-1.24-.05-.439-.15-1.148-.221-1.577-.1-.6.117-.807.942-.902.693-.08 1.072-.355 1.075-.78.002-.36.616-1.25 1.363-1.976 1.374-1.334 1.69-1.99.96-1.99-.402 0-.286-1.74.23-3.434.155-.512.066-1.29-.208-1.801-.376-.703-.379-1.09-.013-1.774.496-.927.32-.922 5.18-.148 1.066.17 1.67.06 2.167-.389.38-.343 1.26-.823 1.958-1.066 1.32-.46 2.145-1.83 1.74-2.888-.148-.383.393-1.233 1.5-2.356 1.576-1.598 1.827-1.72 2.783-1.357.899.342 1.013.555.793 1.477-.142.592-.393 1.252-.558 1.467s-.428 1.09-.582 1.947c-.154.857-.461 1.786-.683 2.065-.3.376-.198.56.393.715 1.02.266 1.654 1.651 1.252 2.738-.172.463-.175 1.34-.007 1.947.263.954.476 1.09 1.558 1.002.689-.057 1.631.16 2.094.487.462.324 1.152.589 1.533.589s.693.167.693.37c0 .202.434.838.964 1.41.731.789 1.22.992 2.016.84.762-.146 1.242.026 1.749.635.384.46.704 1.032.71 1.273.008.241.523.54 1.145.665 1.166.233 2.374 1.981 2.374 3.436 0 .76.955.99 1.364.33.132-.214.658-.39 1.168-.39.51 0 1.043-.186 1.184-.415.141-.228.721-.365 1.29-.306.567.061 1.236-.024 1.486-.174.62-.383 2.307.304 2.596 1.059.142.368.7.613 1.395.613.74 0 1.368.3 1.738.828.458.654.81.77 1.678.556.603-.149 1.453-.605 1.888-1.01 1.108-1.034 2.907-1.07 4.492-.087 1.006.62 1.515.73 2.039.438.84-.47 3.294.66 3.947 1.817.23.406.636.977.904 1.27.267.292.486.89.486 1.328s.482 1.365 1.072 2.059c2.36 2.78 2.603 3.151 2.496 3.807-.103.63.416.788 2.178.66.16-.023.261-.431.224-.933-.055-.738.157-.946 1.104-1.085 1.88-.276 3.657.753 4.122 2.388.365 1.284.424 1.33.685.528.315-.967.612-1.081 1.225-.47.223.225 1.218.456 2.21.514 1.52.087 1.995-.068 3.015-.999 1.553-1.418 3.804-1.362 4.349.108.46 1.244 1.49 2.34 1.936 2.065.2-.125.671.054 1.049.398.55.497 1.418.596 4.357.496 3.26-.11 3.867-.024 5.424.806.964.512 2.585 1.031 3.603 1.154 1.855.224 2.276.585 1.36 1.166-.666.423-1.746 2.68-2.245 4.694-.264 1.062-.628 1.655-1.017 1.655-.333 0-.697.35-.81.78-.111.428-.426.778-.7.778-.273 0-.601.419-.73.93-.128.512-.852 1.474-1.608 2.138-1.631 1.432-2.203 2.741-1.887 4.32.127.637.093 1.47-.076 1.85-.763 1.725-1.236 4.25-1.053 5.616.153 1.144.052 1.548-.435 1.735-.389.149-.634.69-.634 1.399 0 .635-.42 1.887-.931 2.782-.512.895-1.158 2.545-1.436 3.667-.476 1.925-.457 2.091.347 2.947.854.909 1.151 2.767.507 3.165-.19.118-.46 1.048-.602 2.068-.141 1.02-.432 2.303-.645 2.85-.235.602-.252 1.361-.044 1.923.21.567.188 1.34-.054 1.983-.34.899-.245 1.234.646 2.293 1.243 1.478 1.321 2.377.264 3.038-.428.267-.779.839-.779 1.27 0 1.276-2.993 4.245-4.22 4.188a8.634 8.634 0 0 0-2.012.196c-.536.134-1.368.05-1.85-.186z"/><path opacity=".228" fill="#7c1544" d="M287.6-309.672h70.438v69.939H287.6z"/><path fill="#7c1544" d="M568.46-172.402c-.482-.238-.876-.76-.876-1.164 0-.402-.263-.832-.585-.955-.321-.125-.584-.454-.584-.735 0-.282-.307-1.057-.682-1.723-.52-.925-.879-1.164-1.517-1.008-1.048.255-1.426-.595-.89-2.005.724-1.903.1-3.216-1.987-4.183-1.035-.48-2.64-1.43-3.564-2.11l-3.603-2.649-1.922-1.412-.656.81c-.877 1.083-2.707 1.561-2.707.708 0-.872-1.896-2.01-3.088-1.854-.551.073-1.442.358-1.98.637-.844.436-1.098.409-1.85-.2-.48-.389-.872-1.084-.872-1.545 0-.71-.192-.82-1.257-.717-.852.082-1.402.413-1.705 1.026-.597 1.204-1.893 2.073-2.654 1.781-.435-.165-.616-.024-.616.543 0 .428-.266.88-.59 1.005-.325.125-.754.656-.953 1.18-.258.68-.576.897-1.109.757-.531-.139-.81.05-.969.655-.124.475-.407.735-.64.59-.589-.363-.979.863-.47 1.476.242.291.32 1.132.183 1.974-.28 1.72-1.724 2.582-3.003 1.789-.446-.277-.827-.312-.973-.085-.132.202-.828.383-1.546.4-1.54.035-1.677.144-2.243 1.765-.35 1.002-.62 1.218-1.416 1.133-.592-.066-1.073.125-1.208.48-.304.792-1.423.318-1.423-.602 0-.925-1.627-2.014-2.505-1.677-.406.155-1.124-.082-1.834-.607-.642-.474-1.413-.768-1.712-.653-.686.263-1.164-.474-1.022-1.575.064-.49-.187-1.019-.596-1.26-.662-.393-.65-.462.217-1.141l.923-.723-1.101-1.716a286.642 286.642 0 0 0-1.205-1.87c-.058-.085-.37.068-.694.336-.481.4-.633.374-.832-.144-.133-.348-.037-.88.213-1.182.367-.443.284-.574-.427-.677-.486-.071-.978-.478-1.094-.907-.116-.428-.561-.828-.99-.887-1.523-.212-3.118-.551-3.264-.694-.082-.08-.485.035-.896.256-.507.271-.67.642-.506 1.154.132.416.096.762-.079.768-2.628.106-5.718.81-6.151 1.404-.43.587-.669.63-1.432.257-1.581-.774-2.064-.81-2.758-.205-.51.444-.804.48-1.204.146-.292-.242-.648-.322-.792-.179-.144.144-1.136.274-2.204.29-1.847.026-1.942-.024-1.942-1.001 0-.741-.19-1.014-.682-.975-.437.033-.685-.224-.691-.725-.015-1.195-1.592-4.226-2.48-4.765-.435-.265-1.056-.379-1.381-.254-.387.146-.75-.125-1.054-.791-.333-.731-.665-.954-1.178-.791-.754.24-1.045-.744-.348-1.174 1.272-.787-1.493-5.518-3.35-5.732-.979-.113-1.14-.347-1.564-2.265-.405-1.827-.389-2.186.107-2.463.357-.198.489-.614.342-1.075-.182-.575-.05-.75.567-.75.478 0 .806-.253.806-.621 0-.342.353-1.119.786-1.726.77-1.08.496-1.905-.44-1.326-.665.41-1.138-.667-.89-2.026.175-.953.045-1.344-.592-1.79-1.096-.768-.75-2.926.498-3.104.458-.066.856-.381.885-.703l.097-1.089c.025-.277.459-.918.964-1.424.506-.505 1.309-1.549 1.785-2.319s1.026-1.4 1.223-1.4c.197 0 .358-.177.358-.39 0-.214-.438-.389-.974-.389-.714 0-.974-.207-.974-.78 0-.427.183-.778.407-.778.23 0 .356-.633.292-1.461-.112-1.43-.084-1.463 1.346-1.581 1.7-.14 1.77-.3.584-1.327-.482-.418-.89-1.14-.907-1.604-.016-.464-.159-1.4-.316-2.08-.275-1.187-.212-1.27 1.54-2.045 1.005-.445 2.156-.809 2.557-.809.401 0 .73-.155.73-.344 0-.189.438-.632.975-.984.923-.605 1.038-.593 2.138.22.639.471 1.264.755 1.39.63.125-.126.235-1.386.243-2.8.008-1.415.173-2.67.367-2.79.194-.118.23-.416.08-.658-.15-.243-.314-.8-.364-1.24-.05-.439-.15-1.148-.221-1.577-.1-.6.117-.807.942-.902.693-.08 1.072-.355 1.075-.78.002-.36.616-1.25 1.363-1.976 1.374-1.334 1.69-1.99.96-1.99-.402 0-.286-1.74.23-3.434.155-.512.066-1.29-.208-1.801-.376-.703-.379-1.09-.013-1.774.496-.927.32-.922 5.18-.148 1.066.17 1.67.06 2.167-.389.38-.343 1.26-.823 1.958-1.066 1.32-.46 2.145-1.83 1.74-2.888-.148-.383.393-1.233 1.5-2.356 1.576-1.598 1.827-1.72 2.783-1.357.899.342 1.013.555.793 1.477-.142.592-.393 1.252-.558 1.467s-.428 1.09-.582 1.947c-.154.857-.461 1.786-.683 2.065-.3.376-.198.56.393.715 1.02.266 1.654 1.651 1.252 2.738-.172.463-.175 1.34-.007 1.947.263.954.476 1.09 1.558 1.002.689-.057 1.631.16 2.094.487.462.324 1.152.589 1.533.589s.693.167.693.37c0 .202.434.838.964 1.41.731.789 1.22.992 2.016.84.762-.146 1.242.026 1.749.635.384.46.704 1.032.71 1.273.008.241.523.54 1.145.665 1.166.233 2.374 1.981 2.374 3.436 0 .76.955.99 1.364.33.132-.214.658-.39 1.168-.39.51 0 1.043-.186 1.184-.415.141-.228.721-.365 1.29-.306.567.061 1.236-.024 1.486-.174.62-.383 2.307.304 2.596 1.059.142.368.7.613 1.395.613.74 0 1.368.3 1.738.828.458.654.81.77 1.678.556.603-.149 1.453-.605 1.888-1.01 1.108-1.034 2.907-1.07 4.492-.087 1.006.62 1.515.73 2.039.438.84-.47 3.294.66 3.947 1.817.23.406.636.977.904 1.27.267.292.486.89.486 1.328s.482 1.365 1.072 2.059c2.36 2.78 2.603 3.151 2.496 3.807-.103.63.416.788 2.178.66.16-.023.261-.431.224-.933-.055-.738.158-.946 1.104-1.085 1.88-.276 3.657.753 4.122 2.388.365 1.284.424 1.33.685.528.315-.967.612-1.081 1.225-.47.223.225 1.218.456 2.21.514 1.52.087 1.995-.068 3.015-.999 1.553-1.418 3.804-1.362 4.349.108.46 1.244 1.49 2.34 1.936 2.065.2-.125.671.054 1.049.398.55.497 1.418.596 4.357.496 3.26-.11 3.867-.024 5.424.806.964.512 2.585 1.031 3.603 1.154 1.855.224 2.276.585 1.36 1.166-.666.423-1.746 2.68-2.245 4.694-.264 1.062-.628 1.655-1.017 1.655-.333 0-.697.35-.81.78-.111.428-.426.778-.7.778-.273 0-.601.419-.73.93-.128.512-.852 1.474-1.608 2.138-1.631 1.432-2.203 2.741-1.887 4.32.127.637.093 1.47-.076 1.85-.763 1.725-1.236 4.25-1.053 5.616.153 1.144.052 1.548-.435 1.735-.389.149-.634.69-.634 1.399 0 .635-.42 1.887-.931 2.782-.512.895-1.158 2.545-1.436 3.667-.476 1.925-.457 2.091.347 2.947.854.909 1.151 2.767.507 3.165-.19.118-.46 1.048-.602 2.068-.141 1.02-.432 2.303-.645 2.85-.235.602-.252 1.361-.044 1.923.21.567.188 1.34-.054 1.983-.34.899-.245 1.234.646 2.293 1.243 1.478 1.321 2.377.264 3.038-.428.267-.779.839-.779 1.27 0 1.276-2.993 4.245-4.22 4.188a8.634 8.634 0 0 0-2.012.196c-.536.134-1.368.05-1.85-.186z"/><path opacity=".228" fill="#7c1544" d="M459.43-289.922h70.438v69.939H459.43zM529.88-289.922h70.438v69.939H529.88zM459.43-219.982h70.438v69.939H459.43zM529.88-219.982h70.438v69.939H529.88z"/><path fill="#a61c5a" d="M46.987 17.638c-.548-.044-.975.333-2.156 1.531-1.108 1.123-1.647 1.96-1.5 2.344.405 1.057-.43 2.446-1.75 2.906-.698.243-1.59.72-1.969 1.063-.497.45-1.09.544-2.156.375-4.86-.774-4.691-.772-5.188.156-.365.683-.345 1.078.032 1.781.273.51.343 1.269.187 1.781-.515 1.693-.622 3.438-.219 3.438.73 0 .405.666-.968 2-.748.726-1.342 1.608-1.344 1.969-.003.424-.4.7-1.094.78-.825.096-1.037.307-.938.907.071.429.168 1.154.22 1.594s.224.976.374 1.219c.15.242.1.538-.094.656-.193.12-.367 1.367-.375 2.781-.008 1.415-.093 2.688-.218 2.813-.126.126-.768-.153-1.406-.625-1.1-.813-1.202-.824-2.125-.22-.537.352-.97.781-.97.97 0 .189-.348.343-.75.343-.4 0-1.557.368-2.562.813-1.753.775-1.806.876-1.53 2.062.156.68.295 1.599.312 2.063.016.464.424 1.207.906 1.625 1.185 1.028 1.137 1.173-.563 1.312-1.43.119-1.487.164-1.375 1.594.065.828-.05 1.438-.28 1.438-.224 0-.407.353-.407.78 0 .573.254.782.969.782.535 0 .968.192.968.406 0 .213-.147.375-.343.375s-.743.637-1.22 1.407c-.475.77-1.275 1.807-1.78 2.312-.506.506-.944 1.16-.97 1.438-.024.277-.064.772-.093 1.093-.029.322-.417.622-.875.688-.673.096-1.092.781-1.156 1.5h57.938v-30c-.39-.096-.743-.109-.969.03-.25.151-.932.25-1.5.188-.568-.06-1.14.053-1.281.282-.141.228-.677.437-1.188.437s-1.023.16-1.156.375c-.408.66-1.375.447-1.375-.312 0-1.455-1.208-3.205-2.375-3.438-.622-.125-1.149-.446-1.156-.687-.007-.242-.304-.791-.687-1.25-.507-.61-.988-.803-1.75-.657-.797.153-1.3-.055-2.032-.843-.53-.573-.968-1.204-.968-1.407 0-.202-.307-.375-.688-.375-.38 0-1.068-.238-1.531-.562-.463-.327-1.405-.557-2.094-.5-1.082.088-1.3-.046-1.562-1-.168-.607-.172-1.474 0-1.938.401-1.086-.23-2.483-1.25-2.75-.591-.154-.675-.342-.375-.718.221-.279.533-1.206.687-2.063.154-.857.397-1.723.563-1.937.165-.215.42-.877.562-1.47.22-.921.118-1.157-.781-1.5a2.29 2.29 0 0 0-.625-.155z"/></svg>