<svg xmlns="http://www.w3.org/2000/svg" height="70" width="70"><path fill="#7c1544" d="M70.24-.274v70.438H.301V-.274z"/><path d="M70.25 12.312c-.615-.055-1.24.12-1.594.625-.446.638-.859.768-1.812.593-1.36-.248-2.411.21-2 .875.579.937-.263 1.208-1.344.438-.607-.432-1.377-.781-1.719-.781-.368 0-.625-.335-.625-.813 0-.617-.174-.745-.75-.562-.461.146-.864.013-1.062-.344-.278-.496-.641-.498-2.469-.094-1.917.424-2.168.584-2.281 1.563-.215 1.856-4.933 4.615-5.719 3.344-.43-.697-1.427-.41-1.188.343.163.513-.05.855-.78 1.188-.667.303-.928.676-.782 1.062.125.325.014.94-.25 1.375-.539.887-3.587 2.454-4.781 2.47-.501.005-.752.25-.719.687.039.49-.228.687-.969.687-.977 0-1.026.09-1 1.938.016 1.068.138 2.074.281 2.218.144.144.055.49-.187.782-.334.4-.287.709.156 1.218.605.694.555 1.169-.219 2.75-.373.763-.306 1.008.282 1.438.593.434 1.269 3.528 1.375 6.156.01.175.365.195.781.063.513-.163.885-.007 1.156.5.22.41.33.824.25.906-.142.146-.475 1.727-.687 3.25-.06.428-.447.884-.875 1-.429.116-.836.608-.907 1.094-.102.711-.245.804-.687.437-.302-.25-.839-.352-1.188-.219-.517.2-.556.362-.156.844.268.324.429.63.344.688-.084.057-.93.582-1.875 1.187l-1.719 1.125-.719-.937c-.679-.867-.732-.882-1.125-.219-.242.41-.79.657-1.28.594-1.102-.142-1.827.345-1.563 1.03.115.3-.182 1.078-.657 1.72-.524.71-.749 1.406-.593 1.812.337.878-.763 2.5-1.688 2.5-.92 0-1.385 1.134-.594 1.438.356.135.535.627.47 1.219-.086.795.123 1.056 1.124 1.406 1.621.566 1.746.71 1.781 2.25.018.718.204 1.399.407 1.53.226.147.183.523-.094.97-.587.946-.247 1.974.656 2.562H70.25V12.312z" fill="#a61c5a"/></svg>