<svg xmlns="http://www.w3.org/2000/svg" viewBox="0 0 500.1 966.8"><path opacity=".3" fill-rule="evenodd" clip-rule="evenodd" fill="#221F1F" d="M25.9 946.1l452 12.1c9.5 0 27.3.7 20.6 6-2.9 2.3-11.5 2.6-21 2.6l-451.7-16c-9.5 0-17.2-1-17.2-2.2v-.5c.2-1 7.9-2 17.3-2z"/><path fill="#5B646F" d="M498.9 925.3c0 21.7-14 39.1-38.7 39.1L27 948c-16.6-.2-27-13-27-28.9l3.8-788.8c.4-15.8 11.7-25.8 25.4-27.3L461.4.2c25.7-1.8 38.7 6.2 38.7 36.4l-1.2 888.7z"/><path fill="#424A55" d="M484.8 931.3c0 12-12.5 30.7-30.7 30.7L26.7 946c-13.7-.5-25.3-12.3-25.3-27.1l3.2-785c-.5-21.5 16.5-28.4 25.5-29.7L454.8 2.6c26-4.6 29.5 7.3 29.7 24.8l.3 903.9z"/><path fill="#393F45" d="M491.9 170.7c0-1.3 1-2.4 2.2-2.4 1.2 0 2.2 1.1 2.2 2.4V215c0 1.3-1 2.4-2.2 2.4-1.2 0-2.2-1.1-2.2-2.4v-44.3z"/><path fill="#4E5562" d="M493.2 170.7c0-1.3.8-2.4 1.8-2.4s1.8 1.1 1.8 2.4v44.2c0 1.3-.8 2.4-1.8 2.4s-1.8-1.1-1.8-2.4v-44.2z"/><path fill="#393F45" d="M491.9 229.1c0-1.3 1-2.4 2.2-2.4 1.2 0 2.2 1.1 2.2 2.4v44.3c0 1.3-1 2.4-2.2 2.4-1.2 0-2.2-1.1-2.2-2.4v-44.3z"/><path fill="#4E5562" d="M493.2 229.1c0-1.3.8-2.4 1.8-2.4s1.8 1.1 1.8 2.4v44.2c0 1.3-.8 2.4-1.8 2.4s-1.8-1.1-1.8-2.4v-44.2z"/><path opacity=".03" fill="#FFF" d="M30.7 942c-13.7-.5-25.3-12.3-25.3-27.1l3.2-777c-.5-21.5 16.5-28.4 25.5-29.7L458.8 6.6 30.7 942z"/><ellipse fill="#3F4651" cx="240.6" cy="915.9" rx="19.9" ry="25.4"/><path fill="#4E5562" d="M243.9 925.2h-6.6c-2.1 0-3.8-1.7-3.8-3.8v-11c0-2.1 1.7-3.8 3.8-3.8h6.6c2.1 0 3.8 1.7 3.8 3.8v11c0 2.1-1.7 3.8-3.8 3.8zm-6.6-16.9c-1.1 0-2.1.9-2.1 2.1v11c0 1.1.9 2.1 2.1 2.1h6.6c1.1 0 2.1-.9 2.1-2.1v-11c0-1.1-.9-2.1-2.1-2.1h-6.6zM240.3 94.5c2.9.1 5.4-2.7 5.6-6.3.2-3.6-2.1-6.7-5-6.8-2.9-.1-5.4 2.7-5.6 6.3-.2 3.6 2 6.6 5 6.8zm-2.8-6.8c.1-2.6 1.9-4.7 4.1-4.6 2.1.1 3.7 2.3 3.6 4.9-.1 2.6-1.9 4.7-4 4.6-2.2 0-3.8-2.3-3.7-4.9z"/></svg>