<svg xmlns="http://www.w3.org/2000/svg" viewBox="0 0 248.8 654.1"><path opacity=".3" fill-rule="evenodd" clip-rule="evenodd" d="M246.8 650.8v.6c0 1.5-9 2.7-20 2.7H20c-11 0-20-1.2-20-2.7v-.6c0-1.5 9-2.7 20-2.7h206.8c11 0 20 1.2 20 2.7z"/><path fill="#424A55" d="M19.9 620.5c0 25.7 12.2 30.4 32.5 30.4h164.8c26.1 0 31.7-26.6 31.7-45.9V53.5c0-40.9-10.8-42.6-39.9-52.1L46.7 46.5c-18.8 5.2-26.8 26.2-26.8 45.1v528.9z"/><path fill="#4D5562" d="M0 612.8C0 638.5 10.5 651 30.7 651h166.6c19.9 0 31.6-17.8 31.6-37V29.5c0-16.7-12-33.8-39-28.5L26.8 38.7C8 44-.4 61.3 0 83.8v529z"/><path fill="#424A55" d="M4.9 615.8c.3 22 13.3 30.3 25.7 30.3H190c16.4 0 29.7-14.5 29.7-30.9V34.5c0-16.4-10.8-33.1-29.7-29.7L27.2 43C9.9 48.1 3 65.3 3.1 81.2l1.8 534.6z"/><path opacity=".03" fill="#FFF" d="M6.4 614.1c.3 22 13.3 30.3 25.7 30.3L191.6 6.1 28.7 44.2C11.4 49.3 4.5 66.6 4.6 82.5l1.8 531.6z"/><ellipse fill="#3F4651" cx="108.2" cy="607.2" rx="19.6" ry="26.1"/><path fill="#4D5562" d="M104.3 617.9c-2.5 0-4.5-2-4.5-4.5v-12.3c0-2.5 2-4.5 4.5-4.5h7.3c2.5 0 4.5 2 4.5 4.5v12.3c0 2.5-2 4.5-4.5 4.5h-7.3zm7.3-19.2h-7.3c-1.4 0-2.5 1.1-2.5 2.5v12.3c0 1.4 1.1 2.5 2.5 2.5h7.3c1.4 0 2.5-1.1 2.5-2.5v-12.3c0-1.4-1.1-2.5-2.5-2.5zM107.3 54c2.6.1 4.9-2.4 5-5.7.2-3.3-1.8-6-4.5-6.1-2.6-.1-4.9 2.4-5.1 5.7-.1 3.2 1.9 6 4.6 6.1zm-2.5-6.1c.1-2.4 1.7-4.2 3.6-4.1 1.9.1 3.3 2.1 3.2 4.4-.1 2.4-1.7 4.2-3.6 4.1-1.9 0-3.3-2-3.2-4.4zM83.1 76.5c.1 3.5 2.7 5.3 6.5 4.8l31.9-6.2c3.6-.7 6.5-4.1 6.4-7.6-.1-3.5-3.1-5.8-6.7-5.1l-31.8 6.7c-6.6 1.3-6.3 7.4-6.3 7.4zM94.2 71l26.5-5.7c3-.6 5.5.3 5.6 3 .1 2.6-2.3 4.5-5.4 5.1l-26.5 5.2c-3 .6-5.2-.4-5.3-2.6-.1-2.4 1-4.1 5.1-5z"/></svg>