<?xml version="1.0" encoding="UTF-8" standalone="no"?>
<svg
   xmlns:dc="http://purl.org/dc/elements/1.1/"
   xmlns:cc="http://creativecommons.org/ns#"
   xmlns:rdf="http://www.w3.org/1999/02/22-rdf-syntax-ns#"
   xmlns:svg="http://www.w3.org/2000/svg"
   xmlns="http://www.w3.org/2000/svg"
   xmlns:sodipodi="http://sodipodi.sourceforge.net/DTD/sodipodi-0.dtd"
   xmlns:inkscape="http://www.inkscape.org/namespaces/inkscape"
   version="1.1"
   x="0px"
   y="0px"
   viewBox="0 0 100 125"
   style="enable-background:new 0 0 100 100;"
   xml:space="preserve"
   id="svg2"
   inkscape:version="0.91 r13725"
   sodipodi:docname="bactery-2.svg"><metadata
     id="metadata16"><rdf:RDF><cc:Work
         rdf:about=""><dc:format>image/svg+xml</dc:format><dc:type
           rdf:resource="http://purl.org/dc/dcmitype/StillImage" /></cc:Work></rdf:RDF></metadata><defs
     id="defs14" /><sodipodi:namedview
     pagecolor="#ffffff"
     bordercolor="#666666"
     borderopacity="1"
     objecttolerance="10"
     gridtolerance="10"
     guidetolerance="10"
     inkscape:pageopacity="0"
     inkscape:pageshadow="2"
     inkscape:window-width="710"
     inkscape:window-height="480"
     id="namedview12"
     showgrid="false"
     inkscape:zoom="1.888"
     inkscape:cx="61.476241"
     inkscape:cy="62.5"
     inkscape:window-x="0"
     inkscape:window-y="0"
     inkscape:window-maximized="0"
     inkscape:current-layer="svg2" /><g
     id="g4"
     transform="translate(-1.5889831,12.182203)"><path
       d="m 44.7,77.8 c 0.8,0.6 1.7,0.9 2.7,0.9 0.2,0 0.4,0 0.5,0 1.2,-0.1 2.2,-0.7 2.9,-1.6 0.7,-0.9 1,-2 0.9,-3.2 C 51.6,72.7 51,71.7 50.1,71 L 49,70.1 c 0.6,-0.2 1.1,-0.5 1.6,-1 0.2,0.7 0.5,1.4 1.1,1.9 0.8,0.8 2,1.3 3.1,1.3 1.1,0 2.2,-0.4 3.1,-1.3 L 73.7,55.2 c 1.7,-1.7 1.7,-4.4 0,-6.1 -0.6,-0.6 -1.4,-1 -2.1,-1.2 l 1.5,-1.5 c 1.7,-1.7 1.7,-4.4 0,-6.1 -1.6,-1.6 -4.2,-1.7 -5.9,-0.2 -0.2,-0.8 -0.6,-1.6 -1.2,-2.2 -1.7,-1.7 -4.4,-1.7 -6.1,0 L 52,45.8 57.5,27.2 c 0.3,-1.1 0.2,-2.3 -0.3,-3.3 -0.5,-1 -1.5,-1.8 -2.6,-2.1 -1.1,-0.3 -2.3,-0.2 -3.3,0.3 -1,0.6 -1.8,1.5 -2.1,2.6 L 48.8,26 c -0.5,-0.6 -1.2,-1.1 -2,-1.3 -1.1,-0.3 -2.3,-0.2 -3.3,0.3 -1,0.6 -1.8,1.5 -2.1,2.6 L 35,49 c -0.1,0.4 -0.2,0.9 -0.2,1.3 l -2.1,-1.6 c -0.9,-0.7 -2,-1 -3.2,-0.9 -1.2,0.1 -2.2,0.7 -2.9,1.6 -0.7,0.9 -1,2 -0.9,3.2 0.1,1.2 0.7,2.2 1.6,2.9 l 1.1,0.8 c -0.8,0.3 -1.5,0.8 -2,1.4 -1.5,1.9 -1.1,4.6 0.7,6.1 l 17.6,14 z M 50.2,62.6 48.1,61 c 0.6,-0.2 1.2,-0.5 1.7,-0.9 0.2,0.8 0.6,1.6 1.2,2.2 0.6,0.6 1.3,1 2.1,1.2 L 51.6,65 c -0.2,-1 -0.7,-1.8 -1.4,-2.4 z m 22,-12.1 c 0.9,0.9 0.9,2.4 0,3.3 L 56.4,69.6 c -0.9,0.9 -2.4,0.9 -3.3,0 -0.9,-0.9 -0.9,-2.4 0,-3.3 l 4.1,-4.1 11.7,-11.7 c 0.5,-0.5 1.1,-0.7 1.6,-0.7 0.6,0 1.2,0.3 1.7,0.7 z m -4,-8.8 c 0.5,-0.5 1.1,-0.7 1.6,-0.7 0.6,0 1.2,0.2 1.7,0.7 0.9,0.9 0.9,2.4 0,3.3 l -4.1,4.1 c 0,0 0,0 0,0 L 55.7,60.8 c -0.9,0.9 -2.4,0.9 -3.3,0 -0.9,-0.9 -0.9,-2.4 0,-3.3 l 13.4,-13.4 2.4,-2.4 z m -7.1,-2.3 c 0.5,-0.5 1.1,-0.7 1.6,-0.7 0.6,0 1.2,0.2 1.7,0.7 0.9,0.9 0.9,2.4 0,3.3 L 51,56.1 48.6,58.5 c -0.9,0.9 -2.4,0.9 -3.3,0 -0.9,-0.9 -0.9,-2.4 0,-3.3 L 61.1,39.4 Z M 43.9,53.8 c -0.8,0.8 -1.2,1.9 -1.3,3 L 40,54.6 c 0.4,-0.1 0.7,-0.2 1.1,-0.4 1,-0.6 1.8,-1.5 2.1,-2.6 l 0.4,-1.3 c 0.5,0.6 1.2,1.1 2,1.3 0.1,0 0.3,0.1 0.4,0.1 l -2.1,2.1 z m 7,-28.4 c 0.2,-0.6 0.6,-1.1 1.1,-1.4 0.3,-0.2 0.7,-0.3 1.1,-0.3 0.2,0 0.4,0 0.7,0.1 0.6,0.2 1.1,0.6 1.4,1.1 0.3,0.6 0.4,1.2 0.2,1.8 L 49,48.2 c -0.4,1.2 -1.7,1.9 -2.9,1.6 C 45.5,49.6 45,49.2 44.7,48.7 44.4,48.1 44.3,47.5 44.5,46.9 L 50.9,25.4 Z M 36.7,49.7 43.1,28.3 c 0.2,-0.6 0.6,-1.1 1.1,-1.4 0.3,-0.2 0.7,-0.3 1.1,-0.3 0.2,0 0.4,0 0.7,0.1 0.6,0.2 1.1,0.6 1.4,1.1 0.3,0.6 0.4,1.2 0.2,1.8 L 41.2,51 c -0.2,0.6 -0.6,1.1 -1.1,1.4 -0.6,0.3 -1.2,0.4 -1.8,0.2 -1.2,-0.3 -1.9,-1.6 -1.6,-2.9 z m -9.1,2.8 c -0.1,-0.6 0.1,-1.2 0.5,-1.7 0.4,-0.5 0.9,-0.8 1.5,-0.8 0.1,0 0.2,0 0.3,0 0.5,0 1,0.2 1.4,0.5 L 49,64.2 c 0.5,0.4 0.8,0.9 0.9,1.6 0.1,0.6 -0.1,1.2 -0.5,1.7 -0.8,1 -2.3,1.2 -3.3,0.4 L 32.4,57.2 c 0,0 0,0 0,0 L 28.5,54.1 C 28,53.7 27.7,53.2 27.6,52.5 Z m 0.3,6.7 c 0.4,-0.5 0.9,-0.8 1.6,-0.9 0.1,0 0.2,0 0.3,0 0.5,0 1,0.2 1.4,0.5 l 13.7,10.7 c 0,0 0,0 0,0 l 3.9,3.1 c 0.5,0.4 0.8,0.9 0.9,1.6 0.1,0.6 -0.1,1.2 -0.5,1.7 -0.4,0.5 -0.9,0.8 -1.6,0.9 -0.6,0.1 -1.2,-0.1 -1.7,-0.5 L 28.3,62.4 c -1,-0.8 -1.2,-2.2 -0.4,-3.2 z"
       id="path6"
       inkscape:connector-curvature="0" /></g></svg>