<?xml version="1.0" encoding="UTF-8" standalone="no"?>
<svg
   xmlns:dc="http://purl.org/dc/elements/1.1/"
   xmlns:cc="http://creativecommons.org/ns#"
   xmlns:rdf="http://www.w3.org/1999/02/22-rdf-syntax-ns#"
   xmlns:svg="http://www.w3.org/2000/svg"
   xmlns="http://www.w3.org/2000/svg"
   xmlns:sodipodi="http://sodipodi.sourceforge.net/DTD/sodipodi-0.dtd"
   xmlns:inkscape="http://www.inkscape.org/namespaces/inkscape"
   version="1.1"
   x="0px"
   y="0px"
   viewBox="0 0 100 125"
   style="enable-background:new 0 0 100 100;"
   xml:space="preserve"
   id="svg2"
   inkscape:version="0.91 r13725"
   sodipodi:docname="bactery-1.svg"><metadata
     id="metadata22"><rdf:RDF><cc:Work
         rdf:about=""><dc:format>image/svg+xml</dc:format><dc:type
           rdf:resource="http://purl.org/dc/dcmitype/StillImage" /></cc:Work></rdf:RDF></metadata><defs
     id="defs20" /><sodipodi:namedview
     pagecolor="#ffffff"
     bordercolor="#666666"
     borderopacity="1"
     objecttolerance="10"
     gridtolerance="10"
     guidetolerance="10"
     inkscape:pageopacity="0"
     inkscape:pageshadow="2"
     inkscape:window-width="710"
     inkscape:window-height="480"
     id="namedview18"
     showgrid="false"
     inkscape:zoom="1.888"
     inkscape:cx="51.924729"
     inkscape:cy="62.5"
     inkscape:window-x="0"
     inkscape:window-y="0"
     inkscape:window-maximized="0"
     inkscape:current-layer="svg2" /><g
     id="g4"
     transform="translate(-0.4110169,12.59322)"><path
       d="m 52,43.7 c -0.9,-0.2 -1.8,0 -2.5,0.4 -0.8,0.5 -1.3,1.2 -1.5,2.1 l -1.6,7.1 0,0 c -0.2,0.9 0,1.9 0.5,2.6 -0.3,0.1 -0.5,0.2 -0.7,0.3 l -6.4,3.4 c -0.8,0.4 -1.4,1.1 -1.6,2 -0.3,0.9 -0.2,1.8 0.2,2.6 0.6,1.1 1.8,1.8 3,1.8 0.5,0 1.1,-0.1 1.6,-0.4 l 6.4,-3.4 c 1.6,-0.9 2.3,-2.9 1.4,-4.6 -0.1,-0.1 -0.1,-0.2 -0.2,-0.3 1.2,-0.3 2.2,-1.2 2.5,-2.5 l 1.6,-7.1 c 0.2,-0.9 0,-1.8 -0.4,-2.5 C 53.6,44.4 52.9,43.9 52,43.7 Z M 48.4,60.4 42,63.8 c -0.7,0.4 -1.5,0.1 -1.9,-0.6 -0.2,-0.3 -0.2,-0.7 -0.1,-1 0.1,-0.4 0.3,-0.6 0.7,-0.8 L 47.1,58 c 0.2,-0.1 0.4,-0.2 0.6,-0.2 0.5,0 1,0.3 1.2,0.7 0.4,0.7 0.1,1.6 -0.5,1.9 z M 52.6,47.3 51,54.4 c -0.2,0.7 -0.9,1.2 -1.6,1 -0.7,-0.2 -1.2,-0.9 -1,-1.6 l 0,0 1.6,-7.1 c 0.1,-0.4 0.3,-0.7 0.6,-0.9 0.3,-0.2 0.7,-0.3 1,-0.2 0.4,0.1 0.7,0.3 0.9,0.6 0.1,0.4 0.2,0.8 0.1,1.1 z"
       id="path6"
       inkscape:connector-curvature="0" /><path
       d="m 49.8,42.2 c 0.4,0.2 0.9,0.4 1.4,0.4 0.2,0 0.5,0 0.7,-0.1 0.7,-0.2 1.3,-0.7 1.7,-1.3 0.8,-1.4 0.3,-3.1 -1,-3.9 -1.4,-0.8 -3.1,-0.3 -3.9,1 -0.4,0.7 -0.5,1.4 -0.3,2.2 0.3,0.8 0.7,1.4 1.4,1.7 z"
       id="path8"
       inkscape:connector-curvature="0" /><path
       d="m 58.1,35.9 c -0.7,-0.4 -1.6,-0.2 -2,0.5 -0.2,0.3 -0.2,0.7 -0.1,1.1 0.1,0.4 0.3,0.7 0.7,0.9 0.2,0.1 0.5,0.2 0.7,0.2 0.5,0 1,-0.3 1.3,-0.7 0.2,-0.3 0.2,-0.7 0.1,-1.1 -0.2,-0.4 -0.4,-0.7 -0.7,-0.9 z"
       id="path10"
       inkscape:connector-curvature="0" /><path
       d="m 72.9,56.8 c -1.1,-1.1 -2.6,-1.7 -4.2,-1.7 l -1.7,0 c -1.2,0 -2.4,-0.6 -3.2,-1.6 L 61,49.6 c 0.4,-1.1 0.8,-2.1 1.1,-3.2 l 1.9,0 c 1,0 2,0.4 2.7,1.1 l 0.2,0.1 c 1.1,1 2.5,1.6 4.1,1.6 l 1.9,0 c 0.6,0 1,-0.4 1,-1 0,-0.6 -0.4,-1 -1,-1 l -1.9,0 c -1,0 -2,-0.4 -2.7,-1.1 L 68.1,46 C 67,45 65.6,44.4 64,44.4 l -1.3,0 c 0.1,-0.4 0.2,-0.9 0.3,-1.3 0.3,-1.5 0.5,-2.8 0.5,-4 l 6.3,0.3 c 0.1,0 0.2,0 0.3,0 1.4,0 2.7,-0.5 3.8,-1.4 l 1.4,-1.2 c 0.4,-0.4 0.5,-1 0.1,-1.4 C 75,35 74.4,35 74,35.3 l -1.4,1.2 c -0.8,0.6 -1.7,0.9 -2.7,0.9 L 63.5,37 c -0.2,-2 -0.8,-3.5 -1.6,-4.5 l 0.7,-1.9 c 0.5,-1.3 1.7,-2.3 3.1,-2.5 l 0.3,0 c 1.1,-0.2 2.2,-0.7 3.1,-1.5 l 2,-1.9 c 0.4,-0.4 0.4,-1 0.1,-1.4 -0.4,-0.4 -1,-0.4 -1.4,-0.1 l -2,1.9 c -0.6,0.5 -1.3,0.9 -2,1 l -0.3,0 c -2.1,0.3 -3.9,1.8 -4.6,3.9 l -0.4,1.1 C 60.3,31 60.2,30.9 60,30.8 59.4,30.5 58.8,30.2 58,30 l -0.5,-3.8 c -0.2,-1.2 0.3,-2.4 1.1,-3.3 l 2.1,-2 c 0.4,-0.4 0.4,-1 0,-1.4 -0.4,-0.4 -1,-0.4 -1.4,0 l -2.1,2 c -1.3,1.3 -1.9,3.1 -1.7,5 l 0.4,3.4 C 54.8,30 53.5,30.3 52.1,31 l -0.8,-1.2 c -0.5,-0.7 -0.7,-1.5 -0.7,-2.3 l 0,-1.5 c 0,-2.1 -1.2,-4.1 -3,-5.2 l -0.8,-0.5 c -0.5,-0.3 -1.1,-0.1 -1.4,0.4 -0.3,0.5 -0.1,1.1 0.4,1.4 l 0.8,0.5 c 1.2,0.7 2,2 2,3.4 l 0,1.4 c 0,1.2 0.4,2.4 1.1,3.5 l 0.7,1 c -0.9,0.6 -1.9,1.3 -2.9,2.2 -0.4,0.4 -0.9,0.8 -1.3,1.2 l -0.8,-2.1 c -0.8,-2.1 -2.7,-3.6 -5,-3.8 L 35.8,29 C 34.9,28.9 34,28.5 33.3,27.8 L 31.6,26 c -0.4,-0.4 -1,-0.4 -1.4,0 -0.4,0.4 -0.4,1 0,1.4 l 1.7,1.8 c 1,1.1 2.3,1.7 3.8,1.8 l 4.5,0.4 c 1.5,0.1 2.8,1.1 3.3,2.5 l 1.1,3 c -1,1.2 -2,2.4 -2.9,3.5 l -3.8,-4 c -0.4,-0.4 -1,-0.4 -1.4,0 -0.4,0.4 -0.4,1 0,1.4 l 4.1,4.3 c -1.2,1.7 -2.2,3.3 -3,4.6 L 33,40.6 c -0.9,-1.1 -2.1,-1.9 -3.5,-2.2 l -4,-0.8 c -0.4,-0.1 -0.8,-0.2 -1.2,-0.4 l -2.4,-1.4 c -0.5,-0.3 -1.1,-0.1 -1.4,0.4 -0.3,0.5 -0.1,1.1 0.4,1.4 l 2.4,1.4 c 0.5,0.3 1.1,0.5 1.8,0.7 l 4,0.8 c 0.9,0.2 1.8,0.7 2.3,1.5 l 5.2,6.8 c -1.1,1.9 -1.9,3.7 -2.4,5.3 l -3.1,-3.3 c -0.6,-0.6 -1.3,-1.1 -2,-1.4 l -2.2,-0.9 c -0.5,-0.2 -1.1,0 -1.3,0.5 -0.2,0.5 0,1.1 0.5,1.3 l 2.2,0.9 c 0.5,0.2 1,0.5 1.3,0.9 l 3.9,4.2 c -0.3,1.1 -0.4,2.1 -0.4,3 l -2.1,0 c -0.7,0 -1.4,-0.2 -2,-0.6 -2.1,-1.3 -4.8,-1.1 -6.7,0.4 l -1.4,1.1 c -0.4,0.3 -0.5,1 -0.2,1.4 0.2,0.3 0.5,0.4 0.8,0.4 0.2,0 0.4,-0.1 0.6,-0.2 l 1.4,-1.1 c 1.3,-1 3.1,-1.1 4.5,-0.3 0.9,0.6 2,0.9 3.1,0.9 l 2.2,0 c 0.1,1 0.3,1.8 0.6,2.6 l -2.7,1 C 31,65 30.9,65 30.7,65.1 l -2.6,0.5 c -1.4,0.3 -2.7,1.1 -3.6,2.3 l -1.3,1.7 c -0.3,0.4 -0.2,1.1 0.2,1.4 0.2,0.1 0.4,0.2 0.6,0.2 0.3,0 0.6,-0.1 0.8,-0.4 l 1.3,-1.7 c 0.6,-0.8 1.4,-1.3 2.4,-1.5 l 2.6,-0.5 C 31.4,67 31.6,67 31.9,66.9 l 2.9,-1.1 c 0.3,0.5 0.7,0.9 1,1.2 l -0.6,0 c -1.5,0.9 -2.4,2.5 -2.6,4.2 l -0.2,1.4 C 32.2,74 31.3,75.2 30,75.7 l -1.6,0.7 c -0.5,0.2 -0.8,0.8 -0.5,1.3 0.2,0.4 0.5,0.6 0.9,0.6 0.1,0 0.3,0 0.4,-0.1 l 1.6,-0.7 c 2,-0.8 3.3,-2.6 3.6,-4.7 l 0.2,-1.4 c 0.1,-1.1 0.8,-2.2 1.7,-2.8 l 0.8,-0.5 c 0.3,0.2 0.6,0.4 0.8,0.5 0.8,0.5 1.8,0.9 2.9,1.2 l -1,2 C 39.2,73.1 39,74.6 39.4,76 l 0.7,2.3 c 0.1,0.4 0.5,0.7 1,0.7 0.1,0 0.2,0 0.3,0 0.5,-0.2 0.8,-0.7 0.7,-1.2 l -0.7,-2.3 c -0.3,-0.9 -0.2,-1.9 0.2,-2.8 l 1.3,-2.6 c 0,0 0,0 0,0 1.2,0 2.6,-0.3 4,-0.9 L 46.7,71 c -0.3,2.2 0.7,4.3 2.4,5.5 l 2.7,1.9 c 0.2,0.1 0.4,0.2 0.6,0.2 0.3,0 0.6,-0.1 0.8,-0.4 0.3,-0.5 0.2,-1.1 -0.2,-1.4 L 50.3,75 C 49.1,74.2 48.5,72.8 48.7,71.3 L 49.1,68 c 1.1,-0.8 2.3,-1.8 3.5,-3.2 l 1.8,1.7 c 0.4,0.4 0.7,0.8 0.9,1.3 l 0.5,1.1 c 0.8,1.8 2.4,3.2 4.4,3.5 l 2.6,0.5 c 1.2,0.2 2.2,0.9 2.8,2 l 0.6,1.2 c 0.2,0.3 0.5,0.5 0.9,0.5 0.2,0 0.3,0 0.5,-0.1 0.5,-0.3 0.7,-0.9 0.4,-1.4 L 67.4,73.9 C 66.5,72.3 65,71.2 63.2,70.9 L 60.6,70.4 C 59.3,70.2 58.2,69.3 57.7,68.1 L 57.2,67 c -0.3,-0.8 -0.8,-1.5 -1.4,-2 l -2,-1.8 c 0.7,-1 1.4,-2.1 2.2,-3.3 l 2.8,0.4 c 0.8,0.1 1.5,0.5 2,1 l 3,2.7 c 0.2,0.2 0.4,0.3 0.7,0.3 0.3,0 0.5,-0.1 0.7,-0.3 0.4,-0.4 0.3,-1 -0.1,-1.4 l -3,-2.7 C 61.2,59.1 60.2,58.6 59,58.4 l -2,-0.3 c 0.9,-1.7 2,-3.9 3.1,-6.3 l 2.1,2.9 c 1.1,1.5 2.9,2.4 4.8,2.4 l 1.7,0 c 1,0 2,0.4 2.8,1.1 l 4.4,4.4 c 0.2,0.2 0.5,0.3 0.7,0.3 0.2,0 0.5,-0.1 0.7,-0.3 0.4,-0.4 0.4,-1 0,-1.4 l -4.4,-4.4 z m -18.3,1.5 c -4.9,8.6 -10.5,11.6 -15.7,8.6 -5.2,-3 -5.4,-9.4 -0.5,-17.9 0,0 0,0 0,0 3.2,-5.6 6.9,-10.4 10.3,-13.5 2.8,-2.6 5.4,-3.9 7.5,-3.9 0.2,0 0.4,0 0.6,0 0,0 0,0 0,0 0,0 0,0 0,0 0.7,0.1 1.3,0.3 1.8,0.6 2.6,1.5 3.4,5 2.3,10.3 -0.8,4.6 -3.1,10.2 -6.3,15.8 z"
       id="path12"
       inkscape:connector-curvature="0" /></g></svg>