<?xml version="1.0" encoding="UTF-8" standalone="no"?>
<svg
   xmlns:dc="http://purl.org/dc/elements/1.1/"
   xmlns:cc="http://creativecommons.org/ns#"
   xmlns:rdf="http://www.w3.org/1999/02/22-rdf-syntax-ns#"
   xmlns:svg="http://www.w3.org/2000/svg"
   xmlns="http://www.w3.org/2000/svg"
   xmlns:sodipodi="http://sodipodi.sourceforge.net/DTD/sodipodi-0.dtd"
   xmlns:inkscape="http://www.inkscape.org/namespaces/inkscape"
   version="1.1"
   x="0px"
   y="0px"
   viewBox="0 0 100 125"
   style="enable-background:new 0 0 100 100;"
   xml:space="preserve"
   id="svg2"
   inkscape:version="0.91 r13725"
   sodipodi:docname="virus-1.svg"><metadata
     id="metadata32"><rdf:RDF><cc:Work
         rdf:about=""><dc:format>image/svg+xml</dc:format><dc:type
           rdf:resource="http://purl.org/dc/dcmitype/StillImage" /></cc:Work></rdf:RDF></metadata><defs
     id="defs30" /><sodipodi:namedview
     pagecolor="#ffffff"
     bordercolor="#666666"
     borderopacity="1"
     objecttolerance="10"
     gridtolerance="10"
     guidetolerance="10"
     inkscape:pageopacity="0"
     inkscape:pageshadow="2"
     inkscape:window-width="710"
     inkscape:window-height="480"
     id="namedview28"
     showgrid="false"
     inkscape:zoom="1.888"
     inkscape:cx="50"
     inkscape:cy="62.5"
     inkscape:window-x="0"
     inkscape:window-y="0"
     inkscape:window-maximized="0"
     inkscape:current-layer="svg2" /><g
     id="g4"
     transform="translate(-2.6483051,12.711864)"><path
       d="M 78.4,39.3 54.9,24.8 c -2.8,-1.7 -6.5,-0.8 -8.2,2 -0.8,1.4 -1.1,3 -0.7,4.5 0.4,1.6 1.3,2.9 2.7,3.7 l 23.6,14.5 c 0.9,0.6 2,0.9 3.1,0.9 0.5,0 0.9,-0.1 1.4,-0.2 1.6,-0.4 2.9,-1.3 3.7,-2.7 0.8,-1.4 1.1,-3 0.7,-4.5 -0.5,-1.5 -1.4,-2.8 -2.8,-3.7 z m 0.3,7.2 c -0.6,0.9 -1.4,1.5 -2.5,1.8 -1,0.2 -2.1,0.1 -3,-0.5 L 49.6,33.3 c -0.9,-0.6 -1.5,-1.4 -1.8,-2.5 -0.2,-1 -0.1,-2.1 0.5,-3 0.8,-1.2 2.1,-1.9 3.4,-1.9 0.7,0 1.4,0.2 2.1,0.6 L 77.4,41 c 0.9,0.6 1.5,1.4 1.8,2.5 0.2,1.1 0,2.1 -0.5,3 z"
       id="path6"
       inkscape:connector-curvature="0" /><path
       d="m 75.1,44.2 c -0.2,-0.1 -0.3,-0.3 -0.3,-0.9 -0.1,-0.7 -0.2,-1.7 -1.3,-2.3 -1.1,-0.6 -2,-0.3 -2.6,-0.1 -0.6,0.2 -0.7,0.2 -0.9,0.1 -0.2,-0.1 -0.3,-0.3 -0.3,-0.9 -0.1,-0.7 -0.2,-1.7 -1.3,-2.3 -1.1,-0.6 -2,-0.3 -2.6,-0.1 -0.6,0.2 -0.7,0.2 -0.9,0.1 -0.2,-0.1 -0.3,-0.3 -0.3,-0.9 -0.1,-0.7 -0.2,-1.7 -1.3,-2.3 -1.1,-0.6 -2,-0.3 -2.6,-0.1 -0.6,0.2 -0.7,0.2 -0.9,0.1 C 59.6,34.5 59.5,34.3 59.5,33.7 59.4,33 59.3,32 58.2,31.4 57.1,30.8 56.2,31.1 55.6,31.3 55,31.5 54.9,31.5 54.7,31.4 54.5,31.3 54.4,31.1 54.4,30.5 54.3,29.8 54.2,28.8 53.1,28.2 52.6,27.9 52,28.1 51.7,28.5 51,29 51.2,29.7 51.6,30 c 0.2,0.1 0.3,0.3 0.3,0.9 0.1,0.7 0.2,1.7 1.3,2.3 1.1,0.6 2,0.3 2.6,0.1 0.6,-0.2 0.7,-0.2 0.9,-0.1 0.2,0.1 0.3,0.3 0.3,0.9 0.1,0.7 0.2,1.7 1.3,2.3 1.1,0.6 2,0.3 2.6,0.1 0.6,-0.2 0.7,-0.2 0.9,-0.1 0.2,0.1 0.3,0.3 0.3,0.9 0.1,0.7 0.2,1.7 1.3,2.3 1.1,0.6 2,0.3 2.6,0.1 0.6,-0.2 0.7,-0.2 0.9,-0.1 0.2,0.1 0.3,0.3 0.3,0.9 0.1,0.7 0.2,1.7 1.3,2.3 1.1,0.6 2,0.3 2.6,0.1 0.6,-0.2 0.7,-0.2 0.9,-0.1 0.2,0.1 0.3,0.3 0.3,0.9 0.1,0.7 0.2,1.7 1.3,2.3 0.2,0.1 0.3,0.1 0.5,0.1 0.3,0 0.7,-0.2 0.9,-0.5 0.7,-0.5 0.6,-1.1 0.1,-1.4 z"
       id="path8"
       inkscape:connector-curvature="0" /><path
       d="m 46.9,47.1 c 0,-0.6 -0.1,-1.6 -1.1,-2.3 -1,-0.7 -1.9,-0.6 -2.5,-0.4 -0.6,0.1 -0.7,0.1 -0.9,-0.1 -0.2,-0.2 -0.3,-0.3 -0.3,-0.9 0,-0.6 -0.1,-1.6 -1.1,-2.3 -1,-0.7 -1.9,-0.6 -2.5,-0.4 -0.6,0.1 -0.7,0.1 -0.9,-0.1 -0.2,-0.2 -0.3,-0.3 -0.3,-0.9 0,-0.6 -0.1,-1.6 -1.1,-2.3 -1,-0.7 -1.9,-0.6 -2.5,-0.4 -0.6,0.1 -0.7,0.1 -0.9,-0.1 -0.2,-0.2 -0.3,-0.3 -0.3,-0.9 0,-0.6 -0.1,-1.6 -1.1,-2.3 -1,-0.7 -1.9,-0.6 -2.5,-0.4 -0.6,0.1 -0.7,0.1 -0.9,-0.1 -0.2,-0.2 -0.3,-0.3 -0.3,-0.9 0,-0.6 -0.1,-1.6 -1.1,-2.3 -0.4,-0.3 -1.1,-0.3 -1.4,0.2 -0.3,0.4 -0.3,1.1 0.2,1.4 0.2,0.2 0.3,0.3 0.3,0.9 0,0.6 0.1,1.6 1.1,2.3 1,0.7 1.9,0.6 2.5,0.4 0.6,-0.1 0.7,-0.1 0.9,0.1 0.2,0.2 0.3,0.3 0.3,0.9 0,0.6 0.1,1.6 1.1,2.3 1,0.7 1.9,0.6 2.5,0.4 0.6,-0.1 0.7,-0.1 0.9,0.1 0.2,0.2 0.3,0.3 0.3,0.9 0,0.6 0.1,1.6 1.1,2.3 1,0.7 1.9,0.6 2.5,0.4 0.6,-0.1 0.7,-0.1 0.9,0.1 0.2,0.2 0.3,0.3 0.3,0.9 0,0.6 0.1,1.6 1.1,2.3 1,0.7 1.9,0.6 2.5,0.4 0.6,-0.1 0.7,-0.1 0.9,0.1 0.2,0.2 0.3,0.3 0.3,0.9 0,0.6 0.1,1.6 1.1,2.3 0.2,0.1 0.4,0.2 0.6,0.2 0.3,0 0.6,-0.1 0.8,-0.4 C 47.7,49 47.7,48.3 47.2,48 47,47.8 46.9,47.7 46.9,47.1 Z"
       id="path10"
       inkscape:connector-curvature="0" /><path
       d="m 59.5,50.8 c -1.6,-1.8 -4.1,-2.4 -6.3,-1.7 0.1,-0.5 0.1,-1 0,-1.6 -0.2,-1.6 -1,-3 -2.3,-4 L 29.1,26.6 c -1.3,-1 -2.8,-1.4 -4.4,-1.2 -1.6,0.2 -3,1 -4,2.3 -1,1.3 -1.4,2.8 -1.2,4.4 0.2,1.6 1,3 2.3,4 L 43.7,53 c 1.1,0.8 2.4,1.2 3.7,1.2 0.6,0 1.2,-0.1 1.8,-0.3 -0.2,1.7 0.2,3.4 1.4,4.8 l 18.3,20.8 c 1,1.2 2.5,1.9 4.1,2 0.1,0 0.3,0 0.4,0 1.5,0 2.8,-0.5 3.9,-1.5 2.5,-2.2 2.7,-6 0.5,-8.4 L 59.5,50.8 Z m -9,-0.1 c -1.3,1.7 -3.8,2.1 -5.6,0.7 L 23,34.5 c -0.8,-0.6 -1.4,-1.6 -1.5,-2.6 -0.1,-1.1 0.1,-2.1 0.8,-2.9 0.6,-0.8 1.6,-1.4 2.6,-1.5 0.2,0 0.3,0 0.5,0 0.9,0 1.7,0.3 2.4,0.8 l 21.9,16.9 c 0.8,0.6 1.4,1.6 1.5,2.6 0.1,1 -0.1,2.1 -0.7,2.9 z m 25.4,27.8 c -0.8,0.7 -1.8,1 -2.9,1 C 71.9,79.4 71,79 70.3,78.2 L 52.1,57.4 c -1.4,-1.6 -1.3,-4.2 0.4,-5.6 0.8,-0.7 1.7,-1 2.6,-1 1.1,0 2.2,0.5 3,1.3 l 18.3,20.8 c 1.3,1.7 1.2,4.2 -0.5,5.6 z"
       id="path12"
       inkscape:connector-curvature="0" /><path
       d="m 73.1,74.3 c 0.1,-0.6 0.2,-1.6 -0.6,-2.5 -0.8,-0.9 -1.7,-0.9 -2.4,-0.9 -0.6,0 -0.7,0 -0.9,-0.3 -0.2,-0.2 -0.2,-0.4 -0.1,-0.9 0.1,-0.6 0.2,-1.6 -0.6,-2.5 -0.8,-0.9 -1.7,-0.9 -2.4,-0.9 -0.6,0 -0.7,0 -0.9,-0.3 C 65,65.7 65,65.7 65,65.1 c 0.1,-0.6 0.2,-1.6 -0.6,-2.5 -0.8,-0.9 -1.7,-0.9 -2.4,-0.9 -0.6,0 -0.7,0 -0.9,-0.3 C 61,61.2 61,61.1 61,60.5 61.1,59.9 61.2,58.9 60.4,58 59.6,57.1 58.7,57.1 58,57.1 c -0.6,0 -0.7,0 -0.9,-0.3 C 56.9,56.5 56.9,56.5 57,56 57.1,55.4 57.2,54.4 56.4,53.5 56,53.1 55.4,53 55,53.4 c -0.4,0.4 -0.5,1 -0.1,1.4 0.2,0.2 0.2,0.4 0.1,0.9 -0.1,0.6 -0.2,1.6 0.6,2.5 0.8,0.9 1.7,0.9 2.4,0.9 0.6,0 0.7,0 0.9,0.3 0.2,0.2 0.2,0.4 0.1,0.9 -0.1,0.6 -0.2,1.6 0.6,2.5 0.8,0.9 1.7,0.9 2.4,0.9 0.6,0 0.7,0 0.9,0.3 0.2,0.2 0.2,0.4 0.1,0.9 -0.1,0.6 -0.2,1.6 0.6,2.5 0.8,0.9 1.7,0.9 2.4,0.9 0.6,0 0.7,0 0.9,0.3 0.2,0.2 0.2,0.4 0.1,0.9 -0.1,0.6 -0.2,1.6 0.6,2.5 0.8,0.9 1.7,0.9 2.4,0.9 0.6,0 0.7,0 0.9,0.3 0.2,0.3 0.2,0.4 0.1,0.9 -0.1,0.6 -0.2,1.6 0.6,2.5 0.2,0.2 0.5,0.3 0.8,0.3 0.2,0 0.5,-0.1 0.7,-0.2 0.4,-0.4 0.5,-1 0.1,-1.4 -0.1,-0.3 -0.1,-0.5 -0.1,-1 z"
       id="path14"
       inkscape:connector-curvature="0" /><path
       d="m 40.9,65.6 c 0.8,-0.4 1.2,-0.6 1.5,-0.4 0.4,0.2 0.5,0.6 0.5,1.5 0.1,1 0.2,2.3 1.6,3 0.5,0.2 0.9,0.3 1.3,0.3 0.8,0 1.5,-0.4 2.1,-0.7 0.8,-0.4 1.2,-0.6 1.5,-0.4 0.5,0.3 1.1,0.1 1.4,-0.4 C 51.1,68 50.9,67.4 50.4,67.1 49,66.4 47.9,67 47,67.4 46.2,67.8 45.8,68 45.5,67.8 45.1,67.6 45,67.2 45,66.3 44.9,65.3 44.8,64 43.4,63.3 42,62.6 40.9,63.2 40,63.6 39.2,64 38.8,64.2 38.5,64 38,64 38,63.6 37.9,62.7 c -0.1,-1 -0.2,-2.3 -1.6,-3 -1.4,-0.7 -2.5,-0.1 -3.4,0.3 -0.8,0.4 -1.2,0.6 -1.5,0.4 -0.4,-0.2 -0.5,-0.6 -0.5,-1.5 -0.1,-1 -0.2,-2.3 -1.6,-3 -0.5,-0.3 -1.1,-0.1 -1.4,0.4 -0.3,0.5 -0.1,1.1 0.4,1.4 0.4,0.2 0.5,0.6 0.5,1.5 0.1,1 0.2,2.3 1.6,3 1.4,0.7 2.5,0.1 3.4,-0.3 0.8,-0.4 1.2,-0.6 1.5,-0.4 0.4,0.2 0.5,0.6 0.5,1.5 0.1,1 0.2,2.3 1.6,3 1.4,0.7 2.6,0 3.5,-0.4 z"
       id="path16"
       inkscape:connector-curvature="0" /><path
       d="m 28.6,49.9 c 0.1,0 0.2,0.1 0.3,0.6 0.2,0.6 0.6,1.5 1.8,1.7 0.2,0 0.3,0.1 0.5,0.1 0.9,0 1.5,-0.5 1.8,-0.9 0.3,-0.3 0.4,-0.4 0.5,-0.4 0.5,0.1 1.1,-0.2 1.2,-0.8 0.1,-0.5 -0.2,-1.1 -0.8,-1.2 -1.1,-0.2 -1.9,0.4 -2.3,0.8 -0.3,0.3 -0.4,0.4 -0.5,0.4 -0.1,0 -0.2,-0.1 -0.3,-0.6 C 30.6,49 30.2,48.1 29,47.9 27.9,47.7 27.1,48.3 26.7,48.7 26.4,49 26.3,49.1 26.2,49.1 26.1,49.1 26,49 25.9,48.5 25.7,47.9 25.3,47 24.1,46.8 23.6,46.7 23,47 22.9,47.6 c -0.1,0.5 0.2,1.1 0.8,1.2 0.1,0 0.2,0.1 0.3,0.6 0.2,0.6 0.6,1.5 1.8,1.7 1.1,0.2 1.9,-0.4 2.3,-0.8 0.3,-0.3 0.4,-0.4 0.5,-0.4 z"
       id="path18"
       inkscape:connector-curvature="0" /><path
       d="m 67.2,52.4 c 0.1,0.6 0.2,1.6 1.2,2.2 1,0.6 1.9,0.3 2.5,0.1 0.5,-0.2 0.6,-0.2 0.8,-0.1 0.2,0.1 0.2,0.2 0.3,0.7 0.1,0.6 0.2,1.6 1.2,2.2 0.5,0.3 0.9,0.4 1.3,0.4 0.5,0 0.9,-0.1 1.2,-0.2 0.5,-0.2 0.6,-0.2 0.8,-0.1 0.5,0.3 1.1,0.2 1.4,-0.3 0.3,-0.5 0.2,-1.1 -0.3,-1.4 -1,-0.6 -1.9,-0.3 -2.5,-0.1 C 74.6,56 74.5,56 74.3,55.9 74.1,55.8 74.1,55.7 74,55.2 73.9,54.6 73.8,53.6 72.8,53 71.8,52.4 70.9,52.7 70.3,52.9 69.8,53.1 69.7,53.1 69.5,53 69.3,52.9 69.3,52.8 69.2,52.3 69.1,51.7 69,50.7 68,50.1 c -0.5,-0.3 -1.1,-0.2 -1.4,0.3 -0.3,0.5 -0.2,1.1 0.3,1.4 0.2,-0.1 0.2,0 0.3,0.6 z"
       id="path20"
       inkscape:connector-curvature="0" /><path
       d="m 39.4,28.2 c 0.6,0.9 1.5,1 2.1,1.1 0.5,0 0.6,0.1 0.7,0.2 0.2,0.3 0.5,0.4 0.8,0.4 0.2,0 0.4,-0.1 0.6,-0.2 0.5,-0.3 0.6,-0.9 0.2,-1.4 -0.6,-0.9 -1.5,-1 -2.1,-1.1 -0.5,0 -0.6,-0.1 -0.7,-0.2 -0.1,-0.1 -0.1,-0.2 0,-0.7 0.2,-0.6 0.4,-1.4 -0.3,-2.4 -0.6,-0.9 -1.5,-1 -2.1,-1.1 -0.5,0 -0.6,-0.1 -0.7,-0.2 -0.1,-0.1 -0.1,-0.2 0,-0.7 0.2,-0.6 0.4,-1.4 -0.3,-2.4 -0.3,-0.5 -0.9,-0.6 -1.4,-0.2 -0.5,0.3 -0.6,0.9 -0.2,1.4 0.1,0.1 0.1,0.2 0,0.7 -0.2,0.6 -0.4,1.4 0.3,2.4 0.6,0.9 1.5,1 2.1,1.1 0.5,0 0.6,0.1 0.7,0.2 0.1,0.1 0.1,0.2 0,0.7 -0.1,0.6 -0.3,1.5 0.3,2.4 z"
       id="path22"
       inkscape:connector-curvature="0" /></g></svg>