<?xml version="1.0" encoding="UTF-8" standalone="no"?>
<!-- Created with Inkscape (http://www.inkscape.org/) -->

<svg
   xmlns:dc="http://purl.org/dc/elements/1.1/"
   xmlns:cc="http://creativecommons.org/ns#"
   xmlns:rdf="http://www.w3.org/1999/02/22-rdf-syntax-ns#"
   xmlns:svg="http://www.w3.org/2000/svg"
   xmlns="http://www.w3.org/2000/svg"
   xmlns:sodipodi="http://sodipodi.sourceforge.net/DTD/sodipodi-0.dtd"
   xmlns:inkscape="http://www.inkscape.org/namespaces/inkscape"
   height="70"
   width="70"
   version="1.1"
   id="svg2"
   inkscape:version="0.48.4 r9939"
   sodipodi:docname="preloader_bottom_left.svg">
  <defs
     id="defs30" />
  <sodipodi:namedview
     pagecolor="#ffffff"
     bordercolor="#666666"
     borderopacity="1"
     objecttolerance="10"
     gridtolerance="10"
     guidetolerance="10"
     inkscape:pageopacity="0"
     inkscape:pageshadow="2"
     inkscape:window-width="640"
     inkscape:window-height="480"
     id="namedview28"
     showgrid="false"
     inkscape:zoom="1.19198"
     inkscape:cx="22.794599"
     inkscape:cy="9.5800804"
     inkscape:window-x="0"
     inkscape:window-y="0"
     inkscape:window-maximized="0"
     inkscape:current-layer="svg2" />
  <metadata
     id="metadata4">
    <rdf:RDF>
      <cc:Work
         rdf:about="">
        <dc:format>image/svg+xml</dc:format>
        <dc:type
           rdf:resource="http://purl.org/dc/dcmitype/StillImage" />
        <dc:title />
      </cc:Work>
    </rdf:RDF>
  </metadata>
  <rect
     style="fill:#7c1544"
     id="rect8"
     x="-0.27353245"
     y="-70.240105"
     width="70.438004"
     height="69.939003"
     transform="matrix(0,1,-1,0,0,0)" />
  <path
     style="fill:#a61c5a"
     inkscape:connector-curvature="0"
     id="path26"
     d="m 70.250098,12.311721 c -0.6147,-0.055 -1.2399,0.11974 -1.5938,0.625 -0.4466,0.63781 -0.8591,0.76806 -1.8125,0.59375 -1.3591,-0.24845 -2.411,0.21035 -2,0.875 0.579,0.9364 -0.2628,1.2072 -1.3437,0.4375 -0.6071,-0.43234 -1.3768,-0.78125 -1.7188,-0.78125 -0.3685,0 -0.625,-0.33493 -0.625,-0.8125 0,-0.61769 -0.1745,-0.74511 -0.75,-0.5625 -0.4614,0.14653 -0.8646,0.0134 -1.0625,-0.34375 -0.2774,-0.49589 -0.6409,-0.49786 -2.4687,-0.0937 -1.9171,0.4239 -2.1682,0.58329 -2.2813,1.5625 -0.2144,1.8561 -4.9326,4.6155 -5.7188,3.3438 -0.4308,-0.69703 -1.4267,-0.41011 -1.1875,0.34375 0.1628,0.51304 -0.05,0.85433 -0.7813,1.1875 -0.6659,0.30355 -0.9273,0.67581 -0.7812,1.0625 0.1246,0.32484 0.014,0.93997 -0.25,1.375 -0.539,0.88709 -3.5868,2.454 -4.7813,2.4688 -0.501,0.006 -0.7517,0.25027 -0.7187,0.6875 0.039,0.49083 -0.2279,0.6875 -0.9688,0.6875 -0.9773,0 -1.026,0.0907 -1,1.9375 0.016,1.0681 0.1376,2.0747 0.2813,2.2188 0.1431,0.14399 0.055,0.48973 -0.1875,0.78125 -0.3339,0.40066 -0.2873,0.70901 0.1562,1.2188 0.6047,0.69388 0.555,1.1682 -0.2187,2.75 -0.3733,0.76273 -0.3063,1.008 0.2812,1.4375 0.5931,0.43375 1.2689,3.5285 1.375,6.1562 0.01,0.1752 0.3656,0.19435 0.7813,0.0625 0.5128,-0.16282 0.8847,-0.007 1.1562,0.5 0.2202,0.41059 0.33,0.82455 0.25,0.90625 -0.1423,0.14639 -0.4754,1.7268 -0.6875,3.25 -0.06,0.42846 -0.4466,0.88411 -0.875,1 -0.4284,0.1159 -0.8352,0.60801 -0.9062,1.0938 -0.1027,0.71141 -0.2454,0.80468 -0.6875,0.4375 -0.3019,-0.25069 -0.839,-0.35237 -1.1875,-0.21875 -0.5175,0.19867 -0.5562,0.36202 -0.1563,0.84375 0.2678,0.32399 0.4288,0.6302 0.3438,0.6875 -0.084,0.0573 -0.9309,0.58202 -1.875,1.1875 l -1.7188,1.125 -0.7187,-0.9375 c -0.6794,-0.86643 -0.7326,-0.88127 -1.125,-0.21875 -0.242,0.40932 -0.7913,0.65695 -1.2813,0.59375 -1.1012,-0.1422 -1.8257,0.34544 -1.5625,1.0312 0.115,0.29979 -0.1814,1.0768 -0.6562,1.7188 -0.5244,0.71026 -0.7493,1.4064 -0.5938,1.8125 0.337,0.87814 -0.7627,2.5 -1.6875,2.5 -0.9204,0 -1.3855,1.1337 -0.5937,1.4375 0.3551,0.1352 0.5347,0.62692 0.4687,1.2188 -0.085,0.79581 0.1235,1.0562 1.125,1.4062 1.6211,0.56636 1.7463,0.70935 1.7813,2.25 0.018,0.71825 0.2035,1.3993 0.4062,1.5312 0.2261,0.14599 0.1832,0.52223 -0.094,0.96875 -0.5869,0.94594 -0.2463,1.974 0.6562,2.5625 l 39.594,0 0,-57.906 z" />
</svg>
