<?xml version="1.0" encoding="UTF-8" standalone="no"?>
<!-- Created with Inkscape (http://www.inkscape.org/) -->

<svg
   xmlns:dc="http://purl.org/dc/elements/1.1/"
   xmlns:cc="http://creativecommons.org/ns#"
   xmlns:rdf="http://www.w3.org/1999/02/22-rdf-syntax-ns#"
   xmlns:svg="http://www.w3.org/2000/svg"
   xmlns="http://www.w3.org/2000/svg"
   xmlns:sodipodi="http://sodipodi.sourceforge.net/DTD/sodipodi-0.dtd"
   xmlns:inkscape="http://www.inkscape.org/namespaces/inkscape"
   width="70"
   height="70"
   id="svg2"
   version="1.1"
   inkscape:version="0.48.4 r9939"
   sodipodi:docname="preloader_original.svg"
   inkscape:export-filename="/home/poupi/Desktop/work/frontScope/src/assets/favicon_original.png"
   inkscape:export-xdpi="99.040001"
   inkscape:export-ydpi="99.040001">
  <defs
     id="defs4" />
  <sodipodi:namedview
     id="base"
     pagecolor="#ffffff"
     bordercolor="#666666"
     borderopacity="1.0"
     inkscape:pageopacity="0.0"
     inkscape:pageshadow="2"
     inkscape:zoom="0.35355339"
     inkscape:cx="1026.4981"
     inkscape:cy="-93.599887"
     inkscape:document-units="px"
     inkscape:current-layer="layer1"
     showgrid="false"
     inkscape:window-width="1280"
     inkscape:window-height="748"
     inkscape:window-x="0"
     inkscape:window-y="0"
     inkscape:window-maximized="1" />
  <metadata
     id="metadata7">
    <rdf:RDF>
      <cc:Work
         rdf:about="">
        <dc:format>image/svg+xml</dc:format>
        <dc:type
           rdf:resource="http://purl.org/dc/dcmitype/StillImage" />
        <dc:title></dc:title>
      </cc:Work>
    </rdf:RDF>
  </metadata>
  <g
     inkscape:label="Layer 1"
     inkscape:groupmode="layer"
     id="layer1"
     transform="translate(0,-982.36218)">
    <rect
       style="opacity:0.22767855;fill:#7c1544;fill-opacity:1;stroke:#ffffff;stroke-width:0.30074632;stroke-linejoin:bevel;stroke-miterlimit:4;stroke-opacity:0;stroke-dasharray:none;stroke-dashoffset:0"
       id="rect4646-5"
       width="142.78584"
       height="141.77318"
       x="287.82285"
       y="671.72943" />
    <path
       style="fill:#7c1544;fill-opacity:1"
       d="m 396.6354,790.2026 c -0.48202,-0.2375 -0.8764,-0.7607 -0.8764,-1.1634 0,-0.402 -0.26292,-0.8323 -0.58426,-0.9558 -0.32135,-0.1249 -0.58427,-0.4539 -0.58427,-0.735 0,-0.2812 -0.30674,-1.0563 -0.68164,-1.7227 -0.52058,-0.9252 -0.87912,-1.1639 -1.51743,-1.0081 -1.0481,0.2552 -1.42572,-0.5951 -0.88999,-2.0045 0.72373,-1.9034 0.10006,-3.2165 -1.98695,-4.1836 -1.03524,-0.4798 -2.6391,-1.4288 -3.56413,-2.1089 -0.92503,-0.6803 -2.54652,-1.8725 -3.60332,-2.6495 l -1.92146,-1.4125 -0.65634,0.8107 c -0.87658,1.0823 -2.70667,1.5607 -2.70667,0.7074 0,-0.8717 -1.89656,-2.0101 -3.08857,-1.8541 -0.55071,0.073 -1.4415,0.3586 -1.97954,0.6369 -0.84404,0.4362 -1.09787,0.4089 -1.85017,-0.2003 -0.47956,-0.3883 -0.87192,-1.0835 -0.87192,-1.5447 0,-0.7105 -0.19209,-0.8198 -1.25703,-0.7166 -0.85163,0.082 -1.40145,0.4133 -1.70486,1.0258 -0.59675,1.2037 -1.89261,2.0735 -2.65435,1.7811 -0.43503,-0.165 -0.61592,-0.024 -0.61592,0.5427 0,0.4287 -0.26555,0.8809 -0.59011,1.0053 -0.32456,0.1249 -0.75314,0.6556 -0.9524,1.1792 -0.25858,0.6806 -0.57605,0.8974 -1.10904,0.7579 -0.5313,-0.139 -0.81086,0.05 -0.96894,0.6544 -0.12419,0.4751 -0.40674,0.7355 -0.64065,0.5908 -0.58854,-0.3636 -0.97837,0.8623 -0.46924,1.4759 0.24134,0.291 0.31901,1.1314 0.18235,1.9734 -0.27933,1.7212 -1.72371,2.5821 -3.00224,1.7889 -0.44652,-0.2769 -0.82779,-0.3111 -0.97378,-0.085 -0.13197,0.2027 -0.82759,0.383 -1.54584,0.4006 -1.54065,0.035 -1.67643,0.1438 -2.24279,1.7649 -0.35008,1.0015 -0.6202,1.2176 -1.41601,1.133 -0.59183,-0.066 -1.07286,0.1249 -1.20806,0.48 -0.30379,0.7918 -1.42267,0.3179 -1.42267,-0.6025 0,-0.9248 -1.62691,-2.0137 -2.50505,-1.6767 -0.40605,0.1555 -1.12414,-0.082 -1.8344,-0.6064 -0.64192,-0.4748 -1.41241,-0.7689 -1.7122,-0.6539 -0.68581,0.2632 -1.16348,-0.4732 -1.02128,-1.5744 0.0632,-0.49 -0.18696,-1.019 -0.59628,-1.261 -0.66252,-0.3924 -0.64936,-0.4612 0.21707,-1.1406 l 0.92232,-0.7225 -1.10088,-1.7165 c -0.60548,-0.9441 -1.14775,-1.7851 -1.20505,-1.8693 -0.0573,-0.085 -0.36924,0.068 -0.69323,0.3358 -0.48173,0.3999 -0.63334,0.3738 -0.83201,-0.1437 -0.13362,-0.3485 -0.0378,-0.8809 0.21289,-1.1828 0.36718,-0.4421 0.28407,-0.5738 -0.42734,-0.6765 -0.48574,-0.071 -0.97799,-0.4782 -1.09389,-0.9066 -0.11589,-0.4284 -0.56128,-0.8281 -0.98974,-0.8877 -1.52321,-0.2121 -3.11828,-0.551 -3.26467,-0.6933 -0.0817,-0.08 -0.48453,0.035 -0.89512,0.2552 -0.50704,0.2715 -0.66962,0.6419 -0.5068,1.1547 0.13185,0.4157 0.0965,0.7612 -0.0787,0.768 -2.62778,0.1061 -5.71763,0.8102 -6.15138,1.4033 -0.42955,0.5875 -0.66843,0.6307 -1.43116,0.2574 -1.58184,-0.7737 -2.06454,-0.8097 -2.75842,-0.205 -0.50974,0.4435 -0.80371,0.48 -1.20437,0.1461 -0.29152,-0.2421 -0.64785,-0.3222 -0.79184,-0.1791 -0.14401,0.1437 -1.13573,0.274 -2.20385,0.2898 -1.84676,0.026 -1.94203,-0.024 -1.94203,-1.0013 0,-0.7409 -0.19081,-1.0138 -0.68164,-0.9749 -0.43723,0.033 -0.68513,-0.2239 -0.69136,-0.7249 -0.0148,-1.1945 -1.59226,-4.2262 -2.47935,-4.7652 -0.43503,-0.2641 -1.05674,-0.3784 -1.38158,-0.2538 -0.38669,0.1461 -0.7507,-0.1249 -1.05425,-0.7908 -0.33317,-0.7313 -0.66454,-0.9537 -1.17758,-0.7909 -0.75386,0.2392 -1.04544,-0.7437 -0.34841,-1.1745 1.27179,-0.7861 -1.49287,-5.5172 -3.34901,-5.7316 -0.97921,-0.1131 -1.14124,-0.3474 -1.56514,-2.2645 -0.40411,-1.8278 -0.38849,-2.1862 0.1074,-2.4636 0.35712,-0.1979 0.48871,-0.6134 0.34218,-1.0748 -0.18261,-0.5755 -0.0505,-0.7501 0.56719,-0.7501 0.47757,0 0.80527,-0.2529 0.80527,-0.6214 0,-0.342 0.35373,-1.1184 0.78607,-1.7255 0.76975,-1.0809 0.49629,-1.9055 -0.44011,-1.3265 -0.66465,0.411 -1.13758,-0.6664 -0.88913,-2.0255 0.17431,-0.9534 0.045,-1.3441 -0.59281,-1.7907 -1.09579,-0.7675 -0.74899,-2.9252 0.49877,-3.1034 0.45759,-0.066 0.85557,-0.381 0.88441,-0.7027 0.0289,-0.3214 0.0727,-0.8113 0.0974,-1.0889 0.0247,-0.2774 0.4586,-0.9182 0.96418,-1.4239 0.50559,-0.5052 1.30865,-1.5492 1.78457,-2.3193 0.47592,-0.7699 1.02629,-1.4 1.22305,-1.4 0.19676,0 0.35774,-0.1768 0.35774,-0.3898 0,-0.2145 -0.4382,-0.3893 -0.97377,-0.3893 -0.7141,0 -0.97378,-0.2074 -0.97378,-0.7791 0,-0.4282 0.18287,-0.7791 0.40637,-0.7791 0.23022,0 0.35685,-0.6329 0.29213,-1.4608 -0.11187,-1.43 -0.0839,-1.463 1.34643,-1.5813 1.69999,-0.139 1.76962,-0.299 0.58426,-1.3267 -0.48201,-0.4178 -0.89014,-1.1394 -0.90695,-1.6036 -0.0168,-0.464 -0.15932,-1.4005 -0.31669,-2.0806 -0.27455,-1.1868 -0.21216,-1.2698 1.54073,-2.0448 1.00478,-0.4447 2.15515,-0.8086 2.55638,-0.8086 0.40122,0 0.7295,-0.1555 0.7295,-0.3445 0,-0.1885 0.43907,-0.6323 0.9757,-0.9839 0.92315,-0.6049 1.03828,-0.5931 2.13752,0.2192 0.639,0.472 1.26463,0.7558 1.39029,0.6299 0.12566,-0.1249 0.23516,-1.3854 0.24333,-2.8 0.008,-1.4142 0.17327,-2.6698 0.36692,-2.7895 0.19366,-0.1178 0.22965,-0.4157 0.08,-0.658 -0.14967,-0.2422 -0.31359,-0.7993 -0.36426,-1.2388 -0.0507,-0.4395 -0.15021,-1.1493 -0.22112,-1.5777 -0.0993,-0.6002 0.11729,-0.8076 0.94217,-0.9023 0.69339,-0.08 1.07262,-0.3545 1.07531,-0.7791 0.002,-0.3606 0.61575,-1.2502 1.36328,-1.9765 1.37346,-1.3342 1.68989,-1.9901 0.96045,-1.9901 -0.40285,0 -0.28711,-1.7408 0.22833,-3.4337 0.15593,-0.5123 0.0666,-1.2909 -0.20679,-1.8016 -0.37638,-0.7032 -0.37935,-1.0901 -0.0137,-1.7736 0.49638,-0.9275 0.32048,-0.9223 5.17965,-0.1484 1.06623,0.1697 1.67017,0.061 2.1676,-0.3886 0.37925,-0.3434 1.26035,-0.8232 1.95799,-1.0664 1.31951,-0.46 2.14524,-1.8305 1.73963,-2.8874 -0.14726,-0.3839 0.39388,-1.2334 1.50126,-2.3566 1.57506,-1.5976 1.82651,-1.7202 2.78204,-1.3569 0.89913,0.3418 1.01339,0.5546 0.79304,1.4767 -0.14161,0.5926 -0.39288,1.2527 -0.5584,1.4669 -0.16552,0.2142 -0.42712,1.0906 -0.58134,1.9477 -0.15424,0.8568 -0.46165,1.786 -0.68318,2.0645 -0.29911,0.3764 -0.19799,0.5602 0.39282,0.7148 1.02049,0.2668 1.65393,1.6519 1.25215,2.7381 -0.17156,0.4635 -0.17472,1.3401 -0.007,1.9472 0.26335,0.9539 0.47608,1.0906 1.55786,1.0025 0.68908,-0.057 1.63134,0.1602 2.09391,0.4868 0.4626,0.3238 1.15262,0.5889 1.53342,0.5889 0.38079,0 0.69235,0.1674 0.69235,0.3696 0,0.2026 0.43414,0.8379 0.96474,1.4101 0.73081,0.7888 1.2196,0.9926 2.01569,0.8404 0.76243,-0.1461 1.24253,0.026 1.74886,0.6346 0.38387,0.4595 0.70377,1.0322 0.71089,1.2735 0.007,0.241 0.5221,0.5399 1.1444,0.6645 1.16632,0.2333 2.37414,1.9814 2.37414,3.4364 0,0.7597 0.95485,0.9907 1.36329,0.3299 0.13241,-0.2145 0.65824,-0.3898 1.16853,-0.3898 0.51029,0 1.04317,-0.1862 1.18417,-0.4148 0.14101,-0.2285 0.72111,-0.3659 1.28913,-0.3063 0.56802,0.061 1.23705,-0.024 1.48673,-0.1744 0.61988,-0.3832 2.30706,0.3047 2.59629,1.0588 0.14149,0.3686 0.69869,0.6137 1.39433,0.6137 0.73991,0 1.36824,0.2995 1.73854,0.8281 0.45797,0.6541 0.81061,0.7705 1.6775,0.5554 0.6037,-0.1485 1.45339,-0.6045 1.88821,-1.01 1.10766,-1.0334 2.90704,-1.069 4.49246,-0.087 1.00517,0.6212 1.51497,0.731 2.03859,0.4378 0.83956,-0.4699 3.29382,0.6603 3.94686,1.8172 0.22924,0.4062 0.63591,0.9777 0.90369,1.2697 0.26779,0.2922 0.48689,0.8901 0.48689,1.3284 0,0.4383 0.48202,1.3651 1.07115,2.0589 2.36005,2.7803 2.60371,3.1514 2.49669,3.8075 -0.10291,0.6304 0.41588,0.7878 2.17743,0.6603 0.16068,-0.024 0.2616,-0.432 0.22426,-0.9339 -0.0548,-0.7374 0.15748,-0.9459 1.10442,-1.0847 1.8805,-0.2762 3.65694,0.7531 4.12146,2.3881 0.3647,1.2839 0.42362,1.3291 0.68465,0.5281 0.31529,-0.9676 0.61284,-1.0814 1.22498,-0.4694 0.22387,0.2239 1.21885,0.455 2.21109,0.5135 1.51966,0.087 1.99483,-0.068 3.01407,-0.9992 1.55311,-1.4184 3.80465,-1.3619 4.34885,0.1084 0.4599,1.2431 1.48955,2.3405 1.93667,2.0643 0.19908,-0.1249 0.67095,0.054 1.04857,0.3978 0.54969,0.4973 1.41849,0.5965 4.35745,0.4968 3.26017,-0.1108 3.86696,-0.024 5.42365,0.8059 0.96404,0.5121 2.58538,1.0308 3.60297,1.1536 1.85492,0.2238 2.27577,0.5849 1.35943,1.1665 -0.66574,0.4225 -1.74515,2.6794 -2.24473,4.6935 -0.26339,1.0617 -0.62783,1.6553 -1.01635,1.6553 -0.33315,0 -0.69739,0.3504 -0.80944,0.779 -0.11205,0.4285 -0.42719,0.7791 -0.70032,0.7791 -0.27314,0 -0.6017,0.4188 -0.73012,0.9304 -0.12844,0.5118 -0.85201,1.4736 -1.60795,2.1369 -1.6313,1.4326 -2.20322,2.7419 -1.88735,4.3212 0.12723,0.6363 0.0932,1.4687 -0.0756,1.8502 -0.76282,1.724 -1.23668,4.2496 -1.05352,5.6152 0.15349,1.1441 0.0523,1.548 -0.43457,1.7349 -0.38902,0.1485 -0.6346,0.6908 -0.6346,1.3985 0,0.6353 -0.41891,1.8873 -0.93091,2.7824 -0.51201,0.895 -1.15807,2.5453 -1.43569,3.6675 -0.47635,1.925 -0.45682,2.0909 0.34664,2.9464 0.85424,0.9089 1.15168,2.7668 0.50686,3.1651 -0.18951,0.1178 -0.46022,1.0477 -0.60157,2.0681 -0.14137,1.0201 -0.43156,2.3028 -0.64488,2.8498 -0.23483,0.6023 -0.25229,1.3613 -0.0443,1.9236 0.20966,0.5668 0.18862,1.3395 -0.054,1.9824 -0.33953,0.8992 -0.24522,1.2341 0.64585,2.2931 1.24337,1.4778 1.32168,2.3773 0.26443,3.0376 -0.42847,0.2677 -0.77902,0.8392 -0.77902,1.2709 0,1.2754 -2.99279,4.2449 -4.22002,4.1876 -0.5711,-0.024 -1.47657,0.064 -2.01214,0.1956 -0.53558,0.1343 -1.36816,0.05 -1.85018,-0.1861 z"
       id="path2996"
       inkscape:connector-curvature="0"
       sodipodi:nodetypes="sscsccscccccscccsscsscscsccssccsccsccccsscssccccsscccsccccscscsccscccsscssssscccccssssssssscscsssscccssscccssssscccccsssccccccsscssscsssccccscccsccsssscscssccssccsccssssscsscscscsscssccscsccs" />
    <rect
       style="opacity:0.22767855;fill:#7c1544;fill-opacity:1;stroke:#ffffff;stroke-width:0.14836231;stroke-linejoin:bevel;stroke-miterlimit:4;stroke-opacity:0;stroke-dasharray:none;stroke-dashoffset:0"
       id="rect4646-5-3"
       width="70.438225"
       height="69.938667"
       x="287.60233"
       y="672.68512" />
    <rect
       style="opacity:0.22767855;fill:#7c1544;fill-opacity:1;stroke:none"
       id="rect4646-5-3-6"
       width="70.438225"
       height="69.938667"
       x="-180.40434"
       y="898.27216"
       transform="matrix(0.70710678,-0.70710678,0.70710678,0.70710678,0,0)" />
    <rect
       style="opacity:0.22767855;fill:#7c1544;fill-opacity:1;stroke:none"
       id="rect4646-5-3-6-2"
       width="70.438225"
       height="69.938667"
       x="-109.95338"
       y="898.26544"
       transform="matrix(0.70710678,-0.70710678,0.70710678,0.70710678,0,0)" />
    <rect
       style="opacity:0.22767855;fill:#7c1544;fill-opacity:1;stroke:none"
       id="rect4646-5-3-6-9"
       width="70.438225"
       height="69.938667"
       x="-180.40474"
       y="968.21051"
       transform="matrix(0.70710678,-0.70710678,0.70710678,0.70710678,0,0)" />
    <rect
       style="opacity:0.22767855;fill:#7c1544;fill-opacity:1;stroke:none"
       id="rect4646-5-3-6-2-1"
       width="70.438225"
       height="69.938667"
       x="-109.95375"
       y="968.2038"
       transform="matrix(0.70710678,-0.70710678,0.70710678,0.70710678,0,0)" />
    <path
       style="fill:#7c1544;fill-opacity:1"
       d="m 657.68194,797.03294 c -0.52708,-0.10464 -1.04342,-0.50796 -1.14766,-0.89692 -0.10405,-0.3883 -0.46937,-0.7359 -0.81173,-0.77202 -0.34272,-0.0375 -0.68184,-0.28719 -0.75459,-0.55874 -0.0728,-0.27161 -0.56969,-0.94091 -1.10428,-1.48758 -0.7423,-0.75893 -1.15041,-0.8967 -1.72664,-0.58101 -0.94634,0.51778 -1.53116,-0.20581 -1.37847,-1.70584 0.20643,-2.02586 -0.73585,-3.1328 -3.00204,-3.52679 -1.12415,-0.19551 -2.91898,-0.69707 -3.98851,-1.11458 -1.06958,-0.4177 -2.94439,-1.1496 -4.16629,-1.62661 l -2.22156,-0.86705 -0.42415,0.95294 c -0.5666,1.2723 -2.21051,2.20806 -2.43136,1.38383 -0.22561,-0.84199 -2.35218,-1.45075 -3.4632,-0.99154 -0.51305,0.21305 -1.29957,0.71947 -1.74726,1.12754 -0.70237,0.63979 -0.95462,0.67912 -1.83896,0.28539 -0.5637,-0.25098 -1.12264,-0.82092 -1.24201,-1.2664 -0.18389,-0.68629 -0.39772,-0.74214 -1.39966,-0.36683 -0.80139,0.29962 -1.24673,0.76193 -1.38127,1.43209 -0.26488,1.31713 -1.29146,2.49269 -2.10293,2.40741 -0.46291,-0.0468 -0.60114,0.13623 -0.45449,0.68361 0.11096,0.41408 -0.0285,0.91961 -0.30981,1.12377 -0.28117,0.20465 -0.55782,0.82817 -0.61475,1.38552 -0.0736,0.72433 -0.32415,1.01592 -0.87509,1.01912 -0.54917,0.003 -0.77029,0.25816 -0.76655,0.88288 0.003,0.49105 -0.20252,0.81571 -0.46596,0.73645 -0.66259,-0.19888 -0.72187,1.08613 -0.0712,1.54706 0.30844,0.21861 0.60096,1.01029 0.68688,1.85896 0.17567,1.73485 -0.99667,2.94025 -2.43694,2.50498 -0.50296,-0.15189 -0.8801,-0.0862 -0.96259,0.16993 -0.075,0.22995 -0.70027,0.58415 -1.38949,0.78706 -1.47909,0.43255 -1.58209,0.57278 -1.70957,2.28523 -0.079,1.05798 -0.28394,1.33663 -1.07452,1.46088 -0.58875,0.0894 -1.00398,0.39833 -1.04267,0.77631 -0.0885,0.84345 -1.29192,0.67529 -1.53013,-0.21375 -0.23936,-0.89328 -2.09266,-1.52401 -2.85365,-0.97121 -0.35198,0.25529 -1.10706,0.21175 -1.92885,-0.11096 -0.74293,-0.29248 -1.56329,-0.37714 -1.82309,-0.18847 -0.59432,0.43173 -1.24631,-0.15595 -1.39397,-1.25643 -0.0658,-0.48966 -0.44433,-0.93589 -0.90234,-1.0637 -0.7415,-0.20756 -0.7466,-0.27742 -0.0855,-1.15792 l 0.70389,-0.93659 -1.50763,-1.37308 c -0.8292,-0.75522 -1.57066,-1.42722 -1.64779,-1.49372 -0.0773,-0.0673 -0.33906,0.16125 -0.5827,0.50377 -0.36185,0.51094 -0.51502,0.52499 -0.84086,0.0765 -0.21926,-0.30204 -0.2645,-0.8411 -0.10049,-1.1976 0.24022,-0.52208 0.12587,-0.62776 -0.58787,-0.54284 -0.48756,0.0571 -1.06843,-0.20878 -1.29126,-0.59259 -0.22282,-0.38381 -0.75648,-0.65461 -1.18579,-0.60125 -1.5262,0.18936 -3.15464,0.27485 -3.33287,0.17528 -0.0995,-0.0563 -0.45896,0.15921 -0.79857,0.47818 -0.41949,0.39348 -0.48066,0.79333 -0.19068,1.24652 0.23495,0.36741 0.29023,0.71029 0.12276,0.7622 -2.51077,0.78261 -5.31311,2.26243 -5.57858,2.94758 -0.26285,0.67866 -0.48243,0.7822 -1.31577,0.61904 -1.72819,-0.33793 -2.20375,-0.24776 -2.71748,0.51592 -0.37755,0.56033 -0.65209,0.67166 -1.12552,0.45284 -0.34423,-0.15844 -0.70917,-0.14355 -0.81121,0.0319 -0.10191,0.17607 -1.02612,0.55861 -2.05376,0.85033 -1.7771,0.50309 -1.88206,0.47945 -2.13501,-0.46456 -0.19175,-0.71564 -0.4467,-0.92987 -0.91074,-0.76525 -0.41378,0.14504 -0.71973,-0.0389 -0.85543,-0.52125 -0.32345,-1.14996 -2.63182,-3.67009 -3.62819,-3.96113 -0.48856,-0.1425 -1.11866,-0.092 -1.40019,0.11243 -0.3357,0.2412 -0.75745,0.0736 -1.223,-0.49099 -0.5111,-0.62015 -0.88873,-0.74921 -1.34216,-0.45918 -0.66626,0.42617 -1.2023,-0.44777 -0.64052,-1.0443 1.025,-1.08848 -2.86996,-4.94282 -4.71834,-4.66951 -0.97512,0.14419 -1.19227,-0.0402 -2.0979,-1.78225 -0.86341,-1.66093 -0.94108,-2.01116 -0.53389,-2.40745 0.29373,-0.28359 0.31327,-0.71901 0.0523,-1.12675 -0.32533,-0.50862 -0.24292,-0.71147 0.35372,-0.87134 0.4613,-0.12359 0.71238,-0.4527 0.61701,-0.80864 -0.0885,-0.33035 0.0522,-1.17184 0.31269,-1.87016 0.46376,-1.24328 -0.0138,-1.96902 -0.76844,-1.16739 -0.53563,0.56902 -1.2713,-0.34926 -1.38307,-1.72635 -0.0784,-0.96604 -0.30441,-1.30996 -1.03608,-1.57626 -1.25709,-0.45773 -1.48056,-2.63167 -0.32144,-3.12674 0.42491,-0.18219 0.72781,-0.58946 0.6724,-0.90766 -0.0553,-0.31792 -0.13975,-0.80247 -0.18775,-1.07701 -0.0479,-0.27434 0.20532,-1.00561 0.5628,-1.62492 0.35761,-0.61885 0.86309,-1.83513 1.12348,-2.70216 0.26044,-0.86685 0.62898,-1.61791 0.81903,-1.66884 0.19006,-0.0509 0.29979,-0.26337 0.24464,-0.46912 -0.0555,-0.2072 -0.52405,-0.26261 -1.04135,-0.12401 -0.68977,0.18482 -0.99428,0.0517 -1.14225,-0.50052 -0.11082,-0.41362 -0.025,-0.79989 0.19088,-0.85773 0.22238,-0.0596 0.18089,-0.7037 -0.0959,-1.48663 -0.47816,-1.35232 -0.45969,-1.39144 0.89128,-1.8759 1.60609,-0.57426 1.63194,-0.74683 0.22098,-1.43272 -0.57371,-0.27881 -1.1547,-0.87019 -1.29109,-1.31422 -0.13631,-0.44384 -0.51637,-1.31155 -0.8444,-1.92774 -0.57236,-1.0753 -0.53357,-1.17162 0.959,-2.3739 0.85545,-0.68959 1.87244,-1.33883 2.26,-1.44268 0.38754,-0.10384 0.66439,-0.33901 0.61547,-0.52157 -0.0488,-0.18208 0.26046,-0.72439 0.68763,-1.20301 0.73513,-0.82322 0.8494,-0.84162 2.12141,-0.3415 0.73939,0.29053 1.41716,0.40274 1.50595,0.2486 0.089,-0.15316 -0.13142,-1.39905 -0.48965,-2.76757 -0.35829,-1.36808 -0.52363,-2.62367 -0.36756,-2.78942 0.15654,-0.16392 0.11423,-0.46097 -0.093,-0.65628 -0.20727,-0.19518 -0.50978,-0.6909 -0.67247,-1.1023 -0.16273,-0.41142 -0.44256,-1.07128 -0.62193,-1.46672 -0.25126,-0.55405 -0.0957,-0.81045 0.67654,-1.1154 0.64906,-0.25674 0.94432,-0.62003 0.83702,-1.03086 -0.0914,-0.34884 0.2712,-1.36697 0.80528,-2.262 0.98138,-1.6442 1.11723,-2.35967 0.41265,-2.17087 -0.38913,0.10426 -0.72788,-1.60717 -0.66816,-3.37579 0.018,-0.5352 -0.26978,-1.26416 -0.66603,-1.6867 -0.54556,-0.58182 -0.64857,-0.95477 -0.47228,-1.70962 0.23941,-1.02437 0.0708,-0.97382 4.96475,-1.48393 1.07383,-0.11205 1.62905,-0.37336 1.99316,-0.93638 0.27749,-0.42983 1.00435,-1.12135 1.61527,-1.53683 1.1555,-0.78584 1.59838,-2.32335 0.93304,-3.23926 -0.2416,-0.33271 0.0612,-1.29332 0.84018,-2.66486 1.10793,-1.9508 1.31907,-2.1343 2.33605,-2.0307 0.95696,0.0974 1.1224,0.27341 1.14822,1.22113 0.0166,0.60905 -0.0553,1.31169 -0.15972,1.56143 -0.10446,0.24973 -0.1303,1.16398 -0.0574,2.03179 0.0728,0.86754 0.0163,1.84463 -0.12556,2.17099 -0.19146,0.441 -0.0463,0.59235 0.56443,0.58877 1.05477,-0.006 2.02491,1.16792 1.91815,2.32072 -0.0457,0.49211 0.17808,1.33966 0.49722,1.88266 0.50126,0.85324 0.74212,0.93022 1.76424,0.56514 0.65085,-0.2334 1.61722,-0.26749 2.14856,-0.0717 0.53067,0.19299 1.26576,0.27051 1.63358,0.17195 0.36782,-0.0986 0.71209,-0.0175 0.76443,0.17781 0.0524,0.1957 0.6362,0.69698 1.29682,1.11236 0.91007,0.57278 1.43494,0.64313 2.16452,0.29006 0.69863,-0.33844 1.20692,-0.29646 1.85352,0.16034 0.48971,0.34452 0.94694,0.81489 1.01627,1.04612 0.0691,0.23098 0.64404,0.38639 1.27739,0.34567 1.18697,-0.0765 2.80607,1.29941 3.18265,2.70483 0.19663,0.73382 1.1787,0.70986 1.40222,-0.0342 0.0724,-0.24143 0.53492,-0.54687 1.02783,-0.67895 0.4929,-0.13207 0.95943,-0.44985 1.03646,-0.70716 0.077,-0.25722 0.60184,-0.54006 1.16593,-0.62951 0.56444,-0.0881 1.18869,-0.34335 1.39093,-0.55325 0.49958,-0.53058 2.30731,-0.30279 2.78186,0.35076 0.23207,0.31942 0.83372,0.41195 1.50566,0.23191 0.71469,-0.19151 1.39913,-0.0648 1.89363,0.34991 0.61165,0.51328 0.98242,0.53441 1.76409,0.10231 0.54469,-0.29969 1.2474,-0.96007 1.56246,-1.4643 0.80244,-1.28488 2.5313,-1.78497 4.31686,-1.24676 1.1317,0.33987 1.65256,0.31398 2.08244,-0.10474 0.68934,-0.67119 3.35248,-0.21471 4.2827,0.73375 0.32657,0.33303 0.86729,0.7798 1.20152,0.99255 0.33427,0.21296 0.70068,0.73375 0.81412,1.15711 0.11344,0.42337 0.81891,1.19384 1.56753,1.71152 2.99923,2.07473 3.33063,2.37012 3.39707,3.03156 0.0638,0.63556 0.60561,0.65333 2.27414,0.0743 0.14904,-0.0648 0.14087,-0.48499 -0.0251,-0.96012 -0.24378,-0.6981 -0.0927,-0.95443 0.78602,-1.33361 1.74493,-0.7535 3.72724,-0.21905 4.59911,1.24002 0.68456,1.14576 0.75318,1.17417 0.798,0.33291 0.0541,-1.01624 0.31207,-1.20317 1.06175,-0.77046 0.27419,0.15833 1.29508,0.12404 2.26865,-0.0763 1.4904,-0.30928 1.90926,-0.58198 2.65276,-1.74525 1.13303,-1.77207 3.32252,-2.30021 4.22872,-1.02086 0.76596,1.08171 2.04457,1.87522 2.40498,1.49267 0.16001,-0.17215 0.66207,-0.1215 1.1158,0.11285 0.65966,0.33813 1.52455,0.20905 4.33756,-0.64792 3.12041,-0.95081 3.72898,-1.02402 5.44742,-0.6253 1.06374,0.24514 2.76408,0.32654 3.77879,0.18177 1.84963,-0.26391 2.34959,-0.024 1.61501,0.77491 -0.5337,0.58041 -0.99221,3.03978 -0.95347,5.11455 0.0204,1.0937 -0.17802,1.7614 -0.55329,1.86195 -0.32181,0.0862 -0.58294,0.51896 -0.58022,0.96197 0.003,0.4429 -0.21099,0.86312 -0.47482,0.93381 -0.26383,0.0707 -0.4728,0.56026 -0.46443,1.08766 0.008,0.5276 -0.44159,1.64391 -1.0001,2.48025 -1.20493,1.80601 -1.41849,3.21871 -0.70463,4.66245 0.28758,0.58169 0.47015,1.39452 0.40584,1.80672 -0.29062,1.86268 -0.0947,4.42487 0.4357,5.69654 0.44437,1.06539 0.45117,1.48171 0.0293,1.78826 -0.33732,0.24412 -0.43422,0.83149 -0.25101,1.51509 0.16442,0.61365 0.0838,1.93142 -0.17905,2.92852 -0.26292,0.99703 -0.45984,2.75831 -0.43756,3.91413 0.0381,1.9827 0.0999,2.13789 1.09742,2.75628 1.0604,0.65679 1.82853,2.37445 1.30878,2.92607 -0.15256,0.16284 -0.17338,1.13111 -0.0458,2.15332 0.12747,1.02194 0.17915,2.33604 0.11467,2.91961 -0.0709,0.64256 0.10863,1.38022 0.45508,1.86952 0.34921,0.49323 0.52887,1.24504 0.46092,1.92883 -0.0952,0.95644 0.0825,1.25552 1.21734,2.04781 1.58348,1.10563 1.89193,1.95421 1.04161,2.86565 -0.34459,0.36948 -0.53524,1.01226 -0.42354,1.42923 0.33009,1.23194 -1.79216,4.87485 -2.99238,5.13714 -0.55785,0.12463 -1.40969,0.44398 -1.89295,0.70972 -0.48257,0.26834 -1.3086,0.4024 -1.8353,0.2991 z"
       id="path2996-5"
       inkscape:connector-curvature="0"
       sodipodi:nodetypes="sscsccscccccscccsscsscscsccssccsccsccccsscssccccsscccsccccscscsccscccsscssssscccccssssssssscscsssscccssscccssssscccccsssccccccsscssscsssccccscccsccsssscscssccssccsccssssscsscscscsscssccscsccs" />
  </g>
</svg>
